<svg width="822" height="1122" viewBox="0 0 822 1122" fill="none" xmlns="http://www.w3.org/2000/svg">
<path d="M0 20C0 8.9543 8.95431 0 20 0H802C813.046 0 822 8.9543 822 20V1102C822 1113.05 813.046 1122 802 1122H20C8.95432 1122 0 1113.05 0 1102V20Z" fill="#1A0033"/>
<path d="M83.7695 159C83.0868 159 82.5748 158.787 82.2335 158.36C81.9775 157.848 81.9775 157.293 82.2335 156.696L117.306 74.136C117.647 73.2827 117.946 72.728 118.202 72.472C118.543 72.1307 119.098 71.96 119.866 71.96H122.17C122.938 71.96 123.45 72.1307 123.706 72.472C124.047 72.728 124.388 73.2827 124.73 74.136L159.802 156.696C159.887 156.867 159.93 157.123 159.93 157.464C159.93 157.891 159.759 158.275 159.418 158.616C159.162 158.872 158.778 159 158.266 159H155.834C154.895 159 154.212 158.829 153.786 158.488C153.359 158.147 152.975 157.592 152.634 156.824L142.906 133.784H99.1295L89.4015 156.824C89.0602 157.592 88.6762 158.147 88.2495 158.488C87.8228 158.829 87.1402 159 86.2015 159H83.7695ZM140.218 127.512L121.018 82.072L101.69 127.512H140.218Z" fill="#FFF066"/>
<path d="M121.202 281.503C131.382 291.683 147.887 291.683 158.067 281.503C168.247 271.323 168.247 254.818 158.067 244.638L124.888 211.459C122.852 209.423 119.551 209.423 117.515 211.459L84.3364 244.638L84.34 244.641C74.5265 254.848 74.6481 271.078 84.7051 281.135C94.762 291.192 110.992 291.313 121.198 281.5L121.202 281.503Z" fill="#FFF066"/>
<rect x="118.5" y="266" width="5" height="33" rx="2.5" fill="#FFF066"/>
<path d="M730.23 959C730.913 959 731.425 959.213 731.766 959.64C732.022 960.152 732.022 960.707 731.766 961.304L696.694 1043.86C696.353 1044.72 696.054 1045.27 695.798 1045.53C695.457 1045.87 694.902 1046.04 694.134 1046.04H691.83C691.062 1046.04 690.55 1045.87 690.294 1045.53C689.953 1045.27 689.612 1044.72 689.27 1043.86L654.198 961.304C654.113 961.133 654.07 960.877 654.07 960.536C654.07 960.109 654.241 959.725 654.582 959.384C654.838 959.128 655.222 959 655.734 959H658.166C659.105 959 659.788 959.171 660.214 959.512C660.641 959.853 661.025 960.408 661.366 961.176L671.094 984.216H714.87L724.598 961.176C724.94 960.408 725.324 959.853 725.75 959.512C726.177 959.171 726.86 959 727.798 959H730.23ZM673.782 990.488L692.982 1035.93L712.31 990.488H673.782Z" fill="#FFF066"/>
<path d="M692.798 836.497C682.618 826.317 666.113 826.317 655.933 836.497C645.753 846.677 645.753 863.182 655.933 873.362L689.112 906.541C691.148 908.577 694.449 908.577 696.485 906.541L729.664 873.362L729.66 873.359C739.474 863.152 739.352 846.922 729.295 836.865C719.238 826.809 703.008 826.687 692.802 836.5L692.798 836.497Z" fill="#FFF066"/>
<rect x="695.5" y="852" width="5" height="33" rx="2.5" transform="rotate(-180 695.5 852)" fill="#FFF066"/>
<path d="M271.404 493.971C271.02 494.356 270.612 494.559 270.182 494.582C269.764 494.593 269.39 494.435 269.062 494.107C268.723 493.767 268.446 493.332 268.231 492.8C268.016 492.268 267.801 491.748 267.586 491.239C267.371 490.707 267.116 490.294 266.822 490C266.46 489.638 266.087 489.48 265.702 489.525C265.317 489.547 264.944 489.593 264.582 489.661C264.989 490.588 265.351 491.493 265.668 492.376C265.985 493.258 266.206 493.943 266.33 494.429L265.889 494.293C265.753 493.841 265.527 493.207 265.21 492.393C264.904 491.567 264.514 490.667 264.039 489.694C263.813 489.694 263.62 489.615 263.462 489.457C263.123 489.117 262.942 488.744 262.919 488.337C262.896 487.93 262.93 487.681 263.021 487.59C263.145 487.466 263.27 487.454 263.394 487.556C263.519 487.635 263.609 487.703 263.666 487.76C263.722 487.816 263.801 487.963 263.903 488.201C264.005 488.416 264.073 488.54 264.107 488.574C264.265 488.733 264.497 488.795 264.803 488.761C265.108 488.705 265.459 488.648 265.855 488.591C266.24 488.524 266.635 488.524 267.043 488.591C267.45 488.637 267.835 488.84 268.197 489.202C268.536 489.542 268.808 489.96 269.011 490.458C269.226 490.945 269.419 491.42 269.588 491.884C269.769 492.336 269.979 492.681 270.216 492.919C270.42 493.123 270.607 493.207 270.776 493.173C270.946 493.139 271.099 493.055 271.235 492.919C271.506 492.647 271.698 492.285 271.812 491.833C271.936 491.369 272.004 490.871 272.015 490.339C272.026 489.808 271.998 489.293 271.93 488.795C271.851 488.286 271.738 487.856 271.591 487.505L271.981 487.454C272.241 488.144 272.417 488.908 272.507 489.745C272.586 490.571 272.541 491.363 272.372 492.121C272.213 492.868 271.891 493.485 271.404 493.971ZM277.338 488.241C276.852 488.727 276.354 488.92 275.845 488.818C275.347 488.727 274.883 488.467 274.453 488.037C274.102 487.686 273.797 487.268 273.537 486.781C273.276 486.295 273.073 485.797 272.926 485.288C272.79 484.768 272.733 484.292 272.756 483.862C272.79 483.421 272.926 483.082 273.163 482.844C273.265 482.742 273.412 482.652 273.605 482.573C273.593 482.765 273.638 483.059 273.74 483.455C273.842 483.828 273.989 484.236 274.182 484.677C274.363 485.107 274.561 485.52 274.776 485.916C275.002 486.301 275.222 486.6 275.437 486.815C275.777 487.155 276.082 487.347 276.354 487.392C276.614 487.426 276.835 487.353 277.016 487.172C277.253 486.934 277.412 486.527 277.491 485.95C277.559 485.361 277.553 484.711 277.474 483.998C276.897 484.055 276.309 483.964 275.709 483.727C275.109 483.466 274.589 483.116 274.148 482.674C273.774 482.301 273.486 481.888 273.282 481.436C273.09 480.972 273.022 480.519 273.078 480.078C273.124 479.625 273.322 479.224 273.672 478.873C274.136 478.409 274.572 478.223 274.979 478.313C275.386 478.404 275.777 478.635 276.15 479.009C276.591 479.45 276.976 480.05 277.304 480.808C277.621 481.554 277.864 482.341 278.034 483.167C278.351 483.076 278.622 482.918 278.848 482.691C279.109 482.431 279.341 482.03 279.544 481.487C279.737 480.932 279.703 480.321 279.442 479.654L279.816 479.62C280.121 480.378 280.178 481.079 279.985 481.724C279.793 482.346 279.51 482.844 279.137 483.218C278.831 483.523 278.503 483.738 278.153 483.862C278.277 484.756 278.277 485.605 278.153 486.408C278.04 487.2 277.768 487.811 277.338 488.241ZM277.338 483.251C277.202 482.55 276.999 481.883 276.727 481.249C276.456 480.593 276.116 480.061 275.709 479.654C275.381 479.326 275.092 479.139 274.843 479.094C274.595 479.026 274.397 479.065 274.249 479.212C274.023 479.439 273.955 479.835 274.046 480.4C274.136 480.966 274.43 481.498 274.928 481.996C275.256 482.324 275.635 482.612 276.065 482.861C276.495 483.087 276.919 483.218 277.338 483.251ZM284.962 480.821C284.747 481.036 284.396 481.024 283.91 480.787C283.423 480.549 282.954 480.204 282.501 479.752C281.958 479.209 281.404 478.473 280.838 477.545C280.272 476.618 279.724 475.594 279.192 474.474C278.66 473.354 278.179 472.217 277.749 471.063C277.331 469.897 276.991 468.8 276.731 467.77C276.471 466.741 276.318 465.864 276.273 465.14C276.228 464.416 276.329 463.929 276.578 463.68C276.782 463.477 277.048 463.46 277.376 463.63C277.704 463.777 277.981 463.963 278.208 464.19C278.524 464.506 278.835 464.965 279.141 465.564C279.458 466.152 279.752 466.831 280.023 467.601C280.284 468.359 280.499 469.151 280.668 469.977C280.838 470.802 280.94 471.617 280.974 472.42C280.996 473.212 280.929 473.925 280.77 474.559C280.962 475.022 281.211 475.509 281.517 476.018C281.834 476.516 282.167 476.985 282.518 477.427C282.857 477.857 283.18 478.224 283.485 478.53C283.61 478.654 283.717 478.762 283.808 478.852C283.91 478.931 284.006 479.005 284.096 479.073C283.587 478.021 283.169 476.991 282.841 475.984C282.512 474.977 282.354 474.061 282.365 473.235C282.388 472.398 282.648 471.73 283.146 471.232C283.61 470.768 284.102 470.604 284.622 470.74C285.143 470.853 285.59 471.097 285.963 471.47C286.314 471.821 286.591 472.222 286.795 472.675C287.01 473.116 287.208 473.552 287.389 473.982C287.57 474.412 287.802 474.768 288.084 475.051C288.311 475.277 288.52 475.396 288.712 475.407C288.916 475.407 289.091 475.334 289.238 475.186C289.499 474.926 289.663 474.513 289.731 473.948C289.81 473.371 289.804 472.72 289.714 471.996C289.612 471.261 289.431 470.537 289.171 469.824L289.595 469.807C289.912 470.599 290.127 471.391 290.24 472.183C290.342 472.963 290.319 473.687 290.172 474.355C290.025 475.022 289.731 475.577 289.289 476.018C288.905 476.403 288.509 476.595 288.101 476.595C287.705 476.584 287.355 476.425 287.049 476.12C286.812 475.882 286.591 475.571 286.387 475.186C286.184 474.802 285.969 474.417 285.742 474.032C285.528 473.637 285.284 473.303 285.013 473.031C284.719 472.737 284.447 472.59 284.198 472.59C283.949 472.59 283.734 472.681 283.553 472.862C283.27 473.144 283.129 473.512 283.129 473.965C283.129 474.417 283.214 474.921 283.384 475.475C283.553 476.007 283.751 476.555 283.978 477.121C284.215 477.676 284.441 478.207 284.656 478.716C284.86 479.214 285.001 479.65 285.081 480.023C285.16 480.396 285.12 480.662 284.962 480.821ZM280.329 473.676C280.397 473.11 280.385 472.488 280.295 471.809C280.216 471.119 280.091 470.429 279.922 469.739C279.741 469.037 279.543 468.376 279.328 467.753C279.113 467.131 278.892 466.594 278.666 466.141C278.439 465.689 278.241 465.378 278.072 465.208C277.981 465.117 277.913 465.095 277.868 465.14C277.789 465.219 277.783 465.542 277.851 466.107C277.919 466.65 278.055 467.34 278.258 468.178C278.462 469.015 278.739 469.914 279.09 470.876C279.441 471.838 279.854 472.771 280.329 473.676ZM289.214 460.616C289.033 460.797 288.824 460.916 288.587 460.972C288.36 461.017 288.151 460.944 287.959 460.752C287.721 460.514 287.653 460.175 287.755 459.733C287.857 459.269 288.043 458.902 288.315 458.63C288.485 458.461 288.66 458.364 288.841 458.342C289.022 458.319 289.209 458.404 289.401 458.596C289.616 458.811 289.707 459.139 289.673 459.581C289.639 459.999 289.486 460.344 289.214 460.616ZM294.95 470.425C294.509 470.866 294.04 471.053 293.542 470.985C293.055 470.928 292.614 470.702 292.218 470.306C291.958 470.046 291.675 469.672 291.37 469.186C291.076 468.688 290.793 468.145 290.521 467.557C290.238 466.957 290.006 466.363 289.825 465.775C289.656 465.175 289.571 464.638 289.571 464.163C289.559 463.676 289.667 463.32 289.893 463.094C289.995 462.992 290.114 462.941 290.25 462.941C290.385 462.918 290.515 462.969 290.64 463.094C290.776 463.229 290.906 463.54 291.03 464.027C291.166 464.502 291.313 465.056 291.472 465.69C291.63 466.324 291.839 466.951 292.099 467.574C292.36 468.173 292.688 468.671 293.084 469.067C293.491 469.474 293.83 469.678 294.102 469.678C294.373 469.678 294.651 469.537 294.934 469.254C295.318 468.869 295.533 468.27 295.578 467.455C295.635 466.629 295.426 465.492 294.95 464.044L295.273 464.061C295.918 465.362 296.189 466.584 296.088 467.726C295.997 468.858 295.618 469.757 294.95 470.425ZM301.301 464.753C300.294 465.76 299.231 465.703 298.111 464.583C297.613 464.086 297.092 463.384 296.549 462.479C296.006 461.551 295.491 460.561 295.005 459.509C294.869 459.6 294.745 459.69 294.632 459.781C294.507 459.86 294.383 459.928 294.258 459.984L293.953 459.679C294.055 459.6 294.173 459.503 294.309 459.39C294.445 459.277 294.598 459.147 294.767 459C294.394 458.151 294.06 457.309 293.766 456.471C293.461 455.623 293.217 454.848 293.036 454.146C292.855 453.422 292.754 452.811 292.731 452.314C292.708 451.793 292.782 451.448 292.952 451.278C293.042 451.188 293.155 451.143 293.291 451.143C293.427 451.12 293.557 451.171 293.681 451.295C293.874 451.488 294.072 451.923 294.275 452.602C294.468 453.27 294.688 454.079 294.937 455.029C295.186 455.979 295.497 456.969 295.87 457.999L296.498 457.371C296.872 456.997 297.256 456.602 297.652 456.183C298.06 455.753 298.45 455.306 298.823 454.842L299.129 455.148C298.031 456.517 297.104 457.58 296.346 458.338L296.091 458.593C296.43 459.453 296.826 460.29 297.279 461.104C297.732 461.919 298.258 462.626 298.857 463.226C299.344 463.712 299.768 463.989 300.13 464.057C300.481 464.114 300.826 463.972 301.165 463.633C301.754 463.045 302.07 462.207 302.116 461.121C302.161 460.035 301.952 458.83 301.488 457.507L301.878 457.456C302.24 458.361 302.466 459.277 302.557 460.205C302.659 461.121 302.608 461.976 302.404 462.767C302.2 463.559 301.833 464.221 301.301 464.753ZM314.486 451.908C313.943 452.451 313.309 452.722 312.585 452.722C311.861 452.722 311.137 452.36 310.413 451.636C309.847 451.07 309.406 450.414 309.089 449.668C308.772 448.898 308.58 448.118 308.512 447.326C308.444 446.534 308.507 445.793 308.699 445.102C308.88 444.401 309.185 443.835 309.615 443.405C310.079 442.942 310.532 442.761 310.973 442.862C311.414 442.964 311.782 443.162 312.076 443.456C312.404 443.784 312.613 444.152 312.704 444.559C312.806 444.955 312.727 445.283 312.466 445.544C312.274 445.736 312.025 445.815 311.72 445.781C311.799 445.521 311.765 445.193 311.618 444.797C311.459 444.39 311.256 444.062 311.007 443.813C310.871 443.677 310.741 443.603 310.617 443.592C310.492 443.558 310.356 443.615 310.209 443.762C309.904 444.067 309.723 444.52 309.666 445.119C309.621 445.708 309.672 446.358 309.819 447.071C309.977 447.772 310.204 448.451 310.498 449.108C310.803 449.752 311.165 450.284 311.584 450.703C311.935 451.053 312.342 451.291 312.806 451.416C313.27 451.54 313.745 451.359 314.231 450.872C314.684 450.42 315.012 449.843 315.216 449.141C315.431 448.429 315.504 447.642 315.436 446.783C315.368 445.923 315.142 445.063 314.757 444.203L315.148 444.152C315.566 445.091 315.821 446.058 315.911 447.054C315.991 448.038 315.911 448.955 315.674 449.803C315.436 450.652 315.04 451.353 314.486 451.908ZM320.345 445.438C320.13 445.653 319.779 445.641 319.293 445.404C318.806 445.166 318.337 444.821 317.884 444.369C317.341 443.826 316.787 443.09 316.221 442.162C315.655 441.235 315.107 440.211 314.575 439.091C314.043 437.971 313.562 436.834 313.132 435.68C312.714 434.514 312.374 433.417 312.114 432.387C311.854 431.358 311.701 430.481 311.656 429.757C311.611 429.033 311.712 428.546 311.961 428.297C312.165 428.094 312.431 428.077 312.759 428.247C313.087 428.394 313.364 428.58 313.591 428.807C313.907 429.123 314.218 429.582 314.524 430.181C314.841 430.77 315.135 431.448 315.406 432.218C315.667 432.976 315.882 433.768 316.051 434.594C316.221 435.419 316.323 436.234 316.357 437.037C316.379 437.829 316.311 438.542 316.153 439.176C316.345 439.639 316.594 440.126 316.9 440.635C317.217 441.133 317.55 441.602 317.901 442.044C318.24 442.474 318.563 442.841 318.868 443.147C318.993 443.271 319.1 443.379 319.191 443.469C319.293 443.548 319.389 443.622 319.479 443.69C318.97 442.638 318.552 441.608 318.223 440.601C317.895 439.594 317.737 438.678 317.748 437.852C317.771 437.015 318.031 436.347 318.529 435.849C318.993 435.386 319.485 435.221 320.005 435.357C320.526 435.47 320.973 435.714 321.346 436.087C321.697 436.438 321.974 436.839 322.178 437.292C322.393 437.733 322.591 438.169 322.772 438.599C322.953 439.029 323.185 439.385 323.467 439.668C323.694 439.894 323.903 440.013 324.095 440.024C324.299 440.024 324.474 439.951 324.621 439.804C324.882 439.543 325.046 439.13 325.114 438.565C325.193 437.988 325.187 437.337 325.097 436.613C324.995 435.878 324.814 435.154 324.554 434.441L324.978 434.424C325.295 435.216 325.51 436.008 325.623 436.8C325.724 437.58 325.702 438.304 325.555 438.972C325.408 439.639 325.114 440.194 324.672 440.635C324.288 441.02 323.892 441.212 323.484 441.212C323.088 441.201 322.738 441.042 322.432 440.737C322.195 440.499 321.974 440.188 321.77 439.804C321.567 439.419 321.352 439.034 321.125 438.65C320.91 438.254 320.667 437.92 320.396 437.648C320.102 437.354 319.83 437.207 319.581 437.207C319.332 437.207 319.117 437.298 318.936 437.479C318.653 437.761 318.512 438.129 318.512 438.582C318.512 439.034 318.597 439.538 318.767 440.092C318.936 440.624 319.134 441.172 319.361 441.738C319.598 442.293 319.824 442.824 320.039 443.333C320.243 443.831 320.384 444.267 320.464 444.64C320.543 445.013 320.503 445.279 320.345 445.438ZM315.712 438.293C315.78 437.727 315.768 437.105 315.678 436.426C315.599 435.736 315.474 435.046 315.305 434.356C315.124 433.655 314.926 432.993 314.711 432.37C314.496 431.748 314.275 431.211 314.049 430.758C313.822 430.306 313.624 429.995 313.455 429.825C313.364 429.734 313.296 429.712 313.251 429.757C313.172 429.836 313.166 430.159 313.234 430.724C313.302 431.267 313.438 431.957 313.641 432.795C313.845 433.632 314.122 434.531 314.473 435.493C314.824 436.455 315.237 437.388 315.712 438.293ZM330.384 435.195C329.898 435.681 329.4 435.873 328.891 435.772C328.393 435.681 327.929 435.421 327.499 434.991C327.149 434.64 326.843 434.222 326.583 433.735C326.323 433.249 326.119 432.751 325.972 432.242C325.836 431.721 325.78 431.246 325.802 430.816C325.836 430.375 325.972 430.036 326.21 429.798C326.311 429.696 326.458 429.606 326.651 429.526C326.64 429.719 326.685 430.013 326.787 430.409C326.888 430.782 327.035 431.19 327.228 431.631C327.409 432.061 327.607 432.474 327.822 432.87C328.048 433.254 328.269 433.554 328.484 433.769C328.823 434.108 329.129 434.301 329.4 434.346C329.66 434.38 329.881 434.306 330.062 434.125C330.299 433.888 330.458 433.481 330.537 432.904C330.605 432.315 330.599 431.665 330.52 430.952C329.943 431.008 329.355 430.918 328.755 430.68C328.156 430.42 327.635 430.069 327.194 429.628C326.821 429.255 326.532 428.842 326.328 428.389C326.136 427.926 326.068 427.473 326.125 427.032C326.17 426.579 326.368 426.178 326.719 425.827C327.183 425.363 327.618 425.176 328.025 425.267C328.433 425.357 328.823 425.589 329.196 425.963C329.638 426.404 330.022 427.003 330.35 427.761C330.667 428.508 330.91 429.294 331.08 430.12C331.397 430.03 331.668 429.871 331.895 429.645C332.155 429.385 332.387 428.983 332.591 428.44C332.783 427.886 332.749 427.275 332.489 426.607L332.862 426.574C333.168 427.332 333.224 428.033 333.032 428.678C332.839 429.3 332.557 429.798 332.183 430.171C331.878 430.477 331.55 430.692 331.199 430.816C331.323 431.71 331.323 432.558 331.199 433.362C331.086 434.154 330.814 434.765 330.384 435.195ZM330.384 430.205C330.249 429.504 330.045 428.836 329.773 428.203C329.502 427.547 329.162 427.015 328.755 426.607C328.427 426.279 328.139 426.093 327.89 426.047C327.641 425.98 327.443 426.019 327.296 426.166C327.069 426.393 327.002 426.788 327.092 427.354C327.183 427.92 327.477 428.452 327.975 428.949C328.303 429.278 328.682 429.566 329.112 429.815C329.541 430.041 329.966 430.171 330.384 430.205ZM338.348 427.164C337.963 427.548 337.482 427.69 336.905 427.588C336.328 427.463 335.813 427.175 335.361 426.722C335.033 426.394 334.705 425.964 334.376 425.433C334.06 424.889 333.771 424.329 333.511 423.752C333.251 423.175 333.07 422.666 332.968 422.225C332.866 421.784 332.877 421.501 333.002 421.377C333.058 421.32 333.188 421.258 333.392 421.19C333.584 421.111 333.777 421.077 333.969 421.088C334.037 421.405 334.178 421.852 334.393 422.429C334.608 423.006 334.874 423.588 335.191 424.177C335.508 424.765 335.858 425.251 336.243 425.636C336.334 425.727 336.486 425.857 336.701 426.026C336.905 426.185 337.126 426.292 337.363 426.349C337.601 426.405 337.81 426.343 337.991 426.162C338.206 425.947 338.319 425.619 338.331 425.178C338.331 424.725 338.268 424.211 338.144 423.634C338.031 423.045 337.878 422.44 337.686 421.818C337.493 421.196 337.301 420.607 337.109 420.053C336.928 419.487 336.775 419.018 336.65 418.644C336.73 418.588 336.848 418.514 337.007 418.424C337.177 418.322 337.341 418.248 337.499 418.203C337.669 418.146 337.804 418.169 337.906 418.271C337.952 418.316 338.048 418.526 338.195 418.899C338.331 419.261 338.506 419.708 338.721 420.24C338.936 420.749 339.173 421.246 339.434 421.733C339.694 422.219 339.965 422.604 340.248 422.887C340.452 423.091 340.656 423.215 340.859 423.26C341.074 423.294 341.283 423.209 341.487 423.006C341.725 422.768 341.906 422.372 342.03 421.818C342.155 421.263 342.189 420.607 342.132 419.849C342.064 419.08 341.877 418.271 341.572 417.422L341.945 417.355C342.319 418.203 342.551 419.057 342.641 419.917C342.72 420.766 342.675 421.535 342.505 422.225C342.336 422.915 342.047 423.464 341.64 423.871C341.187 424.324 340.752 424.51 340.333 424.431C339.926 424.363 339.547 424.154 339.196 423.803C339.06 423.668 338.936 423.521 338.823 423.362C338.698 423.192 338.579 423.017 338.466 422.836C338.704 423.707 338.851 424.544 338.908 425.348C338.964 426.128 338.777 426.734 338.348 427.164ZM347.146 418.636C346.931 418.851 346.581 418.84 346.094 418.602C345.608 418.365 345.138 418.02 344.686 417.567C344.143 417.024 343.588 416.289 343.023 415.361C342.457 414.433 341.908 413.409 341.376 412.289C340.845 411.169 340.364 410.032 339.934 408.878C339.515 407.713 339.176 406.615 338.916 405.586C338.655 404.556 338.503 403.679 338.457 402.955C338.412 402.231 338.514 401.745 338.763 401.496C338.967 401.292 339.232 401.275 339.561 401.445C339.889 401.592 340.166 401.779 340.392 402.005C340.709 402.322 341.02 402.78 341.325 403.38C341.642 403.968 341.936 404.647 342.208 405.416C342.468 406.174 342.683 406.966 342.853 407.792C343.023 408.618 343.124 409.433 343.158 410.236C343.181 411.028 343.113 411.741 342.955 412.374C343.147 412.838 343.396 413.324 343.701 413.834C344.018 414.331 344.352 414.801 344.703 415.242C345.042 415.672 345.364 416.04 345.67 416.345C345.794 416.47 345.902 416.577 345.992 416.668C346.094 416.747 346.19 416.82 346.281 416.888C345.772 415.836 345.353 414.807 345.025 413.8C344.697 412.793 344.539 411.876 344.55 411.05C344.572 410.213 344.833 409.546 345.331 409.048C345.794 408.584 346.287 408.42 346.807 408.556C347.327 408.669 347.774 408.912 348.148 409.285C348.498 409.636 348.776 410.038 348.979 410.49C349.194 410.932 349.392 411.367 349.573 411.797C349.754 412.227 349.986 412.583 350.269 412.866C350.495 413.092 350.705 413.211 350.897 413.223C351.1 413.223 351.276 413.149 351.423 413.002C351.683 412.742 351.847 412.329 351.915 411.763C351.994 411.186 351.989 410.536 351.898 409.812C351.796 409.076 351.615 408.352 351.355 407.639L351.779 407.622C352.096 408.414 352.311 409.206 352.424 409.998C352.526 410.779 352.503 411.503 352.356 412.17C352.209 412.838 351.915 413.392 351.474 413.834C351.089 414.218 350.693 414.411 350.286 414.411C349.89 414.399 349.539 414.241 349.234 413.935C348.996 413.698 348.776 413.387 348.572 413.002C348.368 412.617 348.153 412.233 347.927 411.848C347.712 411.452 347.469 411.118 347.197 410.847C346.903 410.553 346.632 410.405 346.383 410.405C346.134 410.405 345.919 410.496 345.738 410.677C345.455 410.96 345.314 411.328 345.314 411.78C345.314 412.233 345.398 412.736 345.568 413.29C345.738 413.822 345.936 414.371 346.162 414.937C346.4 415.491 346.626 416.023 346.841 416.532C347.045 417.03 347.186 417.465 347.265 417.839C347.344 418.212 347.305 418.478 347.146 418.636ZM342.513 411.492C342.581 410.926 342.57 410.304 342.479 409.625C342.4 408.935 342.276 408.245 342.106 407.554C341.925 406.853 341.727 406.191 341.512 405.569C341.297 404.947 341.077 404.409 340.85 403.957C340.624 403.504 340.426 403.193 340.256 403.023C340.166 402.933 340.098 402.91 340.053 402.955C339.973 403.035 339.968 403.357 340.036 403.923C340.104 404.466 340.239 405.156 340.443 405.993C340.647 406.83 340.924 407.73 341.275 408.691C341.625 409.653 342.038 410.587 342.513 411.492ZM357.084 409.004C356.733 409.355 356.32 409.53 355.845 409.53C355.37 409.553 354.895 409.326 354.42 408.851C354.012 408.444 353.667 407.918 353.384 407.273C353.09 406.617 352.875 405.904 352.74 405.135C352.593 404.354 352.53 403.579 352.553 402.81C352.576 402.018 352.694 401.288 352.909 400.62C353.136 399.942 353.469 399.382 353.911 398.94C354.352 398.499 354.838 398.25 355.37 398.194C355.89 398.126 356.343 398.284 356.728 398.669C357.011 398.952 357.124 399.223 357.067 399.483C357.022 399.732 356.875 399.981 356.626 400.23C356.479 399.97 356.309 399.744 356.117 399.551C355.857 399.291 355.574 399.133 355.268 399.076C354.951 399.008 354.64 399.127 354.335 399.433C354.018 399.749 353.809 400.185 353.707 400.739C353.594 401.282 353.571 401.893 353.639 402.572C353.696 403.24 353.82 403.907 354.012 404.575C354.205 405.242 354.442 405.853 354.725 406.407C355.008 406.962 355.313 407.403 355.642 407.731C356.083 408.172 356.456 408.24 356.762 407.935C357.022 407.675 357.186 407.273 357.254 406.73C357.31 406.176 357.31 405.553 357.254 404.863C357.197 404.15 357.112 403.443 356.999 402.742C356.886 402.04 356.773 401.407 356.66 400.841C356.637 400.728 356.632 400.666 356.643 400.654C356.756 400.564 356.937 400.473 357.186 400.383C357.423 400.281 357.605 400.292 357.729 400.417C357.831 400.519 357.921 400.711 358 400.994C358.068 401.265 358.153 401.577 358.255 401.927C358.357 402.278 358.476 402.623 358.611 402.962C358.736 403.291 358.9 403.556 359.104 403.76C359.273 403.93 359.488 404.054 359.748 404.133C359.997 404.201 360.224 404.133 360.427 403.93C360.733 403.624 360.914 403.002 360.97 402.063C361.016 401.113 360.846 399.936 360.461 398.533H360.801C361.174 399.382 361.406 400.225 361.496 401.062C361.587 401.899 361.547 402.663 361.378 403.353C361.219 404.032 360.936 404.575 360.529 404.982C360.11 405.401 359.675 405.587 359.222 405.542C358.781 405.485 358.413 405.31 358.119 405.016C357.972 404.869 357.825 404.688 357.678 404.473C357.848 405.615 357.893 406.555 357.814 407.29C357.746 408.014 357.503 408.585 357.084 409.004ZM370.381 394.79C369.985 395.186 369.584 395.384 369.176 395.384C368.78 395.373 368.424 395.209 368.107 394.892C367.87 394.655 367.66 394.366 367.479 394.027C367.31 393.676 367.129 393.325 366.936 392.974C366.733 392.612 366.501 392.301 366.24 392.041C365.924 391.724 365.641 391.577 365.392 391.6C365.143 391.6 364.922 391.696 364.73 391.888C364.379 392.239 364.17 392.743 364.102 393.399C364.023 394.044 364.04 394.762 364.153 395.554C364.255 396.335 364.396 397.11 364.577 397.879C364.758 398.648 364.922 399.333 365.07 399.932C364.888 400.113 364.685 400.249 364.459 400.34C364.232 400.453 364.012 400.492 363.797 400.458C363.74 400.402 363.627 400.164 363.457 399.746C363.276 399.338 363.05 398.841 362.778 398.252C362.507 397.664 362.207 397.081 361.879 396.504C361.551 395.927 361.2 395.452 360.827 395.079C360.816 394.932 360.844 394.745 360.912 394.519C360.98 394.293 361.093 394.1 361.251 393.942C361.557 393.636 361.856 393.631 362.151 393.925C362.332 394.106 362.586 394.462 362.914 394.994C363.231 395.514 363.542 396.086 363.848 396.708C363.689 395.939 363.57 395.141 363.491 394.315C363.412 393.467 363.435 392.675 363.559 391.939C363.684 391.204 363.961 390.621 364.391 390.191C364.832 389.75 365.307 389.592 365.816 389.716C366.337 389.829 366.789 390.078 367.174 390.463C367.525 390.814 367.796 391.198 367.988 391.617C368.169 392.024 368.339 392.431 368.498 392.839C368.656 393.223 368.877 393.557 369.159 393.84C369.397 394.078 369.612 394.202 369.804 394.213C369.997 394.202 370.166 394.123 370.313 393.976C370.596 393.693 370.749 393.28 370.772 392.737C370.783 392.183 370.715 391.572 370.568 390.904C370.432 390.225 370.257 389.575 370.042 388.952L370.449 388.986C370.924 390.163 371.19 391.266 371.247 392.296C371.303 393.325 371.015 394.157 370.381 394.79Z" fill="white"/>
<mask id="mask0_9_93" style="mask-type:alpha" maskUnits="userSpaceOnUse" x="251" y="370" width="323" height="323">
<mask id="path-9-inside-1_9_93" fill="white">
<path fill-rule="evenodd" clip-rule="evenodd" d="M402 638.057C364.97 665.152 312.678 661.99 279.211 628.569C242.693 592.103 242.251 533.253 277.885 496.244L277.872 496.231L398.347 375.924C405.74 368.542 417.726 368.542 425.119 375.924L545.594 496.231C582.559 533.145 582.559 592.993 545.594 629.906C511.273 664.179 457.153 666.63 420 637.26V684C420 688.971 415.971 693 411 693C406.029 693 402 688.971 402 684V638.057Z"/>
</mask>
<path fill-rule="evenodd" clip-rule="evenodd" d="M402 638.057C364.97 665.152 312.678 661.99 279.211 628.569C242.693 592.103 242.251 533.253 277.885 496.244L277.872 496.231L398.347 375.924C405.74 368.542 417.726 368.542 425.119 375.924L545.594 496.231C582.559 533.145 582.559 592.993 545.594 629.906C511.273 664.179 457.153 666.63 420 637.26V684C420 688.971 415.971 693 411 693C406.029 693 402 688.971 402 684V638.057Z" fill="#FFF066"/>
<path d="M279.211 628.569L279.917 627.862L279.211 628.569ZM402 638.057H403V636.086L401.41 637.25L402 638.057ZM277.885 496.244L278.606 496.938L279.287 496.231L278.592 495.537L277.885 496.244ZM277.872 496.231L277.166 495.524L276.457 496.231L277.165 496.939L277.872 496.231ZM398.347 375.924L399.054 376.632L398.347 375.924ZM425.119 375.924L424.412 376.632L425.119 375.924ZM545.594 496.231L544.887 496.939L545.594 496.231ZM545.594 629.906L546.3 630.614L545.594 629.906ZM420 637.26L420.62 636.475L419 635.195V637.26H420ZM278.504 629.277C312.325 663.051 365.169 666.246 402.591 638.864L401.41 637.25C364.771 664.058 313.03 660.928 279.917 627.862L278.504 629.277ZM277.165 495.551C241.154 532.951 241.6 592.424 278.504 629.277L279.917 627.862C243.786 591.781 243.349 533.554 278.606 496.938L277.165 495.551ZM277.165 496.939L277.179 496.952L278.592 495.537L278.579 495.524L277.165 496.939ZM397.64 375.217L277.166 495.524L278.579 496.939L399.054 376.632L397.64 375.217ZM425.826 375.217C418.042 367.444 405.424 367.444 397.64 375.217L399.054 376.632C406.056 369.639 417.41 369.639 424.412 376.632L425.826 375.217ZM546.3 495.524L425.826 375.217L424.412 376.632L544.887 496.939L546.3 495.524ZM546.3 630.614C583.656 593.31 583.656 532.828 546.3 495.524L544.887 496.939C581.461 533.462 581.461 592.676 544.887 629.198L546.3 630.614ZM419.38 638.044C456.926 667.726 511.617 665.249 546.3 630.614L544.887 629.198C510.929 663.109 457.38 665.535 420.62 636.475L419.38 638.044ZM419 637.26V684H421V637.26H419ZM419 684C419 688.418 415.418 692 411 692V694C416.523 694 421 689.523 421 684H419ZM411 692C406.582 692 403 688.418 403 684H401C401 689.523 405.477 694 411 694V692ZM403 684V638.057H401V684H403Z" fill="black" mask="url(#path-9-inside-1_9_93)"/>
</mask>
<g mask="url(#mask0_9_93)">
<path fill-rule="evenodd" clip-rule="evenodd" d="M214 337.607L227.04 323.78C241.084 309.953 268.168 282.299 295.252 301.657C321.332 318.249 348.416 381.853 375.5 381.853C402.584 381.853 429.668 318.249 456.752 315.484C482.832 309.953 509.916 362.496 523.96 390.15L537 417.804V498H523.96C509.916 498 482.832 498 456.752 498C429.668 498 402.584 498 375.5 498C348.416 498 321.332 498 295.252 498C268.168 498 241.084 498 227.04 498H214V337.607Z" fill="#E6CF00"/>
<path fill-rule="evenodd" clip-rule="evenodd" d="M230 556.6L246.714 531.04C264.714 502.639 299.429 448.679 334.143 428.799C367.571 411.759 402.286 428.799 437 457.199C471.714 482.759 506.429 519.679 541.143 533.88C574.571 548.08 609.286 539.56 627.286 533.88L644 531.04V585H627.286C609.286 585 574.571 585 541.143 585C506.429 585 471.714 585 437 585C402.286 585 367.571 585 334.143 585C299.429 585 264.714 585 246.714 585H230V556.6Z" fill="#FFE81A"/>
<path fill-rule="evenodd" clip-rule="evenodd" d="M138 587.26L156.571 590.808C176.571 594.356 215.143 599.678 253.714 587.26C290.857 576.616 329.429 548.232 368 521.622C406.571 496.786 445.143 473.724 483.714 464.854C520.857 455.984 559.429 461.306 579.429 464.854L598 466.628V605H579.429C559.429 605 520.857 605 483.714 605C445.143 605 406.571 605 368 605C329.429 605 290.857 605 253.714 605C215.143 605 176.571 605 156.571 605H138V587.26Z" fill="#FFF066"/>
<path fill-rule="evenodd" clip-rule="evenodd" d="M207 639L223.553 630.585C241.379 622.17 275.758 607.023 310.137 586.826C343.242 568.313 377.621 546.434 412 532.97C446.379 519.506 480.758 514.457 515.137 527.921C548.242 541.385 582.621 573.362 600.447 590.192L617 607.023V639H600.447C582.621 639 548.242 639 515.137 639C480.758 639 446.379 639 412 639C377.621 639 343.242 639 310.137 639C275.758 639 241.379 639 223.553 639H207Z" fill="#FFF599"/>
<path fill-rule="evenodd" clip-rule="evenodd" d="M251 562.5L264.363 580.5C278.755 598.5 306.509 634.5 333.236 639C360.991 641.25 388.745 612 416.5 587.25C444.255 562.5 472.009 540 498.736 540C526.491 540 554.245 562.5 567.609 573.75L582 585V693H567.609C554.245 693 526.491 693 498.736 693C472.009 693 444.255 693 416.5 693C388.745 693 360.991 693 333.236 693C306.509 693 278.755 693 264.363 693H251V562.5Z" fill="#FFFACC"/>
</g>
</svg>
