<svg width="822" height="1122" viewBox="0 0 822 1122" fill="none" xmlns="http://www.w3.org/2000/svg">
<path d="M0 20C0 8.9543 8.95431 0 20 0H802C813.046 0 822 8.9543 822 20V1102C822 1113.05 813.046 1122 802 1122H20C8.95432 1122 0 1113.05 0 1102V20Z" fill="#1A0033"/>
<g clip-path="url(#clip0_41_1098)">
<path fill-rule="evenodd" clip-rule="evenodd" d="M937.31 210.272H912.62C887.93 210.272 838.55 210.272 789.169 189.572C739.789 170.253 689.175 130.234 639.795 124.714C590.415 120.574 541.035 150.933 491.655 185.432C442.275 219.931 392.895 259.95 343.515 235.111C294.135 210.272 243.52 120.574 194.14 84.6951C144.76 50.196 95.3801 70.8954 70.6901 80.5552L46.0001 90.2149V299.969H70.6901C95.3801 299.969 144.76 299.969 194.14 299.969C243.52 299.969 294.135 299.969 343.515 299.969C392.895 299.969 442.275 299.969 491.655 299.969C541.035 299.969 590.415 299.969 639.795 299.969C689.175 299.969 739.789 299.969 789.169 299.969C838.55 299.969 887.93 299.969 912.62 299.969H937.31V210.272Z" fill="#26004D"/>
<path fill-rule="evenodd" clip-rule="evenodd" d="M46 237.181L76 224.235C106 209.439 166 183.547 227 190.945C287 196.493 347 237.181 407 270.472C467 303.762 527 331.504 588 290.816C648 250.128 708 142.859 738 89.2245L768 35.5901V357.396H738C708 357.396 648 357.396 588 357.396C527 357.396 467 357.396 407 357.396C347 357.396 287 357.396 227 357.396C166 357.396 106 357.396 76 357.396H46V237.181Z" fill="#330066"/>
<path fill-rule="evenodd" clip-rule="evenodd" d="M46 339.995H76C106 339.995 166 339.995 227 292.452C287 244.909 344.38 189.33 404.38 197.253C464.38 207.818 527 281.887 588 310.941C648 339.995 708 281.887 738 252.833L768 226.42V511.677H738C708 511.677 648 511.677 588 511.677C527 511.677 467 511.677 407 511.677C347 511.677 287 511.677 227 511.677C166 511.677 106 511.677 76 511.677H46V339.995Z" fill="#4D0099"/>
<path fill-rule="evenodd" clip-rule="evenodd" d="M-331 279L-300.557 331.922C-270.114 383.24 -209.227 487.479 -148.341 516.346C-87.4543 545.212 -25.0457 498.705 35.8407 487.479C96.7271 476.253 157.614 498.705 218.5 487.479C279.386 476.253 340.273 429.747 401.159 389.654C462.046 347.959 524.454 314.281 585.341 331.922C646.227 347.959 707.114 418.521 737.557 453.802L768 487.479V627H737.557C707.114 627 646.227 627 585.341 627C524.454 627 462.046 627 401.159 627C340.273 627 279.386 627 218.5 627C157.614 627 96.7271 627 35.8407 627C-25.0457 627 -87.4543 627 -148.341 627C-209.227 627 -270.114 627 -300.557 627H-331V279Z" fill="#6600CC"/>
<path fill-rule="evenodd" clip-rule="evenodd" d="M-208.168 527.74L-152.038 555.003C-95.9077 582.267 16.3531 636.793 130.218 615.945C242.478 595.096 354.739 500.477 467 494.062C579.261 487.647 691.522 569.437 805.386 567.833C917.647 569.437 1029.91 487.647 1086.04 447.554L1142.17 405.857V771.506H1086.04C1029.91 771.506 917.647 771.506 805.386 771.506C691.522 771.506 579.261 771.506 467 771.506C354.739 771.506 242.478 771.506 130.218 771.506C16.3531 771.506 -95.9077 771.506 -152.038 771.506H-208.168V527.74Z" fill="#9933FF"/>
<path fill-rule="evenodd" clip-rule="evenodd" d="M46 697.805L81 693.805C116 688.805 186 680.805 257 667.805C327 655.805 397 638.805 467 659.805C537 680.805 607 739.805 678 756.805C748 773.805 818 748.805 853 735.805L888 722.805V874.805H853C818 874.805 748 874.805 678 874.805C607 874.805 537 874.805 467 874.805C397 874.805 327 874.805 257 874.805C186 874.805 116 874.805 81 874.805H46V697.805Z" fill="#B366FF"/>
<path fill-rule="evenodd" clip-rule="evenodd" d="M46 810.65L81 817.831C116 825.013 186 841.171 257 848.352C327 855.534 397 855.534 467 841.171C537 825.013 607 794.492 678 787.31C748 780.129 818 794.492 853 803.469L888 810.65V991.981H853C818 991.981 748 991.981 678 991.981C607 991.981 537 991.981 467 991.981C397 991.981 327 991.981 257 991.981C186 991.981 116 991.981 81 991.981H46V810.65Z" fill="#CC99FF"/>
<path fill-rule="evenodd" clip-rule="evenodd" d="M-14 947.73H14C42 947.73 98 947.73 154 941.285C211 934.84 267 920.338 323 901.003C379 880.057 435 852.665 491 880.057C547 907.448 604 988.011 660 988.011C716 988.011 772 907.448 800 867.167L828 825.274V1070.19H800C772 1070.19 716 1070.19 660 1070.19C604 1070.19 547 1070.19 491 1070.19C435 1070.19 379 1070.19 323 1070.19C267 1070.19 211 1070.19 154 1070.19C98 1070.19 42 1070.19 14 1070.19H-14V947.73Z" fill="#F2E6FF"/>
</g>
<defs>
<clipPath id="clip0_41_1098">
<rect width="722" height="1022" fill="white" transform="translate(46 48)"/>
</clipPath>
</defs>
</svg>
