<svg width="365" height="351" viewBox="0 0 365 351" fill="none" xmlns="http://www.w3.org/2000/svg">
<path d="M265.126 129.485V139.29L274.929 139.483C319.262 140.356 355 176.723 355 221.533C355 266.893 318.381 303.598 273.291 303.598C232.143 303.598 198.039 273.025 192.401 233.201H172.599C166.961 273.025 132.857 303.598 91.7085 303.598C46.6187 303.598 10 266.893 10 221.533C10 176.173 46.6187 139.467 91.7085 139.467H101.709V129.467C101.709 84.1069 138.327 47.4016 183.417 47.4016C228.507 47.4016 265.126 84.1069 265.126 129.467V129.467V129.468V129.468V129.468V129.468V129.469V129.469V129.469V129.469V129.47V129.47V129.47V129.47V129.471V129.471V129.471V129.471V129.472V129.472V129.472V129.472V129.473V129.473V129.473V129.473V129.474V129.474V129.474V129.474V129.475V129.475V129.475V129.475V129.476V129.476V129.476V129.476V129.477V129.477V129.477V129.477V129.478V129.478V129.478V129.478V129.478V129.479V129.479V129.479V129.479V129.48V129.48V129.48V129.48V129.481V129.481V129.481V129.481V129.482V129.482V129.482V129.482V129.483V129.483V129.483V129.483V129.484V129.484V129.484V129.484V129.485V129.485V129.485Z" stroke="#FFF066" stroke-width="20"/>
<path d="M172 245C172 239.477 176.477 235 182 235C187.523 235 192 239.477 192 245V341C192 346.523 187.523 351 182 351C176.477 351 172 346.523 172 341V245Z" fill="#FFF066"/>
</svg>
