<svg width="822" height="1122" viewBox="0 0 822 1122" fill="none" xmlns="http://www.w3.org/2000/svg">
<path d="M0 20C0 8.9543 8.95431 0 20 0H802C813.046 0 822 8.9543 822 20V1102C822 1113.05 813.046 1122 802 1122H20C8.95432 1122 0 1113.05 0 1102V20Z" fill="#1A0033"/>
<path d="M121.008 160.92C110.597 160.92 102.448 158.744 96.5595 154.392C90.6715 150.04 87.7275 143.939 87.7275 136.088C87.7275 130.456 89.2635 125.677 92.3355 121.752C95.4928 117.741 99.6742 115.053 104.88 113.688C95.2368 110.189 90.4155 103.619 90.4155 93.976C90.4155 86.296 93.0182 80.408 98.2235 76.312C103.514 72.1307 111.109 70.04 121.008 70.04C130.906 70.04 138.458 72.1307 143.664 76.312C148.954 80.408 151.6 86.296 151.6 93.976C151.6 103.619 146.778 110.189 137.136 113.688C142.341 115.053 146.48 117.741 149.552 121.752C152.709 125.677 154.288 130.456 154.288 136.088C154.288 143.939 151.344 150.04 145.456 154.392C139.568 158.744 131.418 160.92 121.008 160.92ZM121.008 110.744C128.858 110.744 134.789 109.464 138.8 106.904C142.896 104.344 144.944 100.035 144.944 93.976C144.944 87.576 142.981 82.968 139.056 80.152C135.13 77.336 129.114 75.928 121.008 75.928C112.901 75.928 106.885 77.336 102.96 80.152C99.0342 82.968 97.0715 87.576 97.0715 93.976C97.0715 100.035 99.0768 104.344 103.088 106.904C107.184 109.464 113.157 110.744 121.008 110.744ZM121.008 155.032C129.968 155.032 136.624 153.496 140.976 150.424C145.413 147.267 147.632 142.488 147.632 136.088C147.632 123.203 138.757 116.76 121.008 116.76C103.258 116.76 94.3835 123.203 94.3835 136.088C94.3835 142.488 96.5595 147.267 100.912 150.424C105.349 153.496 112.048 155.032 121.008 155.032Z" fill="#FFF066"/>
<path d="M121.202 281.503C131.382 291.683 147.887 291.683 158.067 281.503C168.247 271.323 168.247 254.818 158.067 244.638L124.888 211.459C122.852 209.423 119.551 209.423 117.515 211.459L84.3364 244.638L84.34 244.641C74.5265 254.848 74.6481 271.077 84.7051 281.134C94.762 291.191 110.992 291.313 121.198 281.499L121.202 281.503Z" fill="#FFF066"/>
<rect x="118.5" y="266" width="5" height="33" rx="2.5" fill="#FFF066"/>
<path d="M692.992 957.08C703.403 957.08 711.552 959.256 717.44 963.608C723.328 967.96 726.272 974.061 726.272 981.912C726.272 987.544 724.736 992.323 721.664 996.248C718.507 1000.26 714.326 1002.95 709.12 1004.31C718.763 1007.81 723.584 1014.38 723.584 1024.02C723.584 1031.7 720.982 1037.59 715.776 1041.69C710.486 1045.87 702.891 1047.96 692.992 1047.96C683.094 1047.96 675.542 1045.87 670.336 1041.69C665.046 1037.59 662.4 1031.7 662.4 1024.02C662.4 1014.38 667.222 1007.81 676.864 1004.31C671.659 1002.95 667.52 1000.26 664.448 996.248C661.291 992.323 659.712 987.544 659.712 981.912C659.712 974.061 662.656 967.96 668.544 963.608C674.432 959.256 682.582 957.08 692.992 957.08ZM692.992 1007.26C685.142 1007.26 679.211 1008.54 675.2 1011.1C671.104 1013.66 669.056 1017.97 669.056 1024.02C669.056 1030.42 671.019 1035.03 674.944 1037.85C678.87 1040.66 684.886 1042.07 692.992 1042.07C701.099 1042.07 707.115 1040.66 711.04 1037.85C714.966 1035.03 716.928 1030.42 716.928 1024.02C716.928 1017.97 714.923 1013.66 710.912 1011.1C706.816 1008.54 700.843 1007.26 692.992 1007.26ZM692.992 962.968C684.032 962.968 677.376 964.504 673.024 967.576C668.587 970.733 666.368 975.512 666.368 981.912C666.368 994.797 675.243 1001.24 692.992 1001.24C710.742 1001.24 719.616 994.797 719.616 981.912C719.616 975.512 717.44 970.733 713.088 967.576C708.651 964.504 701.952 962.968 692.992 962.968Z" fill="#FFF066"/>
<path d="M692.798 836.497C682.618 826.317 666.113 826.317 655.933 836.497C645.753 846.677 645.753 863.182 655.933 873.362L689.112 906.541C691.148 908.577 694.449 908.577 696.485 906.541L729.664 873.362L729.66 873.359C739.474 863.152 739.352 846.923 729.295 836.866C719.238 826.809 703.008 826.687 692.802 836.501L692.798 836.497Z" fill="#FFF066"/>
<rect x="695.5" y="852" width="5" height="33" rx="2.5" transform="rotate(-180 695.5 852)" fill="#FFF066"/>
<path d="M377.876 546.255L410.844 513.287C411.318 512.813 412.086 512.813 412.56 513.287L445.739 546.466C454.357 555.084 454.357 569.057 445.739 577.675C437.121 586.293 423.148 586.293 414.53 577.675L414.527 577.671L411.753 574.898L408.926 577.616C400.287 585.923 386.547 585.819 378.034 577.306C369.52 568.793 369.417 555.053 377.723 546.414L377.876 546.255Z" stroke="#FFF066" stroke-width="8"/>
<rect x="409" y="565" width="5" height="33" rx="2.5" fill="#FFF066"/>
<path d="M293.876 708.255L326.844 675.287C327.318 674.813 328.086 674.813 328.56 675.287L361.739 708.466C370.357 717.084 370.357 731.057 361.739 739.675C353.121 748.293 339.148 748.293 330.53 739.675L330.527 739.671L327.753 736.898L324.926 739.616C316.287 747.923 302.547 747.819 294.034 739.306C285.52 730.793 285.417 717.053 293.723 708.414L293.876 708.255Z" stroke="#FFF066" stroke-width="8"/>
<rect x="325" y="727" width="5" height="33" rx="2.5" fill="#FFF066"/>
<path d="M460.876 708.255L493.844 675.287C494.318 674.813 495.086 674.813 495.56 675.287L528.739 708.466C537.357 717.084 537.357 731.057 528.739 739.675C520.121 748.293 506.148 748.293 497.53 739.675L497.527 739.671L494.753 736.898L491.926 739.616C483.287 747.923 469.547 747.819 461.034 739.306C452.52 730.793 452.417 717.053 460.723 708.414L460.876 708.255Z" stroke="#FFF066" stroke-width="8"/>
<rect x="492" y="727" width="5" height="33" rx="2.5" fill="#FFF066"/>
<path d="M545.876 546.255L578.844 513.287C579.318 512.813 580.086 512.813 580.56 513.287L613.739 546.466C622.357 555.084 622.357 569.057 613.739 577.675C605.121 586.293 591.148 586.293 582.53 577.675L582.527 577.671L579.753 574.898L576.926 577.616C568.287 585.923 554.547 585.819 546.034 577.306C537.52 568.793 537.417 555.053 545.723 546.414L545.876 546.255Z" stroke="#FFF066" stroke-width="8"/>
<rect x="577" y="565" width="5" height="33" rx="2.5" fill="#FFF066"/>
<path d="M209.876 546.255L242.844 513.287C243.318 512.813 244.086 512.813 244.56 513.287L277.739 546.466C286.357 555.084 286.357 569.057 277.739 577.675C269.121 586.293 255.148 586.293 246.53 577.675L246.527 577.671L243.753 574.898L240.926 577.616C232.287 585.923 218.547 585.819 210.034 577.306C201.52 568.793 201.417 555.053 209.723 546.414L209.876 546.255Z" stroke="#FFF066" stroke-width="8"/>
<rect x="241" y="565" width="5" height="33" rx="2.5" fill="#FFF066"/>
<path d="M545.876 384.255L578.844 351.287C579.318 350.813 580.086 350.813 580.56 351.287L613.739 384.466C622.357 393.084 622.357 407.057 613.739 415.675C605.121 424.293 591.148 424.293 582.53 415.675L582.527 415.671L579.753 412.898L576.926 415.616C568.287 423.923 554.547 423.819 546.034 415.306C537.52 406.793 537.417 393.053 545.723 384.414L545.876 384.255Z" stroke="#FFF066" stroke-width="8"/>
<rect x="577" y="403" width="5" height="33" rx="2.5" fill="#FFF066"/>
<path d="M209.876 384.255L242.844 351.287C243.318 350.813 244.086 350.813 244.56 351.287L277.739 384.466C286.357 393.084 286.357 407.057 277.739 415.675C269.121 424.293 255.148 424.293 246.53 415.675L246.527 415.671L243.753 412.898L240.926 415.616C232.287 423.923 218.547 423.819 210.034 415.306C201.52 406.793 201.417 393.053 209.723 384.414L209.876 384.255Z" stroke="#FFF066" stroke-width="8"/>
<rect x="241" y="403" width="5" height="33" rx="2.5" fill="#FFF066"/>
<path d="M377.876 384.255L410.844 351.287C411.318 350.813 412.086 350.813 412.56 351.287L445.739 384.466C454.357 393.084 454.357 407.057 445.739 415.675C437.121 424.293 423.148 424.293 414.53 415.675L414.527 415.671L411.753 412.898L408.926 415.616C400.287 423.923 386.547 423.819 378.034 415.306C369.52 406.793 369.417 393.053 377.723 384.414L377.876 384.255Z" stroke="#FFF066" stroke-width="8"/>
<rect x="409" y="403" width="5" height="33" rx="2.5" fill="#FFF066"/>
</svg>
