<svg width="822" height="1122" viewBox="0 0 822 1122" fill="none" xmlns="http://www.w3.org/2000/svg">
<path d="M0 20C0 8.9543 8.95431 0 20 0H802C813.046 0 822 8.9543 822 20V1102C822 1113.05 813.046 1122 802 1122H20C8.95432 1122 0 1113.05 0 1102V20Z" fill="#1A0033"/>
<path d="M121.008 160.92C110.597 160.92 102.448 158.744 96.5595 154.392C90.6715 150.04 87.7275 143.939 87.7275 136.088C87.7275 130.456 89.2635 125.677 92.3355 121.752C95.4928 117.741 99.6742 115.053 104.88 113.688C95.2368 110.189 90.4155 103.619 90.4155 93.976C90.4155 86.296 93.0182 80.408 98.2235 76.312C103.514 72.1307 111.109 70.04 121.008 70.04C130.906 70.04 138.458 72.1307 143.664 76.312C148.954 80.408 151.6 86.296 151.6 93.976C151.6 103.619 146.778 110.189 137.136 113.688C142.341 115.053 146.48 117.741 149.552 121.752C152.709 125.677 154.288 130.456 154.288 136.088C154.288 143.939 151.344 150.04 145.456 154.392C139.568 158.744 131.418 160.92 121.008 160.92ZM121.008 110.744C128.858 110.744 134.789 109.464 138.8 106.904C142.896 104.344 144.944 100.035 144.944 93.976C144.944 87.576 142.981 82.968 139.056 80.152C135.13 77.336 129.114 75.928 121.008 75.928C112.901 75.928 106.885 77.336 102.96 80.152C99.0342 82.968 97.0715 87.576 97.0715 93.976C97.0715 100.035 99.0768 104.344 103.088 106.904C107.184 109.464 113.157 110.744 121.008 110.744ZM121.008 155.032C129.968 155.032 136.624 153.496 140.976 150.424C145.413 147.267 147.632 142.488 147.632 136.088C147.632 123.203 138.757 116.76 121.008 116.76C103.258 116.76 94.3835 123.203 94.3835 136.088C94.3835 142.488 96.5595 147.267 100.912 150.424C105.349 153.496 112.048 155.032 121.008 155.032Z" fill="#FFF066"/>
<path d="M141.309 231.337C141.309 231.336 141.309 231.335 141.309 231.333C141.309 219.551 132.085 210 120.706 210C109.327 210 100.103 219.551 100.103 231.333C88.7243 231.333 79.5 240.885 79.5 252.667C79.5 264.449 88.7243 274 100.103 274C110.489 274 119.08 266.043 120.5 255.695C121.92 266.043 130.511 274 140.897 274C152.276 274 161.5 264.449 161.5 252.667C161.5 241.027 152.498 231.565 141.309 231.337Z" fill="#FFF066"/>
<rect x="118.5" y="251" width="5" height="33" rx="2.5" fill="#FFF066"/>
<path d="M692.992 957.08C703.403 957.08 711.552 959.256 717.44 963.608C723.328 967.96 726.272 974.061 726.272 981.912C726.272 987.544 724.736 992.323 721.664 996.248C718.507 1000.26 714.326 1002.95 709.12 1004.31C718.763 1007.81 723.584 1014.38 723.584 1024.02C723.584 1031.7 720.982 1037.59 715.776 1041.69C710.486 1045.87 702.891 1047.96 692.992 1047.96C683.094 1047.96 675.542 1045.87 670.336 1041.69C665.046 1037.59 662.4 1031.7 662.4 1024.02C662.4 1014.38 667.222 1007.81 676.864 1004.31C671.659 1002.95 667.52 1000.26 664.448 996.248C661.291 992.323 659.712 987.544 659.712 981.912C659.712 974.061 662.656 967.96 668.544 963.608C674.432 959.256 682.582 957.08 692.992 957.08ZM692.992 1007.26C685.142 1007.26 679.211 1008.54 675.2 1011.1C671.104 1013.66 669.056 1017.97 669.056 1024.02C669.056 1030.42 671.019 1035.03 674.944 1037.85C678.87 1040.66 684.886 1042.07 692.992 1042.07C701.099 1042.07 707.115 1040.66 711.04 1037.85C714.966 1035.03 716.928 1030.42 716.928 1024.02C716.928 1017.97 714.923 1013.66 710.912 1011.1C706.816 1008.54 700.843 1007.26 692.992 1007.26ZM692.992 962.968C684.032 962.968 677.376 964.504 673.024 967.576C668.587 970.733 666.368 975.512 666.368 981.912C666.368 994.797 675.243 1001.24 692.992 1001.24C710.742 1001.24 719.616 994.797 719.616 981.912C719.616 975.512 717.44 970.733 713.088 967.576C708.651 964.504 701.952 962.968 692.992 962.968Z" fill="#FFF066"/>
<path d="M672.691 886.663C672.691 886.664 672.691 886.665 672.691 886.667C672.691 898.449 681.915 908 693.294 908C704.673 908 713.897 898.449 713.897 886.667C725.276 886.667 734.5 877.115 734.5 865.333C734.5 853.551 725.276 844 713.897 844C703.511 844 694.92 851.957 693.5 862.305C692.08 851.957 683.489 844 673.103 844C661.724 844 652.5 853.551 652.5 865.333C652.5 876.973 661.502 886.435 672.691 886.663Z" fill="#FFF066"/>
<rect x="695.5" y="867" width="5" height="33" rx="2.5" transform="rotate(-180 695.5 867)" fill="#FFF066"/>
<path d="M435.668 546.317V550.236L439.586 550.317C452.372 550.581 463 561.65 463 575.689C463 589.902 452.111 601.066 439.111 601.066C427.238 601.066 417.144 591.777 415.464 579.324H407.536C405.856 591.777 395.762 601.066 383.889 601.066C370.889 601.066 360 589.902 360 575.689C360 561.475 370.889 550.312 383.889 550.312H387.889V546.312C387.889 532.098 398.778 520.935 411.779 520.935C424.779 520.935 435.668 532.098 435.668 546.312V546.312V546.312V546.312V546.312V546.312V546.312V546.312V546.312V546.312V546.312V546.312V546.312V546.313V546.313V546.313V546.313V546.313V546.313V546.313V546.313V546.313V546.313V546.313V546.313V546.313V546.313V546.313V546.314V546.314V546.314V546.314V546.314V546.314V546.314V546.314V546.314V546.314V546.314V546.314V546.314V546.314V546.314V546.315V546.315V546.315V546.315V546.315V546.315V546.315V546.315V546.315V546.315V546.315V546.315V546.315V546.315V546.315V546.316V546.316V546.316V546.316V546.316V546.316V546.316V546.316V546.316V546.316V546.316V546.316V546.316V546.316V546.316V546.317V546.317V546.317V546.317V546.317V546.317V546.317V546.317V546.317V546.317V546.317V546.317V546.317Z" stroke="#FFF066" stroke-width="8"/>
<path d="M408.307 583.026C408.307 581.347 409.668 579.985 411.348 579.985C413.028 579.985 414.389 581.347 414.389 583.026V613.959C414.389 615.638 413.028 617 411.348 617C409.668 617 408.307 615.638 408.307 613.959V583.026Z" fill="#FFF066"/>
<path d="M351.668 708.317V712.236L355.586 712.317C368.372 712.581 379 723.65 379 737.689C379 751.902 368.111 763.066 355.111 763.066C343.238 763.066 333.144 753.777 331.464 741.324H323.536C321.856 753.777 311.762 763.066 299.889 763.066C286.889 763.066 276 751.902 276 737.689C276 723.475 286.889 712.312 299.889 712.312H303.889V708.312C303.889 694.098 314.778 682.935 327.779 682.935C340.779 682.935 351.668 694.098 351.668 708.312V708.312V708.312V708.312V708.312V708.312V708.312V708.312V708.312V708.312V708.312V708.312V708.312V708.313V708.313V708.313V708.313V708.313V708.313V708.313V708.313V708.313V708.313V708.313V708.313V708.313V708.313V708.313V708.314V708.314V708.314V708.314V708.314V708.314V708.314V708.314V708.314V708.314V708.314V708.314V708.314V708.314V708.314V708.315V708.315V708.315V708.315V708.315V708.315V708.315V708.315V708.315V708.315V708.315V708.315V708.315V708.315V708.315V708.316V708.316V708.316V708.316V708.316V708.316V708.316V708.316V708.316V708.316V708.316V708.316V708.316V708.316V708.316V708.317V708.317V708.317V708.317V708.317V708.317V708.317V708.317V708.317V708.317V708.317V708.317V708.317Z" stroke="#FFF066" stroke-width="8"/>
<path d="M324.307 745.026C324.307 743.347 325.668 741.985 327.348 741.985C329.028 741.985 330.389 743.347 330.389 745.026V775.959C330.389 777.638 329.028 779 327.348 779C325.668 779 324.307 777.638 324.307 775.959V745.026Z" fill="#FFF066"/>
<path d="M518.668 708.317V712.236L522.586 712.317C535.372 712.581 546 723.65 546 737.689C546 751.902 535.111 763.066 522.111 763.066C510.238 763.066 500.144 753.777 498.464 741.324H490.536C488.856 753.777 478.762 763.066 466.889 763.066C453.889 763.066 443 751.902 443 737.689C443 723.475 453.889 712.312 466.889 712.312H470.889V708.312C470.889 694.098 481.778 682.935 494.779 682.935C507.779 682.935 518.668 694.098 518.668 708.312V708.312V708.312V708.312V708.312V708.312V708.312V708.312V708.312V708.312V708.312V708.312V708.312V708.313V708.313V708.313V708.313V708.313V708.313V708.313V708.313V708.313V708.313V708.313V708.313V708.313V708.313V708.313V708.314V708.314V708.314V708.314V708.314V708.314V708.314V708.314V708.314V708.314V708.314V708.314V708.314V708.314V708.314V708.315V708.315V708.315V708.315V708.315V708.315V708.315V708.315V708.315V708.315V708.315V708.315V708.315V708.315V708.315V708.316V708.316V708.316V708.316V708.316V708.316V708.316V708.316V708.316V708.316V708.316V708.316V708.316V708.316V708.316V708.317V708.317V708.317V708.317V708.317V708.317V708.317V708.317V708.317V708.317V708.317V708.317V708.317Z" stroke="#FFF066" stroke-width="8"/>
<path d="M491.307 745.026C491.307 743.347 492.668 741.985 494.348 741.985C496.028 741.985 497.389 743.347 497.389 745.026V775.959C497.389 777.638 496.028 779 494.348 779C492.668 779 491.307 777.638 491.307 775.959V745.026Z" fill="#FFF066"/>
<path d="M603.668 546.317V550.236L607.586 550.317C620.372 550.581 631 561.65 631 575.689C631 589.902 620.111 601.066 607.111 601.066C595.238 601.066 585.144 591.777 583.464 579.324H575.536C573.856 591.777 563.762 601.066 551.889 601.066C538.889 601.066 528 589.902 528 575.689C528 561.475 538.889 550.312 551.889 550.312H555.889V546.312C555.889 532.098 566.778 520.935 579.779 520.935C592.779 520.935 603.668 532.098 603.668 546.312V546.312V546.312V546.312V546.312V546.312V546.312V546.312V546.312V546.312V546.312V546.312V546.312V546.313V546.313V546.313V546.313V546.313V546.313V546.313V546.313V546.313V546.313V546.313V546.313V546.313V546.313V546.313V546.314V546.314V546.314V546.314V546.314V546.314V546.314V546.314V546.314V546.314V546.314V546.314V546.314V546.314V546.314V546.315V546.315V546.315V546.315V546.315V546.315V546.315V546.315V546.315V546.315V546.315V546.315V546.315V546.315V546.315V546.316V546.316V546.316V546.316V546.316V546.316V546.316V546.316V546.316V546.316V546.316V546.316V546.316V546.316V546.316V546.317V546.317V546.317V546.317V546.317V546.317V546.317V546.317V546.317V546.317V546.317V546.317V546.317Z" stroke="#FFF066" stroke-width="8"/>
<path d="M576.307 583.026C576.307 581.347 577.668 579.985 579.348 579.985C581.028 579.985 582.389 581.347 582.389 583.026V613.959C582.389 615.638 581.028 617 579.348 617C577.668 617 576.307 615.638 576.307 613.959V583.026Z" fill="#FFF066"/>
<path d="M267.668 546.317V550.236L271.586 550.317C284.372 550.581 295 561.65 295 575.689C295 589.902 284.111 601.066 271.111 601.066C259.238 601.066 249.144 591.777 247.464 579.324H239.536C237.856 591.777 227.762 601.066 215.889 601.066C202.889 601.066 192 589.902 192 575.689C192 561.475 202.889 550.312 215.889 550.312H219.889V546.312C219.889 532.098 230.778 520.935 243.779 520.935C256.779 520.935 267.668 532.098 267.668 546.312V546.312V546.312V546.312V546.312V546.312V546.312V546.312V546.312V546.312V546.312V546.312V546.312V546.313V546.313V546.313V546.313V546.313V546.313V546.313V546.313V546.313V546.313V546.313V546.313V546.313V546.313V546.313V546.314V546.314V546.314V546.314V546.314V546.314V546.314V546.314V546.314V546.314V546.314V546.314V546.314V546.314V546.314V546.315V546.315V546.315V546.315V546.315V546.315V546.315V546.315V546.315V546.315V546.315V546.315V546.315V546.315V546.315V546.316V546.316V546.316V546.316V546.316V546.316V546.316V546.316V546.316V546.316V546.316V546.316V546.316V546.316V546.316V546.317V546.317V546.317V546.317V546.317V546.317V546.317V546.317V546.317V546.317V546.317V546.317V546.317Z" stroke="#FFF066" stroke-width="8"/>
<path d="M240.307 583.026C240.307 581.347 241.668 579.985 243.348 579.985C245.028 579.985 246.389 581.347 246.389 583.026V613.959C246.389 615.638 245.028 617 243.348 617C241.668 617 240.307 615.638 240.307 613.959V583.026Z" fill="#FFF066"/>
<path d="M603.668 384.317V388.236L607.586 388.317C620.372 388.581 631 399.65 631 413.689C631 427.902 620.111 439.066 607.111 439.066C595.238 439.066 585.144 429.777 583.464 417.324H575.536C573.856 429.777 563.762 439.066 551.889 439.066C538.889 439.066 528 427.902 528 413.689C528 399.475 538.889 388.312 551.889 388.312H555.889V384.312C555.889 370.098 566.778 358.935 579.779 358.935C592.779 358.935 603.668 370.098 603.668 384.312V384.312V384.312V384.312V384.312V384.312V384.312V384.312V384.312V384.312V384.312V384.312V384.312V384.313V384.313V384.313V384.313V384.313V384.313V384.313V384.313V384.313V384.313V384.313V384.313V384.313V384.313V384.313V384.314V384.314V384.314V384.314V384.314V384.314V384.314V384.314V384.314V384.314V384.314V384.314V384.314V384.314V384.314V384.315V384.315V384.315V384.315V384.315V384.315V384.315V384.315V384.315V384.315V384.315V384.315V384.315V384.315V384.315V384.316V384.316V384.316V384.316V384.316V384.316V384.316V384.316V384.316V384.316V384.316V384.316V384.316V384.316V384.316V384.317V384.317V384.317V384.317V384.317V384.317V384.317V384.317V384.317V384.317V384.317V384.317V384.317Z" stroke="#FFF066" stroke-width="8"/>
<path d="M576.307 421.026C576.307 419.347 577.668 417.985 579.348 417.985C581.028 417.985 582.389 419.347 582.389 421.026V451.959C582.389 453.638 581.028 455 579.348 455C577.668 455 576.307 453.638 576.307 451.959V421.026Z" fill="#FFF066"/>
<path d="M267.668 384.317V388.236L271.586 388.317C284.372 388.581 295 399.65 295 413.689C295 427.902 284.111 439.066 271.111 439.066C259.238 439.066 249.144 429.777 247.464 417.324H239.536C237.856 429.777 227.762 439.066 215.889 439.066C202.889 439.066 192 427.902 192 413.689C192 399.475 202.889 388.312 215.889 388.312H219.889V384.312C219.889 370.098 230.778 358.935 243.779 358.935C256.779 358.935 267.668 370.098 267.668 384.312V384.312V384.312V384.312V384.312V384.312V384.312V384.312V384.312V384.312V384.312V384.312V384.312V384.313V384.313V384.313V384.313V384.313V384.313V384.313V384.313V384.313V384.313V384.313V384.313V384.313V384.313V384.313V384.314V384.314V384.314V384.314V384.314V384.314V384.314V384.314V384.314V384.314V384.314V384.314V384.314V384.314V384.314V384.315V384.315V384.315V384.315V384.315V384.315V384.315V384.315V384.315V384.315V384.315V384.315V384.315V384.315V384.315V384.316V384.316V384.316V384.316V384.316V384.316V384.316V384.316V384.316V384.316V384.316V384.316V384.316V384.316V384.316V384.317V384.317V384.317V384.317V384.317V384.317V384.317V384.317V384.317V384.317V384.317V384.317V384.317Z" stroke="#FFF066" stroke-width="8"/>
<path d="M240.307 421.026C240.307 419.347 241.668 417.985 243.348 417.985C245.028 417.985 246.389 419.347 246.389 421.026V451.959C246.389 453.638 245.028 455 243.348 455C241.668 455 240.307 453.638 240.307 451.959V421.026Z" fill="#FFF066"/>
<path d="M435.668 384.317V388.236L439.586 388.317C452.372 388.581 463 399.65 463 413.689C463 427.902 452.111 439.066 439.111 439.066C427.238 439.066 417.144 429.777 415.464 417.324H407.536C405.856 429.777 395.762 439.066 383.889 439.066C370.889 439.066 360 427.902 360 413.689C360 399.475 370.889 388.312 383.889 388.312H387.889V384.312C387.889 370.098 398.778 358.935 411.779 358.935C424.779 358.935 435.668 370.098 435.668 384.312V384.312V384.312V384.312V384.312V384.312V384.312V384.312V384.312V384.312V384.312V384.312V384.312V384.313V384.313V384.313V384.313V384.313V384.313V384.313V384.313V384.313V384.313V384.313V384.313V384.313V384.313V384.313V384.314V384.314V384.314V384.314V384.314V384.314V384.314V384.314V384.314V384.314V384.314V384.314V384.314V384.314V384.314V384.315V384.315V384.315V384.315V384.315V384.315V384.315V384.315V384.315V384.315V384.315V384.315V384.315V384.315V384.315V384.316V384.316V384.316V384.316V384.316V384.316V384.316V384.316V384.316V384.316V384.316V384.316V384.316V384.316V384.316V384.317V384.317V384.317V384.317V384.317V384.317V384.317V384.317V384.317V384.317V384.317V384.317V384.317Z" stroke="#FFF066" stroke-width="8"/>
<path d="M408.307 421.026C408.307 419.347 409.668 417.985 411.348 417.985C413.028 417.985 414.389 419.347 414.389 421.026V451.959C414.389 453.638 413.028 455 411.348 455C409.668 455 408.307 453.638 408.307 451.959V421.026Z" fill="#FFF066"/>
</svg>
