<svg width="822" height="1122" viewBox="0 0 822 1122" fill="none" xmlns="http://www.w3.org/2000/svg">
<path d="M0 20C0 8.9543 8.95431 0 20 0H802C813.046 0 822 8.9543 822 20V1102C822 1113.05 813.046 1122 802 1122H20C8.95432 1122 0 1113.05 0 1102V20Z" fill="#1A0033"/>
<path d="M121.008 160.92C110.597 160.92 102.448 158.744 96.5595 154.392C90.6715 150.04 87.7275 143.939 87.7275 136.088C87.7275 130.456 89.2635 125.677 92.3355 121.752C95.4928 117.741 99.6742 115.053 104.88 113.688C95.2368 110.189 90.4155 103.619 90.4155 93.976C90.4155 86.296 93.0182 80.408 98.2235 76.312C103.514 72.1307 111.109 70.04 121.008 70.04C130.906 70.04 138.458 72.1307 143.664 76.312C148.954 80.408 151.6 86.296 151.6 93.976C151.6 103.619 146.778 110.189 137.136 113.688C142.341 115.053 146.48 117.741 149.552 121.752C152.709 125.677 154.288 130.456 154.288 136.088C154.288 143.939 151.344 150.04 145.456 154.392C139.568 158.744 131.418 160.92 121.008 160.92ZM121.008 110.744C128.858 110.744 134.789 109.464 138.8 106.904C142.896 104.344 144.944 100.035 144.944 93.976C144.944 87.576 142.981 82.968 139.056 80.152C135.13 77.336 129.114 75.928 121.008 75.928C112.901 75.928 106.885 77.336 102.96 80.152C99.0342 82.968 97.0715 87.576 97.0715 93.976C97.0715 100.035 99.0768 104.344 103.088 106.904C107.184 109.464 113.157 110.744 121.008 110.744ZM121.008 155.032C129.968 155.032 136.624 153.496 140.976 150.424C145.413 147.267 147.632 142.488 147.632 136.088C147.632 123.203 138.757 116.76 121.008 116.76C103.258 116.76 94.3835 123.203 94.3835 136.088C94.3835 142.488 96.5595 147.267 100.912 150.424C105.349 153.496 112.048 155.032 121.008 155.032Z" fill="#B366FF"/>
<path d="M120.798 218.497C110.618 208.317 94.1128 208.317 83.9327 218.497C73.7526 228.677 73.7526 245.182 83.9327 255.362L117.112 288.541C119.148 290.577 122.449 290.577 124.485 288.541L157.664 255.362L157.66 255.359C167.474 245.152 167.352 228.923 157.295 218.866C147.238 208.809 131.008 208.687 120.802 218.501L120.798 218.497Z" fill="#B366FF"/>
<path d="M692.992 957.08C703.403 957.08 711.552 959.256 717.44 963.608C723.328 967.96 726.272 974.061 726.272 981.912C726.272 987.544 724.736 992.323 721.664 996.248C718.507 1000.26 714.326 1002.95 709.12 1004.31C718.763 1007.81 723.584 1014.38 723.584 1024.02C723.584 1031.7 720.982 1037.59 715.776 1041.69C710.486 1045.87 702.891 1047.96 692.992 1047.96C683.094 1047.96 675.542 1045.87 670.336 1041.69C665.046 1037.59 662.4 1031.7 662.4 1024.02C662.4 1014.38 667.222 1007.81 676.864 1004.31C671.659 1002.95 667.52 1000.26 664.448 996.248C661.291 992.323 659.712 987.544 659.712 981.912C659.712 974.061 662.656 967.96 668.544 963.608C674.432 959.256 682.582 957.08 692.992 957.08ZM692.992 1007.26C685.142 1007.26 679.211 1008.54 675.2 1011.1C671.104 1013.66 669.056 1017.97 669.056 1024.02C669.056 1030.42 671.019 1035.03 674.944 1037.85C678.87 1040.66 684.886 1042.07 692.992 1042.07C701.099 1042.07 707.115 1040.66 711.04 1037.85C714.966 1035.03 716.928 1030.42 716.928 1024.02C716.928 1017.97 714.923 1013.66 710.912 1011.1C706.816 1008.54 700.843 1007.26 692.992 1007.26ZM692.992 962.968C684.032 962.968 677.376 964.504 673.024 967.576C668.587 970.733 666.368 975.512 666.368 981.912C666.368 994.797 675.243 1001.24 692.992 1001.24C710.742 1001.24 719.616 994.797 719.616 981.912C719.616 975.512 717.44 970.733 713.088 967.576C708.651 964.504 701.952 962.968 692.992 962.968Z" fill="#B366FF"/>
<path d="M693.202 899.503C703.382 909.683 719.887 909.683 730.067 899.503C740.247 889.323 740.247 872.818 730.067 862.638L696.888 829.459C694.852 827.423 691.551 827.423 689.515 829.459L656.336 862.638L656.34 862.641C646.526 872.848 646.648 889.077 656.705 899.134C666.762 909.191 682.992 909.313 693.198 899.499L693.202 899.503Z" fill="#B366FF"/>
<path d="M445.124 576.745L412.156 609.713C411.682 610.187 410.914 610.187 410.44 609.713L377.261 576.534C368.643 567.916 368.643 553.943 377.261 545.325C385.879 536.707 399.852 536.707 408.47 545.325L408.473 545.329L411.247 548.102L414.074 545.384C422.713 537.077 436.453 537.181 444.966 545.694C453.48 554.207 453.583 567.947 445.277 576.586L445.124 576.745Z" stroke="#B366FF" stroke-width="8"/>
<path d="M361.124 738.745L328.156 771.713C327.682 772.187 326.914 772.187 326.44 771.713L293.261 738.534C284.643 729.916 284.643 715.943 293.261 707.325C301.879 698.707 315.852 698.707 324.47 707.325L324.473 707.329L327.247 710.102L330.074 707.384C338.713 699.077 352.453 699.181 360.966 707.694C369.48 716.207 369.583 729.947 361.277 738.586L361.124 738.745Z" stroke="#B366FF" stroke-width="8"/>
<path d="M528.124 738.745L495.156 771.713C494.682 772.187 493.914 772.187 493.44 771.713L460.261 738.534C451.643 729.916 451.643 715.943 460.261 707.325C468.879 698.707 482.852 698.707 491.47 707.325L491.473 707.329L494.247 710.102L497.074 707.384C505.713 699.077 519.453 699.181 527.966 707.694C536.48 716.207 536.583 729.947 528.277 738.586L528.124 738.745Z" stroke="#B366FF" stroke-width="8"/>
<path d="M613.124 576.745L580.156 609.713C579.682 610.187 578.914 610.187 578.44 609.713L545.261 576.534C536.643 567.916 536.643 553.943 545.261 545.325C553.879 536.707 567.852 536.707 576.47 545.325L576.473 545.329L579.247 548.102L582.074 545.384C590.713 537.077 604.453 537.181 612.966 545.694C621.48 554.207 621.583 567.947 613.277 576.586L613.124 576.745Z" stroke="#B366FF" stroke-width="8"/>
<path d="M277.124 576.745L244.156 609.713C243.682 610.187 242.914 610.187 242.44 609.713L209.261 576.534C200.643 567.916 200.643 553.943 209.261 545.325C217.879 536.707 231.852 536.707 240.47 545.325L240.473 545.329L243.247 548.102L246.074 545.384C254.713 537.077 268.453 537.181 276.966 545.694C285.48 554.207 285.583 567.947 277.277 576.586L277.124 576.745Z" stroke="#B366FF" stroke-width="8"/>
<path d="M613.124 414.745L580.156 447.713C579.682 448.187 578.914 448.187 578.44 447.713L545.261 414.534C536.643 405.916 536.643 391.943 545.261 383.325C553.879 374.707 567.852 374.707 576.47 383.325L576.473 383.329L579.247 386.102L582.074 383.384C590.713 375.077 604.453 375.181 612.966 383.694C621.48 392.207 621.583 405.947 613.277 414.586L613.124 414.745Z" stroke="#B366FF" stroke-width="8"/>
<path d="M277.124 414.745L244.156 447.713C243.682 448.187 242.914 448.187 242.44 447.713L209.261 414.534C200.643 405.916 200.643 391.943 209.261 383.325C217.879 374.707 231.852 374.707 240.47 383.325L240.473 383.329L243.247 386.102L246.074 383.384C254.713 375.077 268.453 375.181 276.966 383.694C285.48 392.207 285.583 405.947 277.277 414.586L277.124 414.745Z" stroke="#B366FF" stroke-width="8"/>
<path d="M445.124 414.745L412.156 447.713C411.682 448.187 410.914 448.187 410.44 447.713L377.261 414.534C368.643 405.916 368.643 391.943 377.261 383.325C385.879 374.707 399.852 374.707 408.47 383.325L408.473 383.329L411.247 386.102L414.074 383.384C422.713 375.077 436.453 375.181 444.966 383.694C453.48 392.207 453.583 405.947 445.277 414.586L445.124 414.745Z" stroke="#B366FF" stroke-width="8"/>
</svg>
