<svg width="822" height="1122" viewBox="0 0 822 1122" fill="none" xmlns="http://www.w3.org/2000/svg">
<path d="M0 20C0 8.9543 8.95431 0 20 0H802C813.046 0 822 8.9543 822 20V1102C822 1113.05 813.046 1122 802 1122H20C8.95432 1122 0 1113.05 0 1102V20Z" fill="#1A0033"/>
<path d="M118.084 160.92C112.537 160.92 107.204 160.365 102.084 159.256C96.964 158.147 93.124 156.696 90.564 154.904C90.052 154.563 89.7533 154.264 89.668 154.008C89.5827 153.752 89.668 153.368 89.924 152.856L91.588 150.04C91.844 149.528 92.1427 149.272 92.484 149.272C92.6547 149.272 92.9533 149.4 93.38 149.656C95.94 151.277 99.396 152.6 103.748 153.624C108.185 154.563 112.964 155.032 118.084 155.032C126.703 155.032 133.487 153.069 138.436 149.144C143.385 145.219 145.86 139.459 145.86 131.864C145.86 123.245 143.684 117.144 139.332 113.56C134.98 109.976 128.409 108.184 119.62 108.184C111.513 108.184 104.559 109.592 98.756 112.408C98.0733 112.749 97.348 112.92 96.58 112.92C95.3853 112.92 94.3613 112.493 93.508 111.64C92.74 110.787 92.3987 109.677 92.484 108.312L94.66 74.904C94.66 72.9413 95.6413 71.96 97.604 71.96H145.732C146.756 71.96 147.481 72.1733 147.908 72.6C148.42 72.9413 148.676 73.5813 148.676 74.52V75.416C148.676 77.2933 147.695 78.232 145.732 78.232H101.316L99.524 105.752C102.596 104.557 105.753 103.704 108.996 103.192C112.324 102.595 116.335 102.296 121.028 102.296C130.756 102.296 138.436 104.728 144.068 109.592C149.7 114.456 152.516 121.88 152.516 131.864C152.516 140.995 149.359 148.12 143.044 153.24C136.729 158.36 128.409 160.92 118.084 160.92Z" fill="#B366FF"/>
<path d="M120.798 218.497C110.618 208.317 94.1128 208.317 83.9327 218.497C73.7526 228.677 73.7526 245.182 83.9327 255.362L117.112 288.541C119.148 290.577 122.449 290.577 124.485 288.541L157.664 255.362L157.66 255.359C167.474 245.152 167.352 228.923 157.295 218.866C147.238 208.809 131.008 208.687 120.802 218.501L120.798 218.497Z" fill="#B366FF"/>
<path d="M695.916 957.08C701.463 957.08 706.796 957.635 711.916 958.744C717.036 959.853 720.876 961.304 723.436 963.096C723.948 963.437 724.247 963.736 724.332 963.992C724.417 964.248 724.332 964.632 724.076 965.144L722.412 967.96C722.156 968.472 721.857 968.728 721.516 968.728C721.345 968.728 721.047 968.6 720.62 968.344C718.06 966.723 714.604 965.4 710.252 964.376C705.815 963.437 701.036 962.968 695.916 962.968C687.297 962.968 680.513 964.931 675.564 968.856C670.615 972.781 668.14 978.541 668.14 986.136C668.14 994.755 670.316 1000.86 674.668 1004.44C679.02 1008.02 685.591 1009.82 694.38 1009.82C702.487 1009.82 709.441 1008.41 715.244 1005.59C715.927 1005.25 716.652 1005.08 717.42 1005.08C718.615 1005.08 719.639 1005.51 720.492 1006.36C721.26 1007.21 721.601 1008.32 721.516 1009.69L719.34 1043.1C719.34 1045.06 718.359 1046.04 716.396 1046.04H668.268C667.244 1046.04 666.519 1045.83 666.092 1045.4C665.58 1045.06 665.324 1044.42 665.324 1043.48V1042.58C665.324 1040.71 666.305 1039.77 668.268 1039.77H712.684L714.476 1012.25C711.404 1013.44 708.247 1014.3 705.004 1014.81C701.676 1015.41 697.665 1015.7 692.972 1015.7C683.244 1015.7 675.564 1013.27 669.932 1008.41C664.3 1003.54 661.484 996.12 661.484 986.136C661.484 977.005 664.641 969.88 670.956 964.76C677.271 959.64 685.591 957.08 695.916 957.08Z" fill="#B366FF"/>
<path d="M693.202 899.503C703.382 909.683 719.887 909.683 730.067 899.503C740.247 889.323 740.247 872.818 730.067 862.638L696.888 829.459C694.852 827.423 691.551 827.423 689.515 829.459L656.336 862.638L656.34 862.641C646.526 872.848 646.648 889.077 656.705 899.134C666.762 909.191 682.992 909.313 693.198 899.499L693.202 899.503Z" fill="#B366FF"/>
<path d="M525.124 657.745L492.156 690.713C491.682 691.187 490.914 691.187 490.44 690.713L457.261 657.534C448.643 648.916 448.643 634.943 457.261 626.325C465.879 617.707 479.852 617.707 488.47 626.325L488.473 626.329L491.247 629.102L494.074 626.384C502.713 618.077 516.453 618.181 524.966 626.694C533.48 635.207 533.583 648.947 525.277 657.586L525.124 657.745Z" stroke="#B366FF" stroke-width="8"/>
<path d="M357.124 657.745L324.156 690.713C323.682 691.187 322.914 691.187 322.44 690.713L289.261 657.534C280.643 648.916 280.643 634.943 289.261 626.325C297.879 617.707 311.852 617.707 320.47 626.325L320.473 626.329L323.247 629.102L326.074 626.384C334.713 618.077 348.453 618.181 356.966 626.694C365.48 635.207 365.583 648.947 357.277 657.586L357.124 657.745Z" stroke="#B366FF" stroke-width="8"/>
<path d="M613.124 495.745L580.156 528.713C579.682 529.187 578.914 529.187 578.44 528.713L545.261 495.534C536.643 486.916 536.643 472.943 545.261 464.325C553.879 455.707 567.852 455.707 576.47 464.325L576.473 464.329L579.247 467.102L582.074 464.384C590.713 456.077 604.453 456.181 612.966 464.694C621.48 473.207 621.583 486.947 613.277 495.586L613.124 495.745Z" stroke="#B366FF" stroke-width="8"/>
<path d="M277.124 495.745L244.156 528.713C243.682 529.187 242.914 529.187 242.44 528.713L209.261 495.534C200.643 486.916 200.643 472.943 209.261 464.325C217.879 455.707 231.852 455.707 240.47 464.325L240.473 464.329L243.247 467.102L246.074 464.384C254.713 456.077 268.453 456.181 276.966 464.694C285.48 473.207 285.583 486.947 277.277 495.586L277.124 495.745Z" stroke="#B366FF" stroke-width="8"/>
<path d="M445.124 495.745L412.156 528.713C411.682 529.187 410.914 529.187 410.44 528.713L377.261 495.534C368.643 486.916 368.643 472.943 377.261 464.325C385.879 455.707 399.852 455.707 408.47 464.325L408.473 464.329L411.247 467.102L414.074 464.384C422.713 456.077 436.453 456.181 444.966 464.694C453.48 473.207 453.583 486.947 445.277 495.586L445.124 495.745Z" stroke="#B366FF" stroke-width="8"/>
</svg>
