<svg width="822" height="1122" viewBox="0 0 822 1122" fill="none" xmlns="http://www.w3.org/2000/svg">
<path d="M0 20C0 8.9543 8.95431 0 20 0H802C813.046 0 822 8.9543 822 20V1102C822 1113.05 813.046 1122 802 1122H20C8.95432 1122 0 1113.05 0 1102V20Z" fill="#1A0033"/>
<path d="M118.084 160.92C112.537 160.92 107.204 160.365 102.084 159.256C96.964 158.147 93.124 156.696 90.564 154.904C90.052 154.563 89.7533 154.264 89.668 154.008C89.5827 153.752 89.668 153.368 89.924 152.856L91.588 150.04C91.844 149.528 92.1427 149.272 92.484 149.272C92.6547 149.272 92.9533 149.4 93.38 149.656C95.94 151.277 99.396 152.6 103.748 153.624C108.185 154.563 112.964 155.032 118.084 155.032C126.703 155.032 133.487 153.069 138.436 149.144C143.385 145.219 145.86 139.459 145.86 131.864C145.86 123.245 143.684 117.144 139.332 113.56C134.98 109.976 128.409 108.184 119.62 108.184C111.513 108.184 104.559 109.592 98.756 112.408C98.0733 112.749 97.348 112.92 96.58 112.92C95.3853 112.92 94.3613 112.493 93.508 111.64C92.74 110.787 92.3987 109.677 92.484 108.312L94.66 74.904C94.66 72.9413 95.6413 71.96 97.604 71.96H145.732C146.756 71.96 147.481 72.1733 147.908 72.6C148.42 72.9413 148.676 73.5813 148.676 74.52V75.416C148.676 77.2933 147.695 78.232 145.732 78.232H101.316L99.524 105.752C102.596 104.557 105.753 103.704 108.996 103.192C112.324 102.595 116.335 102.296 121.028 102.296C130.756 102.296 138.436 104.728 144.068 109.592C149.7 114.456 152.516 121.88 152.516 131.864C152.516 140.995 149.359 148.12 143.044 153.24C136.729 158.36 128.409 160.92 118.084 160.92Z" fill="#FFF066"/>
<path d="M141.309 231.337C141.309 231.336 141.309 231.335 141.309 231.333C141.309 219.551 132.085 210 120.706 210C109.327 210 100.103 219.551 100.103 231.333C88.7243 231.333 79.5 240.885 79.5 252.667C79.5 264.449 88.7243 274 100.103 274C110.489 274 119.08 266.043 120.5 255.695C121.92 266.043 130.511 274 140.897 274C152.276 274 161.5 264.449 161.5 252.667C161.5 241.027 152.498 231.565 141.309 231.337Z" fill="#FFF066"/>
<rect x="118.5" y="251" width="5" height="33" rx="2.5" fill="#FFF066"/>
<path d="M695.916 957.08C701.463 957.08 706.796 957.635 711.916 958.744C717.036 959.853 720.876 961.304 723.436 963.096C723.948 963.437 724.247 963.736 724.332 963.992C724.417 964.248 724.332 964.632 724.076 965.144L722.412 967.96C722.156 968.472 721.857 968.728 721.516 968.728C721.345 968.728 721.047 968.6 720.62 968.344C718.06 966.723 714.604 965.4 710.252 964.376C705.815 963.437 701.036 962.968 695.916 962.968C687.297 962.968 680.513 964.931 675.564 968.856C670.615 972.781 668.14 978.541 668.14 986.136C668.14 994.755 670.316 1000.86 674.668 1004.44C679.02 1008.02 685.591 1009.82 694.38 1009.82C702.487 1009.82 709.441 1008.41 715.244 1005.59C715.927 1005.25 716.652 1005.08 717.42 1005.08C718.615 1005.08 719.639 1005.51 720.492 1006.36C721.26 1007.21 721.601 1008.32 721.516 1009.69L719.34 1043.1C719.34 1045.06 718.359 1046.04 716.396 1046.04H668.268C667.244 1046.04 666.519 1045.83 666.092 1045.4C665.58 1045.06 665.324 1044.42 665.324 1043.48V1042.58C665.324 1040.71 666.305 1039.77 668.268 1039.77H712.684L714.476 1012.25C711.404 1013.44 708.247 1014.3 705.004 1014.81C701.676 1015.41 697.665 1015.7 692.972 1015.7C683.244 1015.7 675.564 1013.27 669.932 1008.41C664.3 1003.54 661.484 996.12 661.484 986.136C661.484 977.005 664.641 969.88 670.956 964.76C677.271 959.64 685.591 957.08 695.916 957.08Z" fill="#FFF066"/>
<path d="M672.691 886.663C672.691 886.664 672.691 886.665 672.691 886.667C672.691 898.449 681.915 908 693.294 908C704.673 908 713.897 898.449 713.897 886.667C725.276 886.667 734.5 877.115 734.5 865.333C734.5 853.551 725.276 844 713.897 844C703.511 844 694.92 851.957 693.5 862.305C692.08 851.957 683.489 844 673.103 844C661.724 844 652.5 853.551 652.5 865.333C652.5 876.973 661.502 886.435 672.691 886.663Z" fill="#FFF066"/>
<rect x="695.5" y="867" width="5" height="33" rx="2.5" transform="rotate(-180 695.5 867)" fill="#FFF066"/>
<path d="M515.668 627.317V631.236L519.586 631.317C532.372 631.581 543 642.65 543 656.689C543 670.902 532.111 682.066 519.111 682.066C507.238 682.066 497.144 672.777 495.464 660.324H487.536C485.856 672.777 475.762 682.066 463.889 682.066C450.889 682.066 440 670.902 440 656.689C440 642.475 450.889 631.312 463.889 631.312H467.889V627.312C467.889 613.098 478.778 601.935 491.779 601.935C504.779 601.935 515.668 613.098 515.668 627.312V627.312V627.312V627.312V627.312V627.312V627.312V627.312V627.312V627.312V627.312V627.312V627.312V627.313V627.313V627.313V627.313V627.313V627.313V627.313V627.313V627.313V627.313V627.313V627.313V627.313V627.313V627.313V627.314V627.314V627.314V627.314V627.314V627.314V627.314V627.314V627.314V627.314V627.314V627.314V627.314V627.314V627.314V627.315V627.315V627.315V627.315V627.315V627.315V627.315V627.315V627.315V627.315V627.315V627.315V627.315V627.315V627.315V627.316V627.316V627.316V627.316V627.316V627.316V627.316V627.316V627.316V627.316V627.316V627.316V627.316V627.316V627.316V627.317V627.317V627.317V627.317V627.317V627.317V627.317V627.317V627.317V627.317V627.317V627.317V627.317Z" stroke="#FFF066" stroke-width="8"/>
<path d="M488.307 664.026C488.307 662.347 489.668 660.985 491.348 660.985C493.028 660.985 494.389 662.347 494.389 664.026V694.959C494.389 696.638 493.028 698 491.348 698C489.668 698 488.307 696.638 488.307 694.959V664.026Z" fill="#FFF066"/>
<path d="M347.668 627.317V631.236L351.586 631.317C364.372 631.581 375 642.65 375 656.689C375 670.902 364.111 682.066 351.111 682.066C339.238 682.066 329.144 672.777 327.464 660.324H319.536C317.856 672.777 307.762 682.066 295.889 682.066C282.889 682.066 272 670.902 272 656.689C272 642.475 282.889 631.312 295.889 631.312H299.889V627.312C299.889 613.098 310.778 601.935 323.779 601.935C336.779 601.935 347.668 613.098 347.668 627.312V627.312V627.312V627.312V627.312V627.312V627.312V627.312V627.312V627.312V627.312V627.312V627.312V627.313V627.313V627.313V627.313V627.313V627.313V627.313V627.313V627.313V627.313V627.313V627.313V627.313V627.313V627.313V627.314V627.314V627.314V627.314V627.314V627.314V627.314V627.314V627.314V627.314V627.314V627.314V627.314V627.314V627.314V627.315V627.315V627.315V627.315V627.315V627.315V627.315V627.315V627.315V627.315V627.315V627.315V627.315V627.315V627.315V627.316V627.316V627.316V627.316V627.316V627.316V627.316V627.316V627.316V627.316V627.316V627.316V627.316V627.316V627.316V627.317V627.317V627.317V627.317V627.317V627.317V627.317V627.317V627.317V627.317V627.317V627.317V627.317Z" stroke="#FFF066" stroke-width="8"/>
<path d="M320.307 664.026C320.307 662.347 321.668 660.985 323.348 660.985C325.028 660.985 326.389 662.347 326.389 664.026V694.959C326.389 696.638 325.028 698 323.348 698C321.668 698 320.307 696.638 320.307 694.959V664.026Z" fill="#FFF066"/>
<path d="M603.668 465.317V469.236L607.586 469.317C620.372 469.581 631 480.65 631 494.689C631 508.902 620.111 520.066 607.111 520.066C595.238 520.066 585.144 510.777 583.464 498.324H575.536C573.856 510.777 563.762 520.066 551.889 520.066C538.889 520.066 528 508.902 528 494.689C528 480.475 538.889 469.312 551.889 469.312H555.889V465.312C555.889 451.098 566.778 439.935 579.779 439.935C592.779 439.935 603.668 451.098 603.668 465.312V465.312V465.312V465.312V465.312V465.312V465.312V465.312V465.312V465.312V465.312V465.312V465.312V465.313V465.313V465.313V465.313V465.313V465.313V465.313V465.313V465.313V465.313V465.313V465.313V465.313V465.313V465.313V465.314V465.314V465.314V465.314V465.314V465.314V465.314V465.314V465.314V465.314V465.314V465.314V465.314V465.314V465.314V465.315V465.315V465.315V465.315V465.315V465.315V465.315V465.315V465.315V465.315V465.315V465.315V465.315V465.315V465.315V465.316V465.316V465.316V465.316V465.316V465.316V465.316V465.316V465.316V465.316V465.316V465.316V465.316V465.316V465.316V465.317V465.317V465.317V465.317V465.317V465.317V465.317V465.317V465.317V465.317V465.317V465.317V465.317Z" stroke="#FFF066" stroke-width="8"/>
<path d="M576.307 502.026C576.307 500.347 577.668 498.985 579.348 498.985C581.028 498.985 582.389 500.347 582.389 502.026V532.959C582.389 534.638 581.028 536 579.348 536C577.668 536 576.307 534.638 576.307 532.959V502.026Z" fill="#FFF066"/>
<path d="M267.668 465.317V469.236L271.586 469.317C284.372 469.581 295 480.65 295 494.689C295 508.902 284.111 520.066 271.111 520.066C259.238 520.066 249.144 510.777 247.464 498.324H239.536C237.856 510.777 227.762 520.066 215.889 520.066C202.889 520.066 192 508.902 192 494.689C192 480.475 202.889 469.312 215.889 469.312H219.889V465.312C219.889 451.098 230.778 439.935 243.779 439.935C256.779 439.935 267.668 451.098 267.668 465.312V465.312V465.312V465.312V465.312V465.312V465.312V465.312V465.312V465.312V465.312V465.312V465.312V465.313V465.313V465.313V465.313V465.313V465.313V465.313V465.313V465.313V465.313V465.313V465.313V465.313V465.313V465.313V465.314V465.314V465.314V465.314V465.314V465.314V465.314V465.314V465.314V465.314V465.314V465.314V465.314V465.314V465.314V465.315V465.315V465.315V465.315V465.315V465.315V465.315V465.315V465.315V465.315V465.315V465.315V465.315V465.315V465.315V465.316V465.316V465.316V465.316V465.316V465.316V465.316V465.316V465.316V465.316V465.316V465.316V465.316V465.316V465.316V465.317V465.317V465.317V465.317V465.317V465.317V465.317V465.317V465.317V465.317V465.317V465.317V465.317Z" stroke="#FFF066" stroke-width="8"/>
<path d="M240.307 502.026C240.307 500.347 241.668 498.985 243.348 498.985C245.028 498.985 246.389 500.347 246.389 502.026V532.959C246.389 534.638 245.028 536 243.348 536C241.668 536 240.307 534.638 240.307 532.959V502.026Z" fill="#FFF066"/>
<path d="M435.668 465.317V469.236L439.586 469.317C452.372 469.581 463 480.65 463 494.689C463 508.902 452.111 520.066 439.111 520.066C427.238 520.066 417.144 510.777 415.464 498.324H407.536C405.856 510.777 395.762 520.066 383.889 520.066C370.889 520.066 360 508.902 360 494.689C360 480.475 370.889 469.312 383.889 469.312H387.889V465.312C387.889 451.098 398.778 439.935 411.779 439.935C424.779 439.935 435.668 451.098 435.668 465.312V465.312V465.312V465.312V465.312V465.312V465.312V465.312V465.312V465.312V465.312V465.312V465.312V465.313V465.313V465.313V465.313V465.313V465.313V465.313V465.313V465.313V465.313V465.313V465.313V465.313V465.313V465.313V465.314V465.314V465.314V465.314V465.314V465.314V465.314V465.314V465.314V465.314V465.314V465.314V465.314V465.314V465.314V465.315V465.315V465.315V465.315V465.315V465.315V465.315V465.315V465.315V465.315V465.315V465.315V465.315V465.315V465.315V465.316V465.316V465.316V465.316V465.316V465.316V465.316V465.316V465.316V465.316V465.316V465.316V465.316V465.316V465.316V465.317V465.317V465.317V465.317V465.317V465.317V465.317V465.317V465.317V465.317V465.317V465.317V465.317Z" stroke="#FFF066" stroke-width="8"/>
<path d="M408.307 502.026C408.307 500.347 409.668 498.985 411.348 498.985C413.028 498.985 414.389 500.347 414.389 502.026V532.959C414.389 534.638 413.028 536 411.348 536C409.668 536 408.307 534.638 408.307 532.959V502.026Z" fill="#FFF066"/>
</svg>
