<svg width="822" height="1122" viewBox="0 0 822 1122" fill="none" xmlns="http://www.w3.org/2000/svg">
<path d="M0 20C0 8.9543 8.95431 0 20 0H802C813.046 0 822 8.9543 822 20V1102C822 1113.05 813.046 1122 802 1122H20C8.95432 1122 0 1113.05 0 1102V20Z" fill="#1A0033"/>
<path d="M118.084 160.92C112.537 160.92 107.204 160.365 102.084 159.256C96.964 158.147 93.124 156.696 90.564 154.904C90.052 154.563 89.7533 154.264 89.668 154.008C89.5827 153.752 89.668 153.368 89.924 152.856L91.588 150.04C91.844 149.528 92.1427 149.272 92.484 149.272C92.6547 149.272 92.9533 149.4 93.38 149.656C95.94 151.277 99.396 152.6 103.748 153.624C108.185 154.563 112.964 155.032 118.084 155.032C126.703 155.032 133.487 153.069 138.436 149.144C143.385 145.219 145.86 139.459 145.86 131.864C145.86 123.245 143.684 117.144 139.332 113.56C134.98 109.976 128.409 108.184 119.62 108.184C111.513 108.184 104.559 109.592 98.756 112.408C98.0733 112.749 97.348 112.92 96.58 112.92C95.3853 112.92 94.3613 112.493 93.508 111.64C92.74 110.787 92.3987 109.677 92.484 108.312L94.66 74.904C94.66 72.9413 95.6413 71.96 97.604 71.96H145.732C146.756 71.96 147.481 72.1733 147.908 72.6C148.42 72.9413 148.676 73.5813 148.676 74.52V75.416C148.676 77.2933 147.695 78.232 145.732 78.232H101.316L99.524 105.752C102.596 104.557 105.753 103.704 108.996 103.192C112.324 102.595 116.335 102.296 121.028 102.296C130.756 102.296 138.436 104.728 144.068 109.592C149.7 114.456 152.516 121.88 152.516 131.864C152.516 140.995 149.359 148.12 143.044 153.24C136.729 158.36 128.409 160.92 118.084 160.92Z" fill="#FFF066"/>
<path d="M121.202 281.503C131.382 291.683 147.887 291.683 158.067 281.503C168.247 271.323 168.247 254.818 158.067 244.638L124.888 211.459C122.852 209.423 119.551 209.423 117.515 211.459L84.3364 244.638L84.34 244.641C74.5265 254.848 74.6481 271.077 84.7051 281.134C94.762 291.191 110.992 291.313 121.198 281.499L121.202 281.503Z" fill="#FFF066"/>
<rect x="118.5" y="266" width="5" height="33" rx="2.5" fill="#FFF066"/>
<path d="M695.916 957.08C701.463 957.08 706.796 957.635 711.916 958.744C717.036 959.853 720.876 961.304 723.436 963.096C723.948 963.437 724.247 963.736 724.332 963.992C724.417 964.248 724.332 964.632 724.076 965.144L722.412 967.96C722.156 968.472 721.857 968.728 721.516 968.728C721.345 968.728 721.047 968.6 720.62 968.344C718.06 966.723 714.604 965.4 710.252 964.376C705.815 963.437 701.036 962.968 695.916 962.968C687.297 962.968 680.513 964.931 675.564 968.856C670.615 972.781 668.14 978.541 668.14 986.136C668.14 994.755 670.316 1000.86 674.668 1004.44C679.02 1008.02 685.591 1009.82 694.38 1009.82C702.487 1009.82 709.441 1008.41 715.244 1005.59C715.927 1005.25 716.652 1005.08 717.42 1005.08C718.615 1005.08 719.639 1005.51 720.492 1006.36C721.26 1007.21 721.601 1008.32 721.516 1009.69L719.34 1043.1C719.34 1045.06 718.359 1046.04 716.396 1046.04H668.268C667.244 1046.04 666.519 1045.83 666.092 1045.4C665.58 1045.06 665.324 1044.42 665.324 1043.48V1042.58C665.324 1040.71 666.305 1039.77 668.268 1039.77H712.684L714.476 1012.25C711.404 1013.44 708.247 1014.3 705.004 1014.81C701.676 1015.41 697.665 1015.7 692.972 1015.7C683.244 1015.7 675.564 1013.27 669.932 1008.41C664.3 1003.54 661.484 996.12 661.484 986.136C661.484 977.005 664.641 969.88 670.956 964.76C677.271 959.64 685.591 957.08 695.916 957.08Z" fill="#FFF066"/>
<path d="M692.798 836.497C682.618 826.317 666.113 826.317 655.933 836.497C645.753 846.677 645.753 863.182 655.933 873.362L689.112 906.541C691.148 908.577 694.449 908.577 696.485 906.541L729.664 873.362L729.66 873.359C739.474 863.152 739.352 846.923 729.295 836.866C719.238 826.809 703.008 826.687 692.802 836.501L692.798 836.497Z" fill="#FFF066"/>
<rect x="695.5" y="852" width="5" height="33" rx="2.5" transform="rotate(-180 695.5 852)" fill="#FFF066"/>
<path d="M457.876 627.255L490.844 594.287C491.318 593.813 492.086 593.813 492.56 594.287L525.739 627.466C534.357 636.084 534.357 650.057 525.739 658.675C517.121 667.293 503.148 667.293 494.53 658.675L494.527 658.671L491.753 655.898L488.926 658.616C480.287 666.923 466.547 666.819 458.034 658.306C449.52 649.793 449.417 636.053 457.723 627.414L457.876 627.255Z" stroke="#FFF066" stroke-width="8"/>
<rect x="489" y="646" width="5" height="33" rx="2.5" fill="#FFF066"/>
<path d="M289.876 627.255L322.844 594.287C323.318 593.813 324.086 593.813 324.56 594.287L357.739 627.466C366.357 636.084 366.357 650.057 357.739 658.675C349.121 667.293 335.148 667.293 326.53 658.675L326.527 658.671L323.753 655.898L320.926 658.616C312.287 666.923 298.547 666.819 290.034 658.306C281.52 649.793 281.417 636.053 289.723 627.414L289.876 627.255Z" stroke="#FFF066" stroke-width="8"/>
<rect x="321" y="646" width="5" height="33" rx="2.5" fill="#FFF066"/>
<path d="M545.876 465.255L578.844 432.287C579.318 431.813 580.086 431.813 580.56 432.287L613.739 465.466C622.357 474.084 622.357 488.057 613.739 496.675C605.121 505.293 591.148 505.293 582.53 496.675L582.527 496.671L579.753 493.898L576.926 496.616C568.287 504.923 554.547 504.819 546.034 496.306C537.52 487.793 537.417 474.053 545.723 465.414L545.876 465.255Z" stroke="#FFF066" stroke-width="8"/>
<rect x="577" y="484" width="5" height="33" rx="2.5" fill="#FFF066"/>
<path d="M209.876 465.255L242.844 432.287C243.318 431.813 244.086 431.813 244.56 432.287L277.739 465.466C286.357 474.084 286.357 488.057 277.739 496.675C269.121 505.293 255.148 505.293 246.53 496.675L246.527 496.671L243.753 493.898L240.926 496.616C232.287 504.923 218.547 504.819 210.034 496.306C201.52 487.793 201.417 474.053 209.723 465.414L209.876 465.255Z" stroke="#FFF066" stroke-width="8"/>
<rect x="241" y="484" width="5" height="33" rx="2.5" fill="#FFF066"/>
<path d="M377.876 465.255L410.844 432.287C411.318 431.813 412.086 431.813 412.56 432.287L445.739 465.466C454.357 474.084 454.357 488.057 445.739 496.675C437.121 505.293 423.148 505.293 414.53 496.675L414.527 496.671L411.753 493.898L408.926 496.616C400.287 504.923 386.547 504.819 378.034 496.306C369.52 487.793 369.417 474.053 377.723 465.414L377.876 465.255Z" stroke="#FFF066" stroke-width="8"/>
<rect x="409" y="484" width="5" height="33" rx="2.5" fill="#FFF066"/>
</svg>
