<svg width="822" height="1122" viewBox="0 0 822 1122" fill="none" xmlns="http://www.w3.org/2000/svg">
<path d="M0 20C0 8.9543 8.95431 0 20 0H802C813.046 0 822 8.9543 822 20V1102C822 1113.05 813.046 1122 802 1122H20C8.95432 1122 0 1113.05 0 1102V20Z" fill="#1A0033"/>
<path d="M137.898 159C135.935 159 134.954 158.019 134.954 156.056V138.52H87.9775C86.2708 138.52 85.4175 137.752 85.4175 136.216V135.32C85.4175 134.125 85.8015 133.101 86.5695 132.248L135.21 73.24C135.892 72.3867 136.746 71.96 137.77 71.96H138.922C140.884 71.96 141.866 72.9413 141.866 74.904V132.248H153.642C155.604 132.248 156.586 133.187 156.586 135.064V135.96C156.586 136.899 156.33 137.581 155.818 138.008C155.391 138.349 154.666 138.52 153.642 138.52H141.866V156.056C141.866 158.019 140.884 159 138.922 159H137.898ZM134.954 132.248V82.84L94.1215 132.248H134.954Z" fill="#B366FF"/>
<path d="M120.798 218.497C110.618 208.317 94.1128 208.317 83.9327 218.497C73.7526 228.677 73.7526 245.182 83.9327 255.362L117.112 288.541C119.148 290.577 122.449 290.577 124.485 288.541L157.664 255.362L157.66 255.359C167.474 245.152 167.352 228.923 157.295 218.866C147.238 208.809 131.008 208.687 120.802 218.501L120.798 218.497Z" fill="#B366FF"/>
<path d="M676.102 959C678.065 959 679.046 959.981 679.046 961.944V979.48H726.022C727.729 979.48 728.582 980.248 728.582 981.784V982.68C728.582 983.875 728.198 984.899 727.43 985.752L678.79 1044.76C678.108 1045.61 677.254 1046.04 676.23 1046.04H675.078C673.116 1046.04 672.134 1045.06 672.134 1043.1V985.752H660.358C658.396 985.752 657.414 984.813 657.414 982.936V982.04C657.414 981.101 657.67 980.419 658.182 979.992C658.609 979.651 659.334 979.48 660.358 979.48H672.134V961.944C672.134 959.981 673.116 959 675.078 959H676.102ZM679.046 985.752V1035.16L719.878 985.752H679.046Z" fill="#B366FF"/>
<path d="M693.202 899.503C703.382 909.683 719.887 909.683 730.067 899.503C740.247 889.323 740.247 872.818 730.067 862.638L696.888 829.459C694.852 827.423 691.551 827.423 689.515 829.459L656.336 862.638L656.34 862.641C646.526 872.848 646.648 889.077 656.705 899.134C666.762 909.191 682.992 909.313 693.198 899.499L693.202 899.503Z" fill="#B366FF"/>
<path d="M445.124 657.745L412.156 690.713C411.682 691.187 410.914 691.187 410.44 690.713L377.261 657.534C368.643 648.916 368.643 634.943 377.261 626.325C385.879 617.707 399.852 617.707 408.47 626.325L408.473 626.329L411.247 629.102L414.074 626.384C422.713 618.077 436.453 618.181 444.966 626.694C453.48 635.207 453.583 648.947 445.277 657.586L445.124 657.745Z" stroke="#B366FF" stroke-width="8"/>
<path d="M613.124 495.745L580.156 528.713C579.682 529.187 578.914 529.187 578.44 528.713L545.261 495.534C536.643 486.916 536.643 472.943 545.261 464.325C553.879 455.707 567.852 455.707 576.47 464.325L576.473 464.329L579.247 467.102L582.074 464.384C590.713 456.077 604.453 456.181 612.966 464.694C621.48 473.207 621.583 486.947 613.277 495.586L613.124 495.745Z" stroke="#B366FF" stroke-width="8"/>
<path d="M277.124 495.745L244.156 528.713C243.682 529.187 242.914 529.187 242.44 528.713L209.261 495.534C200.643 486.916 200.643 472.943 209.261 464.325C217.879 455.707 231.852 455.707 240.47 464.325L240.473 464.329L243.247 467.102L246.074 464.384C254.713 456.077 268.453 456.181 276.966 464.694C285.48 473.207 285.583 486.947 277.277 495.586L277.124 495.745Z" stroke="#B366FF" stroke-width="8"/>
<path d="M445.124 495.745L412.156 528.713C411.682 529.187 410.914 529.187 410.44 528.713L377.261 495.534C368.643 486.916 368.643 472.943 377.261 464.325C385.879 455.707 399.852 455.707 408.47 464.325L408.473 464.329L411.247 467.102L414.074 464.384C422.713 456.077 436.453 456.181 444.966 464.694C453.48 473.207 453.583 486.947 445.277 495.586L445.124 495.745Z" stroke="#B366FF" stroke-width="8"/>
</svg>
