<svg width="822" height="1122" viewBox="0 0 822 1122" fill="none" xmlns="http://www.w3.org/2000/svg">
<path d="M0 20C0 8.9543 8.95431 0 20 0H802C813.046 0 822 8.9543 822 20V1102C822 1113.05 813.046 1122 802 1122H20C8.95432 1122 0 1113.05 0 1102V20Z" fill="#1A0033"/>
<path d="M137.898 159C135.935 159 134.954 158.019 134.954 156.056V138.52H87.9775C86.2708 138.52 85.4175 137.752 85.4175 136.216V135.32C85.4175 134.125 85.8015 133.101 86.5695 132.248L135.21 73.24C135.892 72.3867 136.746 71.96 137.77 71.96H138.922C140.884 71.96 141.866 72.9413 141.866 74.904V132.248H153.642C155.604 132.248 156.586 133.187 156.586 135.064V135.96C156.586 136.899 156.33 137.581 155.818 138.008C155.391 138.349 154.666 138.52 153.642 138.52H141.866V156.056C141.866 158.019 140.884 159 138.922 159H137.898ZM134.954 132.248V82.84L94.1215 132.248H134.954Z" fill="#FFF066"/>
<path d="M121.202 281.503C131.382 291.683 147.887 291.683 158.067 281.503C168.247 271.323 168.247 254.818 158.067 244.638L124.888 211.459C122.852 209.423 119.551 209.423 117.515 211.459L84.3364 244.638L84.34 244.641C74.5265 254.848 74.6481 271.077 84.7051 281.134C94.762 291.191 110.992 291.313 121.198 281.499L121.202 281.503Z" fill="#FFF066"/>
<rect x="118.5" y="266" width="5" height="33" rx="2.5" fill="#FFF066"/>
<path d="M676.102 959C678.065 959 679.046 959.981 679.046 961.944V979.48H726.022C727.729 979.48 728.582 980.248 728.582 981.784V982.68C728.582 983.875 728.198 984.899 727.43 985.752L678.79 1044.76C678.108 1045.61 677.254 1046.04 676.23 1046.04H675.078C673.116 1046.04 672.134 1045.06 672.134 1043.1V985.752H660.358C658.396 985.752 657.414 984.813 657.414 982.936V982.04C657.414 981.101 657.67 980.419 658.182 979.992C658.609 979.651 659.334 979.48 660.358 979.48H672.134V961.944C672.134 959.981 673.116 959 675.078 959H676.102ZM679.046 985.752V1035.16L719.878 985.752H679.046Z" fill="#FFF066"/>
<path d="M692.798 836.497C682.618 826.317 666.113 826.317 655.933 836.497C645.753 846.677 645.753 863.182 655.933 873.362L689.112 906.541C691.148 908.577 694.449 908.577 696.485 906.541L729.664 873.362L729.66 873.359C739.474 863.152 739.352 846.923 729.295 836.866C719.238 826.809 703.008 826.687 692.802 836.501L692.798 836.497Z" fill="#FFF066"/>
<rect x="695.5" y="852" width="5" height="33" rx="2.5" transform="rotate(-180 695.5 852)" fill="#FFF066"/>
<path d="M377.876 627.255L410.844 594.287C411.318 593.813 412.086 593.813 412.56 594.287L445.739 627.466C454.357 636.084 454.357 650.057 445.739 658.675C437.121 667.293 423.148 667.293 414.53 658.675L414.527 658.671L411.753 655.898L408.926 658.616C400.287 666.923 386.547 666.819 378.034 658.306C369.52 649.793 369.417 636.053 377.723 627.414L377.876 627.255Z" stroke="#FFF066" stroke-width="8"/>
<rect x="409" y="646" width="5" height="33" rx="2.5" fill="#FFF066"/>
<path d="M545.876 465.255L578.844 432.287C579.318 431.813 580.086 431.813 580.56 432.287L613.739 465.466C622.357 474.084 622.357 488.057 613.739 496.675C605.121 505.293 591.148 505.293 582.53 496.675L582.527 496.671L579.753 493.898L576.926 496.616C568.287 504.923 554.547 504.819 546.034 496.306C537.52 487.793 537.417 474.053 545.723 465.414L545.876 465.255Z" stroke="#FFF066" stroke-width="8"/>
<rect x="577" y="484" width="5" height="33" rx="2.5" fill="#FFF066"/>
<path d="M209.876 465.255L242.844 432.287C243.318 431.813 244.086 431.813 244.56 432.287L277.739 465.466C286.357 474.084 286.357 488.057 277.739 496.675C269.121 505.293 255.148 505.293 246.53 496.675L246.527 496.671L243.753 493.898L240.926 496.616C232.287 504.923 218.547 504.819 210.034 496.306C201.52 487.793 201.417 474.053 209.723 465.414L209.876 465.255Z" stroke="#FFF066" stroke-width="8"/>
<rect x="241" y="484" width="5" height="33" rx="2.5" fill="#FFF066"/>
<path d="M377.876 465.255L410.844 432.287C411.318 431.813 412.086 431.813 412.56 432.287L445.739 465.466C454.357 474.084 454.357 488.057 445.739 496.675C437.121 505.293 423.148 505.293 414.53 496.675L414.527 496.671L411.753 493.898L408.926 496.616C400.287 504.923 386.547 504.819 378.034 496.306C369.52 487.793 369.417 474.053 377.723 465.414L377.876 465.255Z" stroke="#FFF066" stroke-width="8"/>
<rect x="409" y="484" width="5" height="33" rx="2.5" fill="#FFF066"/>
</svg>
