<svg width="822" height="1122" viewBox="0 0 822 1122" fill="none" xmlns="http://www.w3.org/2000/svg">
<path d="M0 20C0 8.9543 8.95431 0 20 0H802C813.046 0 822 8.9543 822 20V1102C822 1113.05 813.046 1122 802 1122H20C8.95432 1122 0 1113.05 0 1102V20Z" fill="#1A0033"/>
<path d="M118.254 160.92C113.475 160.92 109.123 160.408 105.198 159.384C101.358 158.36 98.1153 156.952 95.47 155.16C94.958 154.819 94.6593 154.52 94.574 154.264C94.4887 154.008 94.574 153.624 94.83 153.112L96.494 150.296C96.75 149.784 97.0487 149.528 97.39 149.528C97.5607 149.528 97.8593 149.656 98.286 149.912C103.662 153.325 110.361 155.032 118.382 155.032C126.659 155.032 133.315 152.045 138.35 146.072C143.47 140.013 146.371 131.523 147.054 120.6C140.398 128.707 131.481 132.76 120.302 132.76C113.987 132.76 108.355 131.608 103.406 129.304C98.542 126.915 94.702 123.544 91.886 119.192C89.1553 114.755 87.79 109.464 87.79 103.32C87.79 92.3973 90.9047 84.12 97.134 78.488C103.363 72.856 111.854 70.04 122.606 70.04C132.334 70.04 140.014 73.1973 145.646 79.512C151.363 85.7413 154.222 95.5973 154.222 109.08C154.222 128.024 150.723 141.421 143.726 149.272C136.729 157.037 128.238 160.92 118.254 160.92ZM121.454 126.744C125.465 126.744 129.475 125.891 133.486 124.184C137.497 122.392 140.782 119.832 143.342 116.504C145.987 113.091 147.31 108.995 147.31 104.216C147.31 94.8293 145.134 87.7893 140.782 83.096C136.43 78.3173 130.371 75.928 122.606 75.928C103.833 75.928 94.446 85.0587 94.446 103.32C94.446 111 96.7927 116.845 101.486 120.856C106.179 124.781 112.835 126.744 121.454 126.744Z" fill="#B366FF"/>
<path d="M120.798 218.497C110.618 208.317 94.1128 208.317 83.9327 218.497C73.7526 228.677 73.7526 245.182 83.9327 255.362L117.112 288.541C119.148 290.577 122.449 290.577 124.485 288.541L157.664 255.362L157.66 255.359C167.474 245.152 167.352 228.923 157.295 218.866C147.238 208.809 131.008 208.687 120.802 218.501L120.798 218.497Z" fill="#B366FF"/>
<path d="M695.746 957.08C700.525 957.08 704.877 957.592 708.802 958.616C712.642 959.64 715.885 961.048 718.53 962.84C719.042 963.181 719.341 963.48 719.426 963.736C719.511 963.992 719.426 964.376 719.17 964.888L717.506 967.704C717.25 968.216 716.951 968.472 716.61 968.472C716.439 968.472 716.141 968.344 715.714 968.088C710.338 964.675 703.639 962.968 695.618 962.968C687.341 962.968 680.685 965.955 675.65 971.928C670.53 977.987 667.629 986.477 666.946 997.4C673.602 989.293 682.519 985.24 693.698 985.24C700.013 985.24 705.645 986.392 710.594 988.696C715.458 991.085 719.298 994.456 722.114 998.808C724.845 1003.25 726.21 1008.54 726.21 1014.68C726.21 1025.6 723.095 1033.88 716.866 1039.51C710.637 1045.14 702.146 1047.96 691.394 1047.96C681.666 1047.96 673.986 1044.8 668.354 1038.49C662.637 1032.26 659.778 1022.4 659.778 1008.92C659.778 989.976 663.277 976.579 670.274 968.728C677.271 960.963 685.762 957.08 695.746 957.08ZM692.546 991.256C688.535 991.256 684.525 992.109 680.514 993.816C676.503 995.608 673.218 998.168 670.658 1001.5C668.013 1004.91 666.69 1009.01 666.69 1013.78C666.69 1023.17 668.866 1030.21 673.218 1034.9C677.57 1039.68 683.629 1042.07 691.394 1042.07C710.167 1042.07 719.554 1032.94 719.554 1014.68C719.554 1007 717.207 1001.15 712.514 997.144C707.821 993.219 701.165 991.256 692.546 991.256Z" fill="#B366FF"/>
<path d="M693.202 899.503C703.382 909.683 719.887 909.683 730.067 899.503C740.247 889.323 740.247 872.818 730.067 862.638L696.888 829.459C694.852 827.423 691.551 827.423 689.515 829.459L656.336 862.638L656.34 862.641C646.526 872.848 646.648 889.077 656.705 899.134C666.762 909.191 682.992 909.313 693.198 899.499L693.202 899.503Z" fill="#B366FF"/>
<path d="M445.124 576.745L412.156 609.713C411.682 610.187 410.914 610.187 410.44 609.713L377.261 576.534C368.643 567.916 368.643 553.943 377.261 545.325C385.879 536.707 399.852 536.707 408.47 545.325L408.473 545.329L411.247 548.102L414.074 545.384C422.713 537.077 436.453 537.181 444.966 545.694C453.48 554.207 453.583 567.947 445.277 576.586L445.124 576.745Z" stroke="#B366FF" stroke-width="8"/>
<path d="M277.124 738.745L244.156 771.713C243.682 772.187 242.914 772.187 242.44 771.713L209.261 738.534C200.643 729.916 200.643 715.943 209.261 707.325C217.879 698.707 231.852 698.707 240.47 707.325L240.473 707.329L243.247 710.102L246.074 707.384C254.713 699.077 268.453 699.181 276.966 707.694C285.48 716.207 285.583 729.947 277.277 738.586L277.124 738.745Z" stroke="#B366FF" stroke-width="8"/>
<path d="M441.124 738.745L408.156 771.713C407.682 772.187 406.914 772.187 406.44 771.713L373.261 738.534C364.643 729.916 364.643 715.943 373.261 707.325C381.879 698.707 395.852 698.707 404.47 707.325L404.473 707.329L407.247 710.102L410.074 707.384C418.713 699.077 432.453 699.181 440.966 707.694C449.48 716.207 449.583 729.947 441.277 738.586L441.124 738.745Z" stroke="#B366FF" stroke-width="8"/>
<path d="M613.124 738.745L580.156 771.713C579.682 772.187 578.914 772.187 578.44 771.713L545.261 738.534C536.643 729.916 536.643 715.943 545.261 707.325C553.879 698.707 567.852 698.707 576.47 707.325L576.473 707.329L579.247 710.102L582.074 707.384C590.713 699.077 604.453 699.181 612.966 707.694C621.48 716.207 621.583 729.947 613.277 738.586L613.124 738.745Z" stroke="#B366FF" stroke-width="8"/>
<path d="M613.124 576.745L580.156 609.713C579.682 610.187 578.914 610.187 578.44 609.713L545.261 576.534C536.643 567.916 536.643 553.943 545.261 545.325C553.879 536.707 567.852 536.707 576.47 545.325L576.473 545.329L579.247 548.102L582.074 545.384C590.713 537.077 604.453 537.181 612.966 545.694C621.48 554.207 621.583 567.947 613.277 576.586L613.124 576.745Z" stroke="#B366FF" stroke-width="8"/>
<path d="M277.124 576.745L244.156 609.713C243.682 610.187 242.914 610.187 242.44 609.713L209.261 576.534C200.643 567.916 200.643 553.943 209.261 545.325C217.879 536.707 231.852 536.707 240.47 545.325L240.473 545.329L243.247 548.102L246.074 545.384C254.713 537.077 268.453 537.181 276.966 545.694C285.48 554.207 285.583 567.947 277.277 576.586L277.124 576.745Z" stroke="#B366FF" stroke-width="8"/>
<path d="M613.124 414.745L580.156 447.713C579.682 448.187 578.914 448.187 578.44 447.713L545.261 414.534C536.643 405.916 536.643 391.943 545.261 383.325C553.879 374.707 567.852 374.707 576.47 383.325L576.473 383.329L579.247 386.102L582.074 383.384C590.713 375.077 604.453 375.181 612.966 383.694C621.48 392.207 621.583 405.947 613.277 414.586L613.124 414.745Z" stroke="#B366FF" stroke-width="8"/>
<path d="M277.124 414.745L244.156 447.713C243.682 448.187 242.914 448.187 242.44 447.713L209.261 414.534C200.643 405.916 200.643 391.943 209.261 383.325C217.879 374.707 231.852 374.707 240.47 383.325L240.473 383.329L243.247 386.102L246.074 383.384C254.713 375.077 268.453 375.181 276.966 383.694C285.48 392.207 285.583 405.947 277.277 414.586L277.124 414.745Z" stroke="#B366FF" stroke-width="8"/>
<path d="M445.124 414.745L412.156 447.713C411.682 448.187 410.914 448.187 410.44 447.713L377.261 414.534C368.643 405.916 368.643 391.943 377.261 383.325C385.879 374.707 399.852 374.707 408.47 383.325L408.473 383.329L411.247 386.102L414.074 383.384C422.713 375.077 436.453 375.181 444.966 383.694C453.48 392.207 453.583 405.947 445.277 414.586L445.124 414.745Z" stroke="#B366FF" stroke-width="8"/>
</svg>
