<svg width="822" height="1122" viewBox="0 0 822 1122" fill="none" xmlns="http://www.w3.org/2000/svg">
<path d="M0 20C0 8.9543 8.95431 0 20 0H802C813.046 0 822 8.9543 822 20V1102C822 1113.05 813.046 1122 802 1122H20C8.95432 1122 0 1113.05 0 1102V20Z" fill="#1A0033"/>
<path d="M118.254 160.92C113.475 160.92 109.123 160.408 105.198 159.384C101.358 158.36 98.1153 156.952 95.47 155.16C94.958 154.819 94.6593 154.52 94.574 154.264C94.4887 154.008 94.574 153.624 94.83 153.112L96.494 150.296C96.75 149.784 97.0487 149.528 97.39 149.528C97.5607 149.528 97.8593 149.656 98.286 149.912C103.662 153.325 110.361 155.032 118.382 155.032C126.659 155.032 133.315 152.045 138.35 146.072C143.47 140.013 146.371 131.523 147.054 120.6C140.398 128.707 131.481 132.76 120.302 132.76C113.987 132.76 108.355 131.608 103.406 129.304C98.542 126.915 94.702 123.544 91.886 119.192C89.1553 114.755 87.79 109.464 87.79 103.32C87.79 92.3973 90.9047 84.12 97.134 78.488C103.363 72.856 111.854 70.04 122.606 70.04C132.334 70.04 140.014 73.1973 145.646 79.512C151.363 85.7413 154.222 95.5973 154.222 109.08C154.222 128.024 150.723 141.421 143.726 149.272C136.729 157.037 128.238 160.92 118.254 160.92ZM121.454 126.744C125.465 126.744 129.475 125.891 133.486 124.184C137.497 122.392 140.782 119.832 143.342 116.504C145.987 113.091 147.31 108.995 147.31 104.216C147.31 94.8293 145.134 87.7893 140.782 83.096C136.43 78.3173 130.371 75.928 122.606 75.928C103.833 75.928 94.446 85.0587 94.446 103.32C94.446 111 96.7927 116.845 101.486 120.856C106.179 124.781 112.835 126.744 121.454 126.744Z" fill="#FFF066"/>
<path d="M121.202 281.503C131.382 291.683 147.887 291.683 158.067 281.503C168.247 271.323 168.247 254.818 158.067 244.638L124.888 211.459C122.852 209.423 119.551 209.423 117.515 211.459L84.3364 244.638L84.34 244.641C74.5265 254.848 74.6481 271.077 84.7051 281.134C94.762 291.191 110.992 291.313 121.198 281.499L121.202 281.503Z" fill="#FFF066"/>
<rect x="118.5" y="266" width="5" height="33" rx="2.5" fill="#FFF066"/>
<path d="M695.746 957.08C700.525 957.08 704.877 957.592 708.802 958.616C712.642 959.64 715.885 961.048 718.53 962.84C719.042 963.181 719.341 963.48 719.426 963.736C719.511 963.992 719.426 964.376 719.17 964.888L717.506 967.704C717.25 968.216 716.951 968.472 716.61 968.472C716.439 968.472 716.141 968.344 715.714 968.088C710.338 964.675 703.639 962.968 695.618 962.968C687.341 962.968 680.685 965.955 675.65 971.928C670.53 977.987 667.629 986.477 666.946 997.4C673.602 989.293 682.519 985.24 693.698 985.24C700.013 985.24 705.645 986.392 710.594 988.696C715.458 991.085 719.298 994.456 722.114 998.808C724.845 1003.25 726.21 1008.54 726.21 1014.68C726.21 1025.6 723.095 1033.88 716.866 1039.51C710.637 1045.14 702.146 1047.96 691.394 1047.96C681.666 1047.96 673.986 1044.8 668.354 1038.49C662.637 1032.26 659.778 1022.4 659.778 1008.92C659.778 989.976 663.277 976.579 670.274 968.728C677.271 960.963 685.762 957.08 695.746 957.08ZM692.546 991.256C688.535 991.256 684.525 992.109 680.514 993.816C676.503 995.608 673.218 998.168 670.658 1001.5C668.013 1004.91 666.69 1009.01 666.69 1013.78C666.69 1023.17 668.866 1030.21 673.218 1034.9C677.57 1039.68 683.629 1042.07 691.394 1042.07C710.167 1042.07 719.554 1032.94 719.554 1014.68C719.554 1007 717.207 1001.15 712.514 997.144C707.821 993.219 701.165 991.256 692.546 991.256Z" fill="#FFF066"/>
<path d="M692.798 836.497C682.618 826.317 666.113 826.317 655.933 836.497C645.753 846.677 645.753 863.182 655.933 873.362L689.112 906.541C691.148 908.577 694.449 908.577 696.485 906.541L729.664 873.362L729.66 873.359C739.474 863.152 739.352 846.923 729.295 836.866C719.238 826.809 703.008 826.687 692.802 836.501L692.798 836.497Z" fill="#FFF066"/>
<rect x="695.5" y="852" width="5" height="33" rx="2.5" transform="rotate(-180 695.5 852)" fill="#FFF066"/>
<path d="M377.876 546.255L410.844 513.287C411.318 512.813 412.086 512.813 412.56 513.287L445.739 546.466C454.357 555.084 454.357 569.057 445.739 577.675C437.121 586.293 423.148 586.293 414.53 577.675L414.527 577.671L411.753 574.898L408.926 577.616C400.287 585.923 386.547 585.819 378.034 577.306C369.52 568.793 369.417 555.053 377.723 546.414L377.876 546.255Z" stroke="#FFF066" stroke-width="8"/>
<rect x="409" y="565" width="5" height="33" rx="2.5" fill="#FFF066"/>
<path d="M209.876 708.255L242.844 675.287C243.318 674.813 244.086 674.813 244.56 675.287L277.739 708.466C286.357 717.084 286.357 731.057 277.739 739.675C269.121 748.293 255.148 748.293 246.53 739.675L246.527 739.671L243.753 736.898L240.926 739.616C232.287 747.923 218.547 747.819 210.034 739.306C201.52 730.793 201.417 717.053 209.723 708.414L209.876 708.255Z" stroke="#FFF066" stroke-width="8"/>
<rect x="241" y="727" width="5" height="33" rx="2.5" fill="#FFF066"/>
<path d="M373.876 708.255L406.844 675.287C407.318 674.813 408.086 674.813 408.56 675.287L441.739 708.466C450.357 717.084 450.357 731.057 441.739 739.675C433.121 748.293 419.148 748.293 410.53 739.675L410.527 739.671L407.753 736.898L404.926 739.616C396.287 747.923 382.547 747.819 374.034 739.306C365.52 730.793 365.417 717.053 373.723 708.414L373.876 708.255Z" stroke="#FFF066" stroke-width="8"/>
<rect x="405" y="727" width="5" height="33" rx="2.5" fill="#FFF066"/>
<path d="M545.876 708.255L578.844 675.287C579.318 674.813 580.086 674.813 580.56 675.287L613.739 708.466C622.357 717.084 622.357 731.057 613.739 739.675C605.121 748.293 591.148 748.293 582.53 739.675L582.527 739.671L579.753 736.898L576.926 739.616C568.287 747.923 554.547 747.819 546.034 739.306C537.52 730.793 537.417 717.053 545.723 708.414L545.876 708.255Z" stroke="#FFF066" stroke-width="8"/>
<rect x="577" y="727" width="5" height="33" rx="2.5" fill="#FFF066"/>
<path d="M545.876 546.255L578.844 513.287C579.318 512.813 580.086 512.813 580.56 513.287L613.739 546.466C622.357 555.084 622.357 569.057 613.739 577.675C605.121 586.293 591.148 586.293 582.53 577.675L582.527 577.671L579.753 574.898L576.926 577.616C568.287 585.923 554.547 585.819 546.034 577.306C537.52 568.793 537.417 555.053 545.723 546.414L545.876 546.255Z" stroke="#FFF066" stroke-width="8"/>
<rect x="577" y="565" width="5" height="33" rx="2.5" fill="#FFF066"/>
<path d="M209.876 546.255L242.844 513.287C243.318 512.813 244.086 512.813 244.56 513.287L277.739 546.466C286.357 555.084 286.357 569.057 277.739 577.675C269.121 586.293 255.148 586.293 246.53 577.675L246.527 577.671L243.753 574.898L240.926 577.616C232.287 585.923 218.547 585.819 210.034 577.306C201.52 568.793 201.417 555.053 209.723 546.414L209.876 546.255Z" stroke="#FFF066" stroke-width="8"/>
<rect x="241" y="565" width="5" height="33" rx="2.5" fill="#FFF066"/>
<path d="M545.876 384.255L578.844 351.287C579.318 350.813 580.086 350.813 580.56 351.287L613.739 384.466C622.357 393.084 622.357 407.057 613.739 415.675C605.121 424.293 591.148 424.293 582.53 415.675L582.527 415.671L579.753 412.898L576.926 415.616C568.287 423.923 554.547 423.819 546.034 415.306C537.52 406.793 537.417 393.053 545.723 384.414L545.876 384.255Z" stroke="#FFF066" stroke-width="8"/>
<rect x="577" y="403" width="5" height="33" rx="2.5" fill="#FFF066"/>
<path d="M209.876 384.255L242.844 351.287C243.318 350.813 244.086 350.813 244.56 351.287L277.739 384.466C286.357 393.084 286.357 407.057 277.739 415.675C269.121 424.293 255.148 424.293 246.53 415.675L246.527 415.671L243.753 412.898L240.926 415.616C232.287 423.923 218.547 423.819 210.034 415.306C201.52 406.793 201.417 393.053 209.723 384.414L209.876 384.255Z" stroke="#FFF066" stroke-width="8"/>
<rect x="241" y="403" width="5" height="33" rx="2.5" fill="#FFF066"/>
<path d="M377.876 384.255L410.844 351.287C411.318 350.813 412.086 350.813 412.56 351.287L445.739 384.466C454.357 393.084 454.357 407.057 445.739 415.675C437.121 424.293 423.148 424.293 414.53 415.675L414.527 415.671L411.753 412.898L408.926 415.616C400.287 423.923 386.547 423.819 378.034 415.306C369.52 406.793 369.417 393.053 377.723 384.414L377.876 384.255Z" stroke="#FFF066" stroke-width="8"/>
<rect x="409" y="403" width="5" height="33" rx="2.5" fill="#FFF066"/>
</svg>
