<svg width="822" height="1122" viewBox="0 0 822 1122" fill="none" xmlns="http://www.w3.org/2000/svg">
<path d="M0 20C0 8.9543 8.95431 0 20 0H802C813.046 0 822 8.9543 822 20V1102C822 1113.05 813.046 1122 802 1122H20C8.95432 1122 0 1113.05 0 1102V20Z" fill="#1A0033"/>
<path d="M101.998 159C101.4 159 101.102 158.744 101.102 158.232C101.102 157.805 101.272 157.293 101.614 156.696L143.726 78.232H92.1415C90.1788 78.232 89.1975 77.2933 89.1975 75.416V74.52C89.1975 73.5813 89.4108 72.9413 89.8375 72.6C90.3495 72.1733 91.1175 71.96 92.1415 71.96H149.998C151.875 71.96 152.814 72.8133 152.814 74.52C152.814 75.1173 152.6 75.8427 152.174 76.696C151.832 77.464 151.406 78.3173 150.894 79.256L108.654 158.232C108.483 158.573 108.27 158.787 108.014 158.872C107.843 158.957 107.544 159 107.118 159H101.998Z" fill="#B366FF"/>
<path d="M120.798 218.497C110.618 208.317 94.1128 208.317 83.9327 218.497C73.7526 228.677 73.7526 245.182 83.9327 255.362L117.112 288.541C119.148 290.577 122.449 290.577 124.485 288.541L157.664 255.362L157.66 255.359C167.474 245.152 167.352 228.923 157.295 218.866C147.238 208.809 131.008 208.687 120.802 218.501L120.798 218.497Z" fill="#B366FF"/>
<path d="M712.002 959C712.6 959 712.898 959.256 712.898 959.768C712.898 960.195 712.728 960.707 712.386 961.304L670.274 1039.77H721.858C723.821 1039.77 724.802 1040.71 724.802 1042.58V1043.48C724.802 1044.42 724.589 1045.06 724.162 1045.4C723.65 1045.83 722.882 1046.04 721.858 1046.04H664.002C662.125 1046.04 661.186 1045.19 661.186 1043.48C661.186 1042.88 661.4 1042.16 661.826 1041.3C662.168 1040.54 662.594 1039.68 663.106 1038.74L705.346 959.768C705.517 959.427 705.73 959.213 705.986 959.128C706.157 959.043 706.456 959 706.882 959H712.002Z" fill="#B366FF"/>
<path d="M693.202 899.503C703.382 909.683 719.887 909.683 730.067 899.503C740.247 889.323 740.247 872.818 730.067 862.638L696.888 829.459C694.852 827.423 691.551 827.423 689.515 829.459L656.336 862.638L656.34 862.641C646.526 872.848 646.648 889.077 656.705 899.134C666.762 909.191 682.992 909.313 693.198 899.499L693.202 899.503Z" fill="#B366FF"/>
<path d="M445.124 576.745L412.156 609.713C411.682 610.187 410.914 610.187 410.44 609.713L377.261 576.534C368.643 567.916 368.643 553.943 377.261 545.325C385.879 536.707 399.852 536.707 408.47 545.325L408.473 545.329L411.247 548.102L414.074 545.384C422.713 537.077 436.453 537.181 444.966 545.694C453.48 554.207 453.583 567.947 445.277 576.586L445.124 576.745Z" stroke="#B366FF" stroke-width="8"/>
<path d="M445.124 738.745L412.156 771.713C411.682 772.187 410.914 772.187 410.44 771.713L377.261 738.534C368.643 729.916 368.643 715.943 377.261 707.325C385.879 698.707 399.852 698.707 408.47 707.325L408.473 707.329L411.247 710.102L414.074 707.384C422.713 699.077 436.453 699.181 444.966 707.694C453.48 716.207 453.583 729.947 445.277 738.586L445.124 738.745Z" stroke="#B366FF" stroke-width="8"/>
<path d="M613.124 576.745L580.156 609.713C579.682 610.187 578.914 610.187 578.44 609.713L545.261 576.534C536.643 567.916 536.643 553.943 545.261 545.325C553.879 536.707 567.852 536.707 576.47 545.325L576.473 545.329L579.247 548.102L582.074 545.384C590.713 537.077 604.453 537.181 612.966 545.694C621.48 554.207 621.583 567.947 613.277 576.586L613.124 576.745Z" stroke="#B366FF" stroke-width="8"/>
<path d="M277.124 576.745L244.156 609.713C243.682 610.187 242.914 610.187 242.44 609.713L209.261 576.534C200.643 567.916 200.643 553.943 209.261 545.325C217.879 536.707 231.852 536.707 240.47 545.325L240.473 545.329L243.247 548.102L246.074 545.384C254.713 537.077 268.453 537.181 276.966 545.694C285.48 554.207 285.583 567.947 277.277 576.586L277.124 576.745Z" stroke="#B366FF" stroke-width="8"/>
<path d="M613.124 414.745L580.156 447.713C579.682 448.187 578.914 448.187 578.44 447.713L545.261 414.534C536.643 405.916 536.643 391.943 545.261 383.325C553.879 374.707 567.852 374.707 576.47 383.325L576.473 383.329L579.247 386.102L582.074 383.384C590.713 375.077 604.453 375.181 612.966 383.694C621.48 392.207 621.583 405.947 613.277 414.586L613.124 414.745Z" stroke="#B366FF" stroke-width="8"/>
<path d="M277.124 414.745L244.156 447.713C243.682 448.187 242.914 448.187 242.44 447.713L209.261 414.534C200.643 405.916 200.643 391.943 209.261 383.325C217.879 374.707 231.852 374.707 240.47 383.325L240.473 383.329L243.247 386.102L246.074 383.384C254.713 375.077 268.453 375.181 276.966 383.694C285.48 392.207 285.583 405.947 277.277 414.586L277.124 414.745Z" stroke="#B366FF" stroke-width="8"/>
<path d="M445.124 414.745L412.156 447.713C411.682 448.187 410.914 448.187 410.44 447.713L377.261 414.534C368.643 405.916 368.643 391.943 377.261 383.325C385.879 374.707 399.852 374.707 408.47 383.325L408.473 383.329L411.247 386.102L414.074 383.384C422.713 375.077 436.453 375.181 444.966 383.694C453.48 392.207 453.583 405.947 445.277 414.586L445.124 414.745Z" stroke="#B366FF" stroke-width="8"/>
</svg>
