<svg width="822" height="1122" viewBox="0 0 822 1122" fill="none" xmlns="http://www.w3.org/2000/svg">
<path d="M0 20C0 8.9543 8.95431 0 20 0H802C813.046 0 822 8.9543 822 20V1102C822 1113.05 813.046 1122 802 1122H20C8.95432 1122 0 1113.05 0 1102V20Z" fill="#1A0033"/>
<path d="M101.998 159C101.4 159 101.102 158.744 101.102 158.232C101.102 157.805 101.272 157.293 101.614 156.696L143.726 78.232H92.1415C90.1788 78.232 89.1975 77.2933 89.1975 75.416V74.52C89.1975 73.5813 89.4108 72.9413 89.8375 72.6C90.3495 72.1733 91.1175 71.96 92.1415 71.96H149.998C151.875 71.96 152.814 72.8133 152.814 74.52C152.814 75.1173 152.6 75.8427 152.174 76.696C151.832 77.464 151.406 78.3173 150.894 79.256L108.654 158.232C108.483 158.573 108.27 158.787 108.014 158.872C107.843 158.957 107.544 159 107.118 159H101.998Z" fill="#FFF066"/>
<path d="M121.202 281.503C131.382 291.683 147.887 291.683 158.067 281.503C168.247 271.323 168.247 254.818 158.067 244.638L124.888 211.459C122.852 209.423 119.551 209.423 117.515 211.459L84.3364 244.638L84.34 244.641C74.5265 254.848 74.6481 271.077 84.7051 281.134C94.762 291.191 110.992 291.313 121.198 281.499L121.202 281.503Z" fill="#FFF066"/>
<rect x="118.5" y="266" width="5" height="33" rx="2.5" fill="#FFF066"/>
<path d="M712.002 959C712.6 959 712.898 959.256 712.898 959.768C712.898 960.195 712.728 960.707 712.386 961.304L670.274 1039.77H721.858C723.821 1039.77 724.802 1040.71 724.802 1042.58V1043.48C724.802 1044.42 724.589 1045.06 724.162 1045.4C723.65 1045.83 722.882 1046.04 721.858 1046.04H664.002C662.125 1046.04 661.186 1045.19 661.186 1043.48C661.186 1042.88 661.4 1042.16 661.826 1041.3C662.168 1040.54 662.594 1039.68 663.106 1038.74L705.346 959.768C705.517 959.427 705.73 959.213 705.986 959.128C706.157 959.043 706.456 959 706.882 959H712.002Z" fill="#FFF066"/>
<path d="M692.798 836.497C682.618 826.317 666.113 826.317 655.933 836.497C645.753 846.677 645.753 863.182 655.933 873.362L689.112 906.541C691.148 908.577 694.449 908.577 696.485 906.541L729.664 873.362L729.66 873.359C739.474 863.152 739.352 846.923 729.295 836.866C719.238 826.809 703.008 826.687 692.802 836.501L692.798 836.497Z" fill="#FFF066"/>
<rect x="695.5" y="852" width="5" height="33" rx="2.5" transform="rotate(-180 695.5 852)" fill="#FFF066"/>
<path d="M377.876 546.255L410.844 513.287C411.318 512.813 412.086 512.813 412.56 513.287L445.739 546.466C454.357 555.084 454.357 569.057 445.739 577.675C437.121 586.293 423.148 586.293 414.53 577.675L414.527 577.671L411.753 574.898L408.926 577.616C400.287 585.923 386.547 585.819 378.034 577.306C369.52 568.793 369.417 555.053 377.723 546.414L377.876 546.255Z" stroke="#FFF066" stroke-width="8"/>
<rect x="409" y="565" width="5" height="33" rx="2.5" fill="#FFF066"/>
<path d="M377.876 708.255L410.844 675.287C411.318 674.813 412.086 674.813 412.56 675.287L445.739 708.466C454.357 717.084 454.357 731.057 445.739 739.675C437.121 748.293 423.148 748.293 414.53 739.675L414.527 739.671L411.753 736.898L408.926 739.616C400.287 747.923 386.547 747.819 378.034 739.306C369.52 730.793 369.417 717.053 377.723 708.414L377.876 708.255Z" stroke="#FFF066" stroke-width="8"/>
<rect x="409" y="727" width="5" height="33" rx="2.5" fill="#FFF066"/>
<path d="M545.876 546.255L578.844 513.287C579.318 512.813 580.086 512.813 580.56 513.287L613.739 546.466C622.357 555.084 622.357 569.057 613.739 577.675C605.121 586.293 591.148 586.293 582.53 577.675L582.527 577.671L579.753 574.898L576.926 577.616C568.287 585.923 554.547 585.819 546.034 577.306C537.52 568.793 537.417 555.053 545.723 546.414L545.876 546.255Z" stroke="#FFF066" stroke-width="8"/>
<rect x="577" y="565" width="5" height="33" rx="2.5" fill="#FFF066"/>
<path d="M209.876 546.255L242.844 513.287C243.318 512.813 244.086 512.813 244.56 513.287L277.739 546.466C286.357 555.084 286.357 569.057 277.739 577.675C269.121 586.293 255.148 586.293 246.53 577.675L246.527 577.671L243.753 574.898L240.926 577.616C232.287 585.923 218.547 585.819 210.034 577.306C201.52 568.793 201.417 555.053 209.723 546.414L209.876 546.255Z" stroke="#FFF066" stroke-width="8"/>
<rect x="241" y="565" width="5" height="33" rx="2.5" fill="#FFF066"/>
<path d="M545.876 384.255L578.844 351.287C579.318 350.813 580.086 350.813 580.56 351.287L613.739 384.466C622.357 393.084 622.357 407.057 613.739 415.675C605.121 424.293 591.148 424.293 582.53 415.675L582.527 415.671L579.753 412.898L576.926 415.616C568.287 423.923 554.547 423.819 546.034 415.306C537.52 406.793 537.417 393.053 545.723 384.414L545.876 384.255Z" stroke="#FFF066" stroke-width="8"/>
<rect x="577" y="403" width="5" height="33" rx="2.5" fill="#FFF066"/>
<path d="M209.876 384.255L242.844 351.287C243.318 350.813 244.086 350.813 244.56 351.287L277.739 384.466C286.357 393.084 286.357 407.057 277.739 415.675C269.121 424.293 255.148 424.293 246.53 415.675L246.527 415.671L243.753 412.898L240.926 415.616C232.287 423.923 218.547 423.819 210.034 415.306C201.52 406.793 201.417 393.053 209.723 384.414L209.876 384.255Z" stroke="#FFF066" stroke-width="8"/>
<rect x="241" y="403" width="5" height="33" rx="2.5" fill="#FFF066"/>
<path d="M377.876 384.255L410.844 351.287C411.318 350.813 412.086 350.813 412.56 351.287L445.739 384.466C454.357 393.084 454.357 407.057 445.739 415.675C437.121 424.293 423.148 424.293 414.53 415.675L414.527 415.671L411.753 412.898L408.926 415.616C400.287 423.923 386.547 423.819 378.034 415.306C369.52 406.793 369.417 393.053 377.723 384.414L377.876 384.255Z" stroke="#FFF066" stroke-width="8"/>
<rect x="409" y="403" width="5" height="33" rx="2.5" fill="#FFF066"/>
</svg>
