<svg width="822" height="1122" viewBox="0 0 822 1122" fill="none" xmlns="http://www.w3.org/2000/svg">
<path d="M0 20C0 8.9543 8.95431 0 20 0H802C813.046 0 822 8.9543 822 20V1102C822 1113.05 813.046 1122 802 1122H20C8.95432 1122 0 1113.05 0 1102V20Z" fill="#1A0033"/>
<path d="M101.998 159C101.4 159 101.102 158.744 101.102 158.232C101.102 157.805 101.272 157.293 101.614 156.696L143.726 78.232H92.1415C90.1788 78.232 89.1975 77.2933 89.1975 75.416V74.52C89.1975 73.5813 89.4108 72.9413 89.8375 72.6C90.3495 72.1733 91.1175 71.96 92.1415 71.96H149.998C151.875 71.96 152.814 72.8133 152.814 74.52C152.814 75.1173 152.6 75.8427 152.174 76.696C151.832 77.464 151.406 78.3173 150.894 79.256L108.654 158.232C108.483 158.573 108.27 158.787 108.014 158.872C107.843 158.957 107.544 159 107.118 159H101.998Z" fill="#FFF066"/>
<path d="M141.309 231.337C141.309 231.336 141.309 231.335 141.309 231.333C141.309 219.551 132.085 210 120.706 210C109.327 210 100.103 219.551 100.103 231.333C88.7243 231.333 79.5 240.885 79.5 252.667C79.5 264.449 88.7243 274 100.103 274C110.489 274 119.08 266.043 120.5 255.695C121.92 266.043 130.511 274 140.897 274C152.276 274 161.5 264.449 161.5 252.667C161.5 241.027 152.498 231.565 141.309 231.337Z" fill="#FFF066"/>
<rect x="118.5" y="251" width="5" height="33" rx="2.5" fill="#FFF066"/>
<path d="M712.002 959C712.6 959 712.898 959.256 712.898 959.768C712.898 960.195 712.728 960.707 712.386 961.304L670.274 1039.77H721.858C723.821 1039.77 724.802 1040.71 724.802 1042.58V1043.48C724.802 1044.42 724.589 1045.06 724.162 1045.4C723.65 1045.83 722.882 1046.04 721.858 1046.04H664.002C662.125 1046.04 661.186 1045.19 661.186 1043.48C661.186 1042.88 661.4 1042.16 661.826 1041.3C662.168 1040.54 662.594 1039.68 663.106 1038.74L705.346 959.768C705.517 959.427 705.73 959.213 705.986 959.128C706.157 959.043 706.456 959 706.882 959H712.002Z" fill="#FFF066"/>
<path d="M672.691 886.663C672.691 886.664 672.691 886.665 672.691 886.667C672.691 898.449 681.915 908 693.294 908C704.673 908 713.897 898.449 713.897 886.667C725.276 886.667 734.5 877.115 734.5 865.333C734.5 853.551 725.276 844 713.897 844C703.511 844 694.92 851.957 693.5 862.305C692.08 851.957 683.489 844 673.103 844C661.724 844 652.5 853.551 652.5 865.333C652.5 876.973 661.502 886.435 672.691 886.663Z" fill="#FFF066"/>
<rect x="695.5" y="867" width="5" height="33" rx="2.5" transform="rotate(-180 695.5 867)" fill="#FFF066"/>
<path d="M435.668 546.317V550.236L439.586 550.317C452.372 550.581 463 561.65 463 575.689C463 589.902 452.111 601.066 439.111 601.066C427.238 601.066 417.144 591.777 415.464 579.324H407.536C405.856 591.777 395.762 601.066 383.889 601.066C370.889 601.066 360 589.902 360 575.689C360 561.475 370.889 550.312 383.889 550.312H387.889V546.312C387.889 532.098 398.778 520.935 411.779 520.935C424.779 520.935 435.668 532.098 435.668 546.312V546.312V546.312V546.312V546.312V546.312V546.312V546.312V546.312V546.312V546.312V546.312V546.312V546.313V546.313V546.313V546.313V546.313V546.313V546.313V546.313V546.313V546.313V546.313V546.313V546.313V546.313V546.313V546.314V546.314V546.314V546.314V546.314V546.314V546.314V546.314V546.314V546.314V546.314V546.314V546.314V546.314V546.314V546.315V546.315V546.315V546.315V546.315V546.315V546.315V546.315V546.315V546.315V546.315V546.315V546.315V546.315V546.315V546.316V546.316V546.316V546.316V546.316V546.316V546.316V546.316V546.316V546.316V546.316V546.316V546.316V546.316V546.316V546.317V546.317V546.317V546.317V546.317V546.317V546.317V546.317V546.317V546.317V546.317V546.317V546.317Z" stroke="#FFF066" stroke-width="8"/>
<path d="M408.307 583.026C408.307 581.347 409.668 579.985 411.348 579.985C413.028 579.985 414.389 581.347 414.389 583.026V613.959C414.389 615.638 413.028 617 411.348 617C409.668 617 408.307 615.638 408.307 613.959V583.026Z" fill="#FFF066"/>
<path d="M435.668 708.317V712.236L439.586 712.317C452.372 712.581 463 723.65 463 737.689C463 751.902 452.111 763.066 439.111 763.066C427.238 763.066 417.144 753.777 415.464 741.324H407.536C405.856 753.777 395.762 763.066 383.889 763.066C370.889 763.066 360 751.902 360 737.689C360 723.475 370.889 712.312 383.889 712.312H387.889V708.312C387.889 694.098 398.778 682.935 411.779 682.935C424.779 682.935 435.668 694.098 435.668 708.312V708.312V708.312V708.312V708.312V708.312V708.312V708.312V708.312V708.312V708.312V708.312V708.312V708.313V708.313V708.313V708.313V708.313V708.313V708.313V708.313V708.313V708.313V708.313V708.313V708.313V708.313V708.313V708.314V708.314V708.314V708.314V708.314V708.314V708.314V708.314V708.314V708.314V708.314V708.314V708.314V708.314V708.314V708.315V708.315V708.315V708.315V708.315V708.315V708.315V708.315V708.315V708.315V708.315V708.315V708.315V708.315V708.315V708.316V708.316V708.316V708.316V708.316V708.316V708.316V708.316V708.316V708.316V708.316V708.316V708.316V708.316V708.316V708.317V708.317V708.317V708.317V708.317V708.317V708.317V708.317V708.317V708.317V708.317V708.317V708.317Z" stroke="#FFF066" stroke-width="8"/>
<path d="M408.307 745.026C408.307 743.347 409.668 741.985 411.348 741.985C413.028 741.985 414.389 743.347 414.389 745.026V775.959C414.389 777.638 413.028 779 411.348 779C409.668 779 408.307 777.638 408.307 775.959V745.026Z" fill="#FFF066"/>
<path d="M603.668 546.317V550.236L607.586 550.317C620.372 550.581 631 561.65 631 575.689C631 589.902 620.111 601.066 607.111 601.066C595.238 601.066 585.144 591.777 583.464 579.324H575.536C573.856 591.777 563.762 601.066 551.889 601.066C538.889 601.066 528 589.902 528 575.689C528 561.475 538.889 550.312 551.889 550.312H555.889V546.312C555.889 532.098 566.778 520.935 579.779 520.935C592.779 520.935 603.668 532.098 603.668 546.312V546.312V546.312V546.312V546.312V546.312V546.312V546.312V546.312V546.312V546.312V546.312V546.312V546.313V546.313V546.313V546.313V546.313V546.313V546.313V546.313V546.313V546.313V546.313V546.313V546.313V546.313V546.313V546.314V546.314V546.314V546.314V546.314V546.314V546.314V546.314V546.314V546.314V546.314V546.314V546.314V546.314V546.314V546.315V546.315V546.315V546.315V546.315V546.315V546.315V546.315V546.315V546.315V546.315V546.315V546.315V546.315V546.315V546.316V546.316V546.316V546.316V546.316V546.316V546.316V546.316V546.316V546.316V546.316V546.316V546.316V546.316V546.316V546.317V546.317V546.317V546.317V546.317V546.317V546.317V546.317V546.317V546.317V546.317V546.317V546.317Z" stroke="#FFF066" stroke-width="8"/>
<path d="M576.307 583.026C576.307 581.347 577.668 579.985 579.348 579.985C581.028 579.985 582.389 581.347 582.389 583.026V613.959C582.389 615.638 581.028 617 579.348 617C577.668 617 576.307 615.638 576.307 613.959V583.026Z" fill="#FFF066"/>
<path d="M267.668 546.317V550.236L271.586 550.317C284.372 550.581 295 561.65 295 575.689C295 589.902 284.111 601.066 271.111 601.066C259.238 601.066 249.144 591.777 247.464 579.324H239.536C237.856 591.777 227.762 601.066 215.889 601.066C202.889 601.066 192 589.902 192 575.689C192 561.475 202.889 550.312 215.889 550.312H219.889V546.312C219.889 532.098 230.778 520.935 243.779 520.935C256.779 520.935 267.668 532.098 267.668 546.312V546.312V546.312V546.312V546.312V546.312V546.312V546.312V546.312V546.312V546.312V546.312V546.312V546.313V546.313V546.313V546.313V546.313V546.313V546.313V546.313V546.313V546.313V546.313V546.313V546.313V546.313V546.313V546.314V546.314V546.314V546.314V546.314V546.314V546.314V546.314V546.314V546.314V546.314V546.314V546.314V546.314V546.314V546.315V546.315V546.315V546.315V546.315V546.315V546.315V546.315V546.315V546.315V546.315V546.315V546.315V546.315V546.315V546.316V546.316V546.316V546.316V546.316V546.316V546.316V546.316V546.316V546.316V546.316V546.316V546.316V546.316V546.316V546.317V546.317V546.317V546.317V546.317V546.317V546.317V546.317V546.317V546.317V546.317V546.317V546.317Z" stroke="#FFF066" stroke-width="8"/>
<path d="M240.307 583.026C240.307 581.347 241.668 579.985 243.348 579.985C245.028 579.985 246.389 581.347 246.389 583.026V613.959C246.389 615.638 245.028 617 243.348 617C241.668 617 240.307 615.638 240.307 613.959V583.026Z" fill="#FFF066"/>
<path d="M603.668 384.317V388.236L607.586 388.317C620.372 388.581 631 399.65 631 413.689C631 427.902 620.111 439.066 607.111 439.066C595.238 439.066 585.144 429.777 583.464 417.324H575.536C573.856 429.777 563.762 439.066 551.889 439.066C538.889 439.066 528 427.902 528 413.689C528 399.475 538.889 388.312 551.889 388.312H555.889V384.312C555.889 370.098 566.778 358.935 579.779 358.935C592.779 358.935 603.668 370.098 603.668 384.312V384.312V384.312V384.312V384.312V384.312V384.312V384.312V384.312V384.312V384.312V384.312V384.312V384.313V384.313V384.313V384.313V384.313V384.313V384.313V384.313V384.313V384.313V384.313V384.313V384.313V384.313V384.313V384.314V384.314V384.314V384.314V384.314V384.314V384.314V384.314V384.314V384.314V384.314V384.314V384.314V384.314V384.314V384.315V384.315V384.315V384.315V384.315V384.315V384.315V384.315V384.315V384.315V384.315V384.315V384.315V384.315V384.315V384.316V384.316V384.316V384.316V384.316V384.316V384.316V384.316V384.316V384.316V384.316V384.316V384.316V384.316V384.316V384.317V384.317V384.317V384.317V384.317V384.317V384.317V384.317V384.317V384.317V384.317V384.317V384.317Z" stroke="#FFF066" stroke-width="8"/>
<path d="M576.307 421.026C576.307 419.347 577.668 417.985 579.348 417.985C581.028 417.985 582.389 419.347 582.389 421.026V451.959C582.389 453.638 581.028 455 579.348 455C577.668 455 576.307 453.638 576.307 451.959V421.026Z" fill="#FFF066"/>
<path d="M267.668 384.317V388.236L271.586 388.317C284.372 388.581 295 399.65 295 413.689C295 427.902 284.111 439.066 271.111 439.066C259.238 439.066 249.144 429.777 247.464 417.324H239.536C237.856 429.777 227.762 439.066 215.889 439.066C202.889 439.066 192 427.902 192 413.689C192 399.475 202.889 388.312 215.889 388.312H219.889V384.312C219.889 370.098 230.778 358.935 243.779 358.935C256.779 358.935 267.668 370.098 267.668 384.312V384.312V384.312V384.312V384.312V384.312V384.312V384.312V384.312V384.312V384.312V384.312V384.312V384.313V384.313V384.313V384.313V384.313V384.313V384.313V384.313V384.313V384.313V384.313V384.313V384.313V384.313V384.313V384.314V384.314V384.314V384.314V384.314V384.314V384.314V384.314V384.314V384.314V384.314V384.314V384.314V384.314V384.314V384.315V384.315V384.315V384.315V384.315V384.315V384.315V384.315V384.315V384.315V384.315V384.315V384.315V384.315V384.315V384.316V384.316V384.316V384.316V384.316V384.316V384.316V384.316V384.316V384.316V384.316V384.316V384.316V384.316V384.316V384.317V384.317V384.317V384.317V384.317V384.317V384.317V384.317V384.317V384.317V384.317V384.317V384.317Z" stroke="#FFF066" stroke-width="8"/>
<path d="M240.307 421.026C240.307 419.347 241.668 417.985 243.348 417.985C245.028 417.985 246.389 419.347 246.389 421.026V451.959C246.389 453.638 245.028 455 243.348 455C241.668 455 240.307 453.638 240.307 451.959V421.026Z" fill="#FFF066"/>
<path d="M435.668 384.317V388.236L439.586 388.317C452.372 388.581 463 399.65 463 413.689C463 427.902 452.111 439.066 439.111 439.066C427.238 439.066 417.144 429.777 415.464 417.324H407.536C405.856 429.777 395.762 439.066 383.889 439.066C370.889 439.066 360 427.902 360 413.689C360 399.475 370.889 388.312 383.889 388.312H387.889V384.312C387.889 370.098 398.778 358.935 411.779 358.935C424.779 358.935 435.668 370.098 435.668 384.312V384.312V384.312V384.312V384.312V384.312V384.312V384.312V384.312V384.312V384.312V384.312V384.312V384.313V384.313V384.313V384.313V384.313V384.313V384.313V384.313V384.313V384.313V384.313V384.313V384.313V384.313V384.313V384.314V384.314V384.314V384.314V384.314V384.314V384.314V384.314V384.314V384.314V384.314V384.314V384.314V384.314V384.314V384.315V384.315V384.315V384.315V384.315V384.315V384.315V384.315V384.315V384.315V384.315V384.315V384.315V384.315V384.315V384.316V384.316V384.316V384.316V384.316V384.316V384.316V384.316V384.316V384.316V384.316V384.316V384.316V384.316V384.316V384.317V384.317V384.317V384.317V384.317V384.317V384.317V384.317V384.317V384.317V384.317V384.317V384.317Z" stroke="#FFF066" stroke-width="8"/>
<path d="M408.307 421.026C408.307 419.347 409.668 417.985 411.348 417.985C413.028 417.985 414.389 419.347 414.389 421.026V451.959C414.389 453.638 413.028 455 411.348 455C409.668 455 408.307 453.638 408.307 451.959V421.026Z" fill="#FFF066"/>
</svg>
