<svg width="822" height="1122" viewBox="0 0 822 1122" fill="none" xmlns="http://www.w3.org/2000/svg">
<path d="M0 20C0 8.9543 8.95431 0 20 0H802C813.046 0 822 8.9543 822 20V1102C822 1113.05 813.046 1122 802 1122H20C8.95432 1122 0 1113.05 0 1102V20Z" fill="#1A0033"/>
<path d="M120.57 160.92C110.586 160.92 102.522 157.848 96.378 151.704C90.3193 145.56 87.29 135.619 87.29 121.88C87.29 108.909 89.0393 98.584 92.538 90.904C96.0367 83.1387 100.474 77.72 105.85 74.648C111.226 71.576 117.029 70.04 123.258 70.04C128.037 70.04 132.346 70.552 136.186 71.576C140.111 72.6 143.397 74.008 146.042 75.8C146.554 76.1413 146.853 76.44 146.938 76.696C147.023 76.952 146.938 77.336 146.682 77.848L145.018 80.664C144.762 81.176 144.463 81.432 144.122 81.432C143.951 81.432 143.653 81.304 143.226 81.048C137.85 77.6347 131.151 75.928 123.13 75.928C115.109 75.928 108.623 78.9147 103.674 84.888C98.81 90.776 95.7807 99.224 94.586 110.232C97.4873 106.136 101.242 103.107 105.85 101.144C110.458 99.1813 116.005 98.2 122.49 98.2C128.719 98.2 134.266 99.352 139.13 101.656C143.994 103.96 147.791 107.373 150.522 111.896C153.338 116.333 154.746 121.667 154.746 127.896C154.746 138.733 151.717 146.968 145.658 152.6C139.685 158.147 131.322 160.92 120.57 160.92ZM120.57 155.032C138.917 155.032 148.09 145.987 148.09 127.896C148.09 119.96 145.743 114.029 141.05 110.104C136.442 106.179 129.871 104.216 121.338 104.216C117.327 104.216 113.189 105.112 108.922 106.904C104.741 108.611 101.242 111.171 98.426 114.584C95.61 117.997 94.202 122.051 94.202 126.744C94.202 136.216 96.6767 143.299 101.626 147.992C106.575 152.685 112.89 155.032 120.57 155.032Z" fill="#FFF066"/>
<path d="M121.202 281.503C131.382 291.683 147.887 291.683 158.067 281.503C168.247 271.323 168.247 254.818 158.067 244.638L124.888 211.459C122.852 209.423 119.551 209.423 117.515 211.459L84.3364 244.638L84.34 244.641C74.5265 254.848 74.6481 271.077 84.7051 281.134C94.762 291.191 110.992 291.313 121.198 281.499L121.202 281.503Z" fill="#FFF066"/>
<rect x="118.5" y="266" width="5" height="33" rx="2.5" fill="#FFF066"/>
<path d="M693.43 957.08C703.414 957.08 711.478 960.152 717.622 966.296C723.681 972.44 726.71 982.381 726.71 996.12C726.71 1009.09 724.961 1019.42 721.462 1027.1C717.963 1034.86 713.526 1040.28 708.15 1043.35C702.774 1046.42 696.971 1047.96 690.742 1047.96C685.963 1047.96 681.654 1047.45 677.814 1046.42C673.889 1045.4 670.603 1043.99 667.958 1042.2C667.446 1041.86 667.147 1041.56 667.062 1041.3C666.977 1041.05 667.062 1040.66 667.318 1040.15L668.982 1037.34C669.238 1036.82 669.537 1036.57 669.878 1036.57C670.049 1036.57 670.347 1036.7 670.774 1036.95C676.15 1040.37 682.849 1042.07 690.87 1042.07C698.891 1042.07 705.377 1039.09 710.326 1033.11C715.19 1027.22 718.219 1018.78 719.414 1007.77C716.513 1011.86 712.758 1014.89 708.15 1016.86C703.542 1018.82 697.995 1019.8 691.51 1019.8C685.281 1019.8 679.734 1018.65 674.87 1016.34C670.006 1014.04 666.209 1010.63 663.478 1006.1C660.662 1001.67 659.254 996.333 659.254 990.104C659.254 979.267 662.283 971.032 668.342 965.4C674.315 959.853 682.678 957.08 693.43 957.08ZM693.43 962.968C675.083 962.968 665.91 972.013 665.91 990.104C665.91 998.04 668.257 1003.97 672.95 1007.9C677.558 1011.82 684.129 1013.78 692.662 1013.78C696.673 1013.78 700.811 1012.89 705.078 1011.1C709.259 1009.39 712.758 1006.83 715.574 1003.42C718.39 1000 719.798 995.949 719.798 991.256C719.798 981.784 717.323 974.701 712.374 970.008C707.425 965.315 701.11 962.968 693.43 962.968Z" fill="#FFF066"/>
<path d="M692.798 836.497C682.618 826.317 666.113 826.317 655.933 836.497C645.753 846.677 645.753 863.182 655.933 873.362L689.112 906.541C691.148 908.577 694.449 908.577 696.485 906.541L729.664 873.362L729.66 873.359C739.474 863.152 739.352 846.923 729.295 836.866C719.238 826.809 703.008 826.687 692.802 836.501L692.798 836.497Z" fill="#FFF066"/>
<rect x="695.5" y="852" width="5" height="33" rx="2.5" transform="rotate(-180 695.5 852)" fill="#FFF066"/>
<path d="M377.876 627.255L410.844 594.287C411.318 593.813 412.086 593.813 412.56 594.287L445.739 627.466C454.357 636.084 454.357 650.057 445.739 658.675C437.121 667.293 423.148 667.293 414.53 658.675L414.527 658.671L411.753 655.898L408.926 658.616C400.287 666.923 386.547 666.819 378.034 658.306C369.52 649.793 369.417 636.053 377.723 627.414L377.876 627.255Z" stroke="#FFF066" stroke-width="8"/>
<rect x="409" y="646" width="5" height="33" rx="2.5" fill="#FFF066"/>
<path d="M545.876 627.255L578.844 594.287C579.318 593.813 580.086 593.813 580.56 594.287L613.739 627.466C622.357 636.084 622.357 650.057 613.739 658.675C605.121 667.293 591.148 667.293 582.53 658.675L582.527 658.671L579.753 655.898L576.926 658.616C568.287 666.923 554.547 666.819 546.034 658.306C537.52 649.793 537.417 636.053 545.723 627.414L545.876 627.255Z" stroke="#FFF066" stroke-width="8"/>
<rect x="577" y="646" width="5" height="33" rx="2.5" fill="#FFF066"/>
<path d="M209.876 627.255L242.844 594.287C243.318 593.813 244.086 593.813 244.56 594.287L277.739 627.466C286.357 636.084 286.357 650.057 277.739 658.675C269.121 667.293 255.148 667.293 246.53 658.675L246.527 658.671L243.753 655.898L240.926 658.616C232.287 666.923 218.547 666.819 210.034 658.306C201.52 649.793 201.417 636.053 209.723 627.414L209.876 627.255Z" stroke="#FFF066" stroke-width="8"/>
<rect x="241" y="646" width="5" height="33" rx="2.5" fill="#FFF066"/>
<path d="M545.876 465.255L578.844 432.287C579.318 431.813 580.086 431.813 580.56 432.287L613.739 465.466C622.357 474.084 622.357 488.057 613.739 496.675C605.121 505.293 591.148 505.293 582.53 496.675L582.527 496.671L579.753 493.898L576.926 496.616C568.287 504.923 554.547 504.819 546.034 496.306C537.52 487.793 537.417 474.053 545.723 465.414L545.876 465.255Z" stroke="#FFF066" stroke-width="8"/>
<rect x="577" y="484" width="5" height="33" rx="2.5" fill="#FFF066"/>
<path d="M209.876 465.255L242.844 432.287C243.318 431.813 244.086 431.813 244.56 432.287L277.739 465.466C286.357 474.084 286.357 488.057 277.739 496.675C269.121 505.293 255.148 505.293 246.53 496.675L246.527 496.671L243.753 493.898L240.926 496.616C232.287 504.923 218.547 504.819 210.034 496.306C201.52 487.793 201.417 474.053 209.723 465.414L209.876 465.255Z" stroke="#FFF066" stroke-width="8"/>
<rect x="241" y="484" width="5" height="33" rx="2.5" fill="#FFF066"/>
<path d="M377.876 465.255L410.844 432.287C411.318 431.813 412.086 431.813 412.56 432.287L445.739 465.466C454.357 474.084 454.357 488.057 445.739 496.675C437.121 505.293 423.148 505.293 414.53 496.675L414.527 496.671L411.753 493.898L408.926 496.616C400.287 504.923 386.547 504.819 378.034 496.306C369.52 487.793 369.417 474.053 377.723 465.414L377.876 465.255Z" stroke="#FFF066" stroke-width="8"/>
<rect x="409" y="484" width="5" height="33" rx="2.5" fill="#FFF066"/>
</svg>
