<svg width="374" height="446" viewBox="0 0 374 446" fill="none" xmlns="http://www.w3.org/2000/svg">
<mask id="mask0_45_1114" style="mask-type:alpha" maskUnits="userSpaceOnUse" x="27" y="32" width="323" height="323">
<mask id="path-1-inside-1_45_1114" fill="white">
<path fill-rule="evenodd" clip-rule="evenodd" d="M178 300.057C140.97 327.152 88.6776 323.99 55.2108 290.569C18.6933 254.103 18.2515 195.253 53.8852 158.244L53.8721 158.231L174.347 37.9243C181.74 30.5416 193.726 30.5416 201.119 37.9243L321.594 158.231C358.559 195.145 358.559 254.993 321.594 291.906C287.273 326.179 233.153 328.63 196 299.26V346C196 350.971 191.971 355 187 355C182.029 355 178 350.971 178 346V300.057Z"/>
</mask>
<path fill-rule="evenodd" clip-rule="evenodd" d="M178 300.057C140.97 327.152 88.6776 323.99 55.2108 290.569C18.6933 254.103 18.2515 195.253 53.8852 158.244L53.8721 158.231L174.347 37.9243C181.74 30.5416 193.726 30.5416 201.119 37.9243L321.594 158.231C358.559 195.145 358.559 254.993 321.594 291.906C287.273 326.179 233.153 328.63 196 299.26V346C196 350.971 191.971 355 187 355C182.029 355 178 350.971 178 346V300.057Z" fill="#FFF066"/>
<path d="M55.2108 290.569L55.9174 289.862L55.2108 290.569ZM178 300.057H179V298.086L177.409 299.25L178 300.057ZM53.8852 158.244L54.6056 158.938L55.2866 158.231L54.5919 157.537L53.8852 158.244ZM53.8721 158.231L53.1655 157.524L52.457 158.231L53.1654 158.939L53.8721 158.231ZM174.347 37.9243L175.054 38.6319L174.347 37.9243ZM201.119 37.9243L200.412 38.6319L201.119 37.9243ZM321.594 158.231L320.887 158.939L321.594 158.231ZM321.594 291.906L322.3 292.614L321.594 291.906ZM196 299.26L196.62 298.475L195 297.195V299.26H196ZM196 346H197H196ZM178 346H179H178ZM54.5042 291.277C88.3251 325.051 141.169 328.246 178.591 300.864L177.409 299.25C140.771 326.058 89.03 322.928 55.9174 289.862L54.5042 291.277ZM53.1648 157.551C17.1537 194.951 17.6002 254.424 54.5042 291.277L55.9174 289.862C19.7864 253.781 19.3492 195.554 54.6056 158.938L53.1648 157.551ZM53.1654 158.939L53.1785 158.952L54.5919 157.537L54.5788 157.524L53.1654 158.939ZM173.64 37.2166L53.1655 157.524L54.5787 158.939L175.054 38.6319L173.64 37.2166ZM201.826 37.2166C194.042 29.4442 181.424 29.4442 173.64 37.2166L175.054 38.6319C182.056 31.6391 193.41 31.6391 200.412 38.6319L201.826 37.2166ZM322.3 157.524L201.826 37.2166L200.412 38.6319L320.887 158.939L322.3 157.524ZM322.3 292.614C359.656 255.31 359.656 194.828 322.3 157.524L320.887 158.939C357.461 195.462 357.461 254.676 320.887 291.198L322.3 292.614ZM195.38 300.044C232.926 329.726 287.617 327.249 322.3 292.614L320.887 291.198C286.929 325.109 233.38 327.535 196.62 298.475L195.38 300.044ZM195 299.26V346H197V299.26H195ZM195 346C195 350.418 191.418 354 187 354V356C192.523 356 197 351.523 197 346H195ZM187 354C182.582 354 179 350.418 179 346H177C177 351.523 181.477 356 187 356V354ZM179 346V300.057H177V346H179Z" fill="black" mask="url(#path-1-inside-1_45_1114)"/>
</mask>
<g mask="url(#mask0_45_1114)">
<path fill-rule="evenodd" clip-rule="evenodd" d="M-10 -0.392841L3.04037 -14.2198C17.0839 -28.0468 44.1677 -55.7007 71.2516 -36.343C97.3323 -19.7506 124.416 43.8535 151.5 43.8535C178.584 43.8535 205.668 -19.7506 232.752 -22.516C258.832 -28.0468 285.916 24.4957 299.96 52.1496L313 79.8036V160H299.96C285.916 160 258.832 160 232.752 160C205.668 160 178.584 160 151.5 160C124.416 160 97.3323 160 71.2516 160C44.1677 160 17.0839 160 3.04037 160H-10V-0.392841Z" fill="#E6CF00"/>
<path fill-rule="evenodd" clip-rule="evenodd" d="M6 218.6L22.7143 193.04C40.7143 164.639 75.4286 110.679 110.143 90.7987C143.571 73.7585 178.286 90.7987 213 119.199C247.714 144.759 282.429 181.679 317.143 195.88C350.571 210.08 385.286 201.56 403.286 195.88L420 193.04V247H403.286C385.286 247 350.571 247 317.143 247C282.429 247 247.714 247 213 247C178.286 247 143.571 247 110.143 247C75.4286 247 40.7143 247 22.7143 247H6V218.6Z" fill="#FFE81A"/>
<path fill-rule="evenodd" clip-rule="evenodd" d="M-86 249.26L-67.4286 252.808C-47.4286 256.356 -8.85714 261.678 29.7143 249.26C66.8571 238.616 105.429 210.232 144 183.622C182.571 158.786 221.143 135.724 259.714 126.854C296.857 117.984 335.429 123.306 355.429 126.854L374 128.628V267H355.429C335.429 267 296.857 267 259.714 267C221.143 267 182.571 267 144 267C105.429 267 66.8571 267 29.7143 267C-8.85714 267 -47.4286 267 -67.4286 267H-86V249.26Z" fill="#FFF066"/>
<path fill-rule="evenodd" clip-rule="evenodd" d="M-17 301L-0.447205 292.585C17.3789 284.17 51.7578 269.023 86.1367 248.826C119.242 230.313 153.621 208.434 188 194.97C222.379 181.506 256.758 176.457 291.137 189.921C324.242 203.385 358.621 235.362 376.447 252.192L393 269.023V301H376.447C358.621 301 324.242 301 291.137 301C256.758 301 222.379 301 188 301C153.621 301 119.242 301 86.1367 301C51.7578 301 17.3789 301 -0.447205 301H-17Z" fill="#FFF599"/>
<path fill-rule="evenodd" clip-rule="evenodd" d="M27 224.5L40.3634 242.5C54.7547 260.5 82.5093 296.5 109.236 301C136.991 303.25 164.745 274 192.5 249.25C220.255 224.5 248.009 202 274.736 202C302.491 202 330.245 224.5 343.609 235.75L358 247V355H343.609C330.245 355 302.491 355 274.736 355C248.009 355 220.255 355 192.5 355C164.745 355 136.991 355 109.236 355C82.5093 355 54.7547 355 40.3634 355H27V224.5Z" fill="#FFFACC"/>
</g>
</svg>
