<svg width="822" height="1122" viewBox="0 0 822 1122" fill="none" xmlns="http://www.w3.org/2000/svg">
<path d="M0 20C0 8.9543 8.95431 0 20 0H802C813.046 0 822 8.9543 822 20V1102C822 1113.05 813.046 1122 802 1122H20C8.95432 1122 0 1113.05 0 1102V20Z" fill="#1A0033"/>
<path d="M56.5765 159C55.5525 159 54.7845 158.829 54.2725 158.488C53.8458 158.061 53.6325 157.379 53.6325 156.44V155.544C53.6325 153.667 54.6138 152.728 56.5765 152.728H72.1925V80.408L57.3445 89.368C56.5765 89.88 55.8938 90.136 55.2965 90.136C54.6138 90.136 54.0165 89.6667 53.5045 88.728L52.9925 87.96C52.6512 87.3627 52.4805 86.808 52.4805 86.296C52.4805 85.3573 52.9925 84.5893 54.0165 83.992L72.9605 72.6C73.6432 72.1733 74.4538 71.96 75.3925 71.96H76.1605C78.1232 71.96 79.1045 72.9413 79.1045 74.904V152.728H94.7205C96.6832 152.728 97.6645 153.667 97.6645 155.544V156.44C97.6645 157.379 97.4085 158.061 96.8965 158.488C96.4698 158.829 95.7445 159 94.7205 159H56.5765ZM149.42 160.92C136.278 160.92 126.294 156.995 119.468 149.144C112.641 141.208 109.228 129.987 109.228 115.48C109.228 100.973 112.641 89.7947 119.468 81.944C126.294 74.008 136.278 70.04 149.42 70.04C162.561 70.04 172.545 74.008 179.372 81.944C186.198 89.7947 189.612 100.973 189.612 115.48C189.612 129.987 186.198 141.208 179.372 149.144C172.545 156.995 162.561 160.92 149.42 160.92ZM169.9 81.688C164.609 77.848 157.782 75.928 149.42 75.928C138.412 75.928 130.049 79.2987 124.332 86.04C118.7 92.696 115.884 102.509 115.884 115.48C115.884 128.792 118.828 138.776 124.716 145.432L169.9 81.688ZM149.42 155.032C160.428 155.032 168.748 151.704 174.38 145.048C180.097 138.307 182.956 128.451 182.956 115.48C182.956 102.68 180.14 92.8667 174.507 86.04L129.452 149.656C134.572 153.24 141.228 155.032 149.42 155.032Z" fill="#B366FF"/>
<path d="M120.798 218.497C110.618 208.317 94.1128 208.317 83.9327 218.497C73.7526 228.677 73.7526 245.182 83.9327 255.362L117.112 288.541C119.148 290.577 122.449 290.577 124.485 288.541L157.664 255.362L157.66 255.359C167.474 245.152 167.352 228.923 157.295 218.866C147.238 208.809 131.008 208.687 120.802 218.501L120.798 218.497Z" fill="#B366FF"/>
<path d="M757.423 959C758.447 959 759.215 959.171 759.727 959.512C760.154 959.939 760.367 960.621 760.367 961.56V962.456C760.367 964.333 759.386 965.272 757.423 965.272H741.807V1037.59L756.655 1028.63C757.423 1028.12 758.106 1027.86 758.703 1027.86C759.386 1027.86 759.983 1028.33 760.495 1029.27L761.007 1030.04C761.349 1030.64 761.519 1031.19 761.519 1031.7C761.519 1032.64 761.007 1033.41 759.983 1034.01L741.039 1045.4C740.357 1045.83 739.546 1046.04 738.607 1046.04H737.839C735.877 1046.04 734.896 1045.06 734.896 1043.1V965.272H719.279C717.317 965.272 716.335 964.333 716.335 962.456V961.56C716.335 960.621 716.591 959.939 717.103 959.512C717.53 959.171 718.255 959 719.279 959H757.423ZM664.58 957.08C677.722 957.08 687.706 961.005 694.532 968.856C701.359 976.792 704.772 988.013 704.772 1002.52C704.772 1017.03 701.359 1028.21 694.532 1036.06C687.706 1043.99 677.722 1047.96 664.58 1047.96C651.439 1047.96 641.455 1043.99 634.628 1036.06C627.802 1028.21 624.388 1017.03 624.388 1002.52C624.388 988.013 627.802 976.792 634.628 968.856C641.455 961.005 651.439 957.08 664.58 957.08ZM644.1 1036.31C649.391 1040.15 656.218 1042.07 664.58 1042.07C675.588 1042.07 683.951 1038.7 689.668 1031.96C695.3 1025.3 698.116 1015.49 698.116 1002.52C698.116 989.208 695.172 979.224 689.284 972.568L644.1 1036.31ZM664.58 962.968C653.572 962.968 645.252 966.296 639.62 972.952C633.903 979.693 631.044 989.549 631.044 1002.52C631.044 1015.32 633.86 1025.13 639.493 1031.96L684.548 968.344C679.428 964.76 672.772 962.968 664.58 962.968Z" fill="#B366FF"/>
<path d="M693.202 899.503C703.382 909.683 719.887 909.683 730.067 899.503C740.247 889.323 740.247 872.818 730.067 862.638L696.888 829.459C694.852 827.423 691.551 827.423 689.515 829.459L656.336 862.638L656.34 862.641C646.526 872.848 646.648 889.077 656.705 899.134C666.762 909.191 682.992 909.313 693.198 899.499L693.202 899.503Z" fill="#B366FF"/>
<path d="M445.124 495.745L412.156 528.713C411.682 529.187 410.914 529.187 410.44 528.713L377.261 495.534C368.643 486.916 368.643 472.943 377.261 464.325C385.879 455.707 399.852 455.707 408.47 464.325L408.473 464.329L411.247 467.102L414.074 464.384C422.713 456.077 436.453 456.181 444.966 464.694C453.48 473.207 453.583 486.947 445.277 495.586L445.124 495.745Z" stroke="#B366FF" stroke-width="8"/>
<path d="M277.124 657.745L244.156 690.713C243.682 691.187 242.914 691.187 242.44 690.713L209.261 657.534C200.643 648.916 200.643 634.943 209.261 626.325C217.879 617.707 231.852 617.707 240.47 626.325L240.473 626.329L243.247 629.102L246.074 626.384C254.713 618.077 268.453 618.181 276.966 626.694C285.48 635.207 285.583 648.947 277.277 657.586L277.124 657.745Z" stroke="#B366FF" stroke-width="8"/>
<path d="M441.124 657.745L408.156 690.713C407.682 691.187 406.914 691.187 406.44 690.713L373.261 657.534C364.643 648.916 364.643 634.943 373.261 626.325C381.879 617.707 395.852 617.707 404.47 626.325L404.473 626.329L407.247 629.102L410.074 626.384C418.713 618.077 432.453 618.181 440.966 626.694C449.48 635.207 449.583 648.947 441.277 657.586L441.124 657.745Z" stroke="#B366FF" stroke-width="8"/>
<path d="M445.124 819.745L412.156 852.713C411.682 853.187 410.914 853.187 410.44 852.713L377.261 819.534C368.643 810.916 368.643 796.943 377.261 788.325C385.879 779.707 399.852 779.707 408.47 788.325L408.473 788.329L411.247 791.102L414.074 788.384C422.713 780.077 436.453 780.181 444.966 788.694C453.48 797.207 453.583 810.947 445.277 819.586L445.124 819.745Z" stroke="#B366FF" stroke-width="8"/>
<path d="M613.124 657.745L580.156 690.713C579.682 691.187 578.914 691.187 578.44 690.713L545.261 657.534C536.643 648.916 536.643 634.943 545.261 626.325C553.879 617.707 567.852 617.707 576.47 626.325L576.473 626.329L579.247 629.102L582.074 626.384C590.713 618.077 604.453 618.181 612.966 626.694C621.48 635.207 621.583 648.947 613.277 657.586L613.124 657.745Z" stroke="#B366FF" stroke-width="8"/>
<path d="M613.124 495.745L580.156 528.713C579.682 529.187 578.914 529.187 578.44 528.713L545.261 495.534C536.643 486.916 536.643 472.943 545.261 464.325C553.879 455.707 567.852 455.707 576.47 464.325L576.473 464.329L579.247 467.102L582.074 464.384C590.713 456.077 604.453 456.181 612.966 464.694C621.48 473.207 621.583 486.947 613.277 495.586L613.124 495.745Z" stroke="#B366FF" stroke-width="8"/>
<path d="M277.124 495.745L244.156 528.713C243.682 529.187 242.914 529.187 242.44 528.713L209.261 495.534C200.643 486.916 200.643 472.943 209.261 464.325C217.879 455.707 231.852 455.707 240.47 464.325L240.473 464.329L243.247 467.102L246.074 464.384C254.713 456.077 268.453 456.181 276.966 464.694C285.48 473.207 285.583 486.947 277.277 495.586L277.124 495.745Z" stroke="#B366FF" stroke-width="8"/>
<path d="M613.124 333.745L580.156 366.713C579.682 367.187 578.914 367.187 578.44 366.713L545.261 333.534C536.643 324.916 536.643 310.943 545.261 302.325C553.879 293.707 567.852 293.707 576.47 302.325L576.473 302.329L579.247 305.102L582.074 302.384C590.713 294.077 604.453 294.181 612.966 302.694C621.48 311.207 621.583 324.947 613.277 333.586L613.124 333.745Z" stroke="#B366FF" stroke-width="8"/>
<path d="M277.124 333.745L244.156 366.713C243.682 367.187 242.914 367.187 242.44 366.713L209.261 333.534C200.643 324.916 200.643 310.943 209.261 302.325C217.879 293.707 231.852 293.707 240.47 302.325L240.473 302.329L243.247 305.102L246.074 302.384C254.713 294.077 268.453 294.181 276.966 302.694C285.48 311.207 285.583 324.947 277.277 333.586L277.124 333.745Z" stroke="#B366FF" stroke-width="8"/>
<path d="M445.124 333.745L412.156 366.713C411.682 367.187 410.914 367.187 410.44 366.713L377.261 333.534C368.643 324.916 368.643 310.943 377.261 302.325C385.879 293.707 399.852 293.707 408.47 302.325L408.473 302.329L411.247 305.102L414.074 302.384C422.713 294.077 436.453 294.181 444.966 302.694C453.48 311.207 453.583 324.947 445.277 333.586L445.124 333.745Z" stroke="#B366FF" stroke-width="8"/>
</svg>
