<svg width="822" height="1122" viewBox="0 0 822 1122" fill="none" xmlns="http://www.w3.org/2000/svg">
<path d="M0 20C0 8.9543 8.95431 0 20 0H802C813.046 0 822 8.9543 822 20V1102C822 1113.05 813.046 1122 802 1122H20C8.95432 1122 0 1113.05 0 1102V20Z" fill="#1A0033"/>
<path d="M56.5765 159C55.5525 159 54.7845 158.829 54.2725 158.488C53.8458 158.061 53.6325 157.379 53.6325 156.44V155.544C53.6325 153.667 54.6138 152.728 56.5765 152.728H72.1925V80.408L57.3445 89.368C56.5765 89.88 55.8938 90.136 55.2965 90.136C54.6138 90.136 54.0165 89.6667 53.5045 88.728L52.9925 87.96C52.6512 87.3627 52.4805 86.808 52.4805 86.296C52.4805 85.3573 52.9925 84.5893 54.0165 83.992L72.9605 72.6C73.6432 72.1733 74.4538 71.96 75.3925 71.96H76.1605C78.1232 71.96 79.1045 72.9413 79.1045 74.904V152.728H94.7205C96.6832 152.728 97.6645 153.667 97.6645 155.544V156.44C97.6645 157.379 97.4085 158.061 96.8965 158.488C96.4698 158.829 95.7445 159 94.7205 159H56.5765ZM149.42 160.92C136.278 160.92 126.294 156.995 119.468 149.144C112.641 141.208 109.228 129.987 109.228 115.48C109.228 100.973 112.641 89.7947 119.468 81.944C126.294 74.008 136.278 70.04 149.42 70.04C162.561 70.04 172.545 74.008 179.372 81.944C186.198 89.7947 189.612 100.973 189.612 115.48C189.612 129.987 186.198 141.208 179.372 149.144C172.545 156.995 162.561 160.92 149.42 160.92ZM169.9 81.688C164.609 77.848 157.782 75.928 149.42 75.928C138.412 75.928 130.049 79.2987 124.332 86.04C118.7 92.696 115.884 102.509 115.884 115.48C115.884 128.792 118.828 138.776 124.716 145.432L169.9 81.688ZM149.42 155.032C160.428 155.032 168.748 151.704 174.38 145.048C180.097 138.307 182.956 128.451 182.956 115.48C182.956 102.68 180.14 92.8667 174.507 86.04L129.452 149.656C134.572 153.24 141.228 155.032 149.42 155.032Z" fill="#FFF066"/>
<path d="M121.202 281.503C131.382 291.683 147.887 291.683 158.067 281.503C168.247 271.323 168.247 254.818 158.067 244.638L124.888 211.459C122.852 209.423 119.551 209.423 117.515 211.459L84.3364 244.638L84.34 244.641C74.5265 254.848 74.6481 271.077 84.7051 281.134C94.762 291.191 110.992 291.313 121.198 281.499L121.202 281.503Z" fill="#FFF066"/>
<rect x="118.5" y="266" width="5" height="33" rx="2.5" fill="#FFF066"/>
<path d="M757.423 959C758.447 959 759.215 959.171 759.727 959.512C760.154 959.939 760.367 960.621 760.367 961.56V962.456C760.367 964.333 759.386 965.272 757.423 965.272H741.807V1037.59L756.655 1028.63C757.423 1028.12 758.106 1027.86 758.703 1027.86C759.386 1027.86 759.983 1028.33 760.495 1029.27L761.007 1030.04C761.349 1030.64 761.519 1031.19 761.519 1031.7C761.519 1032.64 761.007 1033.41 759.983 1034.01L741.039 1045.4C740.357 1045.83 739.546 1046.04 738.607 1046.04H737.839C735.877 1046.04 734.896 1045.06 734.896 1043.1V965.272H719.279C717.317 965.272 716.335 964.333 716.335 962.456V961.56C716.335 960.621 716.591 959.939 717.103 959.512C717.53 959.171 718.255 959 719.279 959H757.423ZM664.58 957.08C677.722 957.08 687.706 961.005 694.532 968.856C701.359 976.792 704.772 988.013 704.772 1002.52C704.772 1017.03 701.359 1028.21 694.532 1036.06C687.706 1043.99 677.722 1047.96 664.58 1047.96C651.439 1047.96 641.455 1043.99 634.628 1036.06C627.802 1028.21 624.388 1017.03 624.388 1002.52C624.388 988.013 627.802 976.792 634.628 968.856C641.455 961.005 651.439 957.08 664.58 957.08ZM644.1 1036.31C649.391 1040.15 656.218 1042.07 664.58 1042.07C675.588 1042.07 683.951 1038.7 689.668 1031.96C695.3 1025.3 698.116 1015.49 698.116 1002.52C698.116 989.208 695.172 979.224 689.284 972.568L644.1 1036.31ZM664.58 962.968C653.572 962.968 645.252 966.296 639.62 972.952C633.903 979.693 631.044 989.549 631.044 1002.52C631.044 1015.32 633.86 1025.13 639.493 1031.96L684.548 968.344C679.428 964.76 672.772 962.968 664.58 962.968Z" fill="#FFF066"/>
<path d="M692.798 836.497C682.618 826.317 666.113 826.317 655.933 836.497C645.753 846.677 645.753 863.182 655.933 873.362L689.112 906.541C691.148 908.577 694.449 908.577 696.485 906.541L729.664 873.362L729.66 873.359C739.474 863.152 739.352 846.923 729.295 836.866C719.238 826.809 703.008 826.687 692.802 836.501L692.798 836.497Z" fill="#FFF066"/>
<rect x="695.5" y="852" width="5" height="33" rx="2.5" transform="rotate(-180 695.5 852)" fill="#FFF066"/>
<path d="M377.876 465.255L410.844 432.287C411.318 431.813 412.086 431.813 412.56 432.287L445.739 465.466C454.357 474.084 454.357 488.057 445.739 496.675C437.121 505.293 423.148 505.293 414.53 496.675L414.527 496.671L411.753 493.898L408.926 496.616C400.287 504.923 386.547 504.819 378.034 496.306C369.52 487.793 369.417 474.053 377.723 465.414L377.876 465.255Z" stroke="#FFF066" stroke-width="8"/>
<rect x="409" y="484" width="5" height="33" rx="2.5" fill="#FFF066"/>
<path d="M209.876 627.255L242.844 594.287C243.318 593.813 244.086 593.813 244.56 594.287L277.739 627.466C286.357 636.084 286.357 650.057 277.739 658.675C269.121 667.293 255.148 667.293 246.53 658.675L246.527 658.671L243.753 655.898L240.926 658.616C232.287 666.923 218.547 666.819 210.034 658.306C201.52 649.793 201.417 636.053 209.723 627.414L209.876 627.255Z" stroke="#FFF066" stroke-width="8"/>
<rect x="241" y="646" width="5" height="33" rx="2.5" fill="#FFF066"/>
<path d="M373.876 627.255L406.844 594.287C407.318 593.813 408.086 593.813 408.56 594.287L441.739 627.466C450.357 636.084 450.357 650.057 441.739 658.675C433.121 667.293 419.148 667.293 410.53 658.675L410.527 658.671L407.753 655.898L404.926 658.616C396.287 666.923 382.547 666.819 374.034 658.306C365.52 649.793 365.417 636.053 373.723 627.414L373.876 627.255Z" stroke="#FFF066" stroke-width="8"/>
<rect x="405" y="646" width="5" height="33" rx="2.5" fill="#FFF066"/>
<path d="M377.876 789.255L410.844 756.287C411.318 755.813 412.086 755.813 412.56 756.287L445.739 789.466C454.357 798.084 454.357 812.057 445.739 820.675C437.121 829.293 423.148 829.293 414.53 820.675L414.527 820.671L411.753 817.898L408.926 820.616C400.287 828.923 386.547 828.819 378.034 820.306C369.52 811.793 369.417 798.053 377.723 789.414L377.876 789.255Z" stroke="#FFF066" stroke-width="8"/>
<rect x="409" y="808" width="5" height="33" rx="2.5" fill="#FFF066"/>
<path d="M545.876 627.255L578.844 594.287C579.318 593.813 580.086 593.813 580.56 594.287L613.739 627.466C622.357 636.084 622.357 650.057 613.739 658.675C605.121 667.293 591.148 667.293 582.53 658.675L582.527 658.671L579.753 655.898L576.926 658.616C568.287 666.923 554.547 666.819 546.034 658.306C537.52 649.793 537.417 636.053 545.723 627.414L545.876 627.255Z" stroke="#FFF066" stroke-width="8"/>
<rect x="577" y="646" width="5" height="33" rx="2.5" fill="#FFF066"/>
<path d="M545.876 465.255L578.844 432.287C579.318 431.813 580.086 431.813 580.56 432.287L613.739 465.466C622.357 474.084 622.357 488.057 613.739 496.675C605.121 505.293 591.148 505.293 582.53 496.675L582.527 496.671L579.753 493.898L576.926 496.616C568.287 504.923 554.547 504.819 546.034 496.306C537.52 487.793 537.417 474.053 545.723 465.414L545.876 465.255Z" stroke="#FFF066" stroke-width="8"/>
<rect x="577" y="484" width="5" height="33" rx="2.5" fill="#FFF066"/>
<path d="M209.876 465.255L242.844 432.287C243.318 431.813 244.086 431.813 244.56 432.287L277.739 465.466C286.357 474.084 286.357 488.057 277.739 496.675C269.121 505.293 255.148 505.293 246.53 496.675L246.527 496.671L243.753 493.898L240.926 496.616C232.287 504.923 218.547 504.819 210.034 496.306C201.52 487.793 201.417 474.053 209.723 465.414L209.876 465.255Z" stroke="#FFF066" stroke-width="8"/>
<rect x="241" y="484" width="5" height="33" rx="2.5" fill="#FFF066"/>
<path d="M545.876 303.255L578.844 270.287C579.318 269.813 580.086 269.813 580.56 270.287L613.739 303.466C622.357 312.084 622.357 326.057 613.739 334.675C605.121 343.293 591.148 343.293 582.53 334.675L582.527 334.671L579.753 331.898L576.926 334.616C568.287 342.923 554.547 342.819 546.034 334.306C537.52 325.793 537.417 312.053 545.723 303.414L545.876 303.255Z" stroke="#FFF066" stroke-width="8"/>
<rect x="577" y="322" width="5" height="33" rx="2.5" fill="#FFF066"/>
<path d="M209.876 303.255L242.844 270.287C243.318 269.813 244.086 269.813 244.56 270.287L277.739 303.466C286.357 312.084 286.357 326.057 277.739 334.675C269.121 343.293 255.148 343.293 246.53 334.675L246.527 334.671L243.753 331.898L240.926 334.616C232.287 342.923 218.547 342.819 210.034 334.306C201.52 325.793 201.417 312.053 209.723 303.414L209.876 303.255Z" stroke="#FFF066" stroke-width="8"/>
<rect x="241" y="322" width="5" height="33" rx="2.5" fill="#FFF066"/>
<path d="M377.876 303.255L410.844 270.287C411.318 269.813 412.086 269.813 412.56 270.287L445.739 303.466C454.357 312.084 454.357 326.057 445.739 334.675C437.121 343.293 423.148 343.293 414.53 334.675L414.527 334.671L411.753 331.898L408.926 334.616C400.287 342.923 386.547 342.819 378.034 334.306C369.52 325.793 369.417 312.053 377.723 303.414L377.876 303.255Z" stroke="#FFF066" stroke-width="8"/>
<rect x="409" y="322" width="5" height="33" rx="2.5" fill="#FFF066"/>
</svg>
