<svg width="822" height="1122" viewBox="0 0 822 1122" fill="none" xmlns="http://www.w3.org/2000/svg">
<path d="M0 20C0 8.9543 8.95431 0 20 0H802C813.046 0 822 8.9543 822 20V1102C822 1113.05 813.046 1122 802 1122H20C8.95432 1122 0 1113.05 0 1102V20Z" fill="#1A0033"/>
<path d="M56.5765 159C55.5525 159 54.7845 158.829 54.2725 158.488C53.8458 158.061 53.6325 157.379 53.6325 156.44V155.544C53.6325 153.667 54.6138 152.728 56.5765 152.728H72.1925V80.408L57.3445 89.368C56.5765 89.88 55.8938 90.136 55.2965 90.136C54.6138 90.136 54.0165 89.6667 53.5045 88.728L52.9925 87.96C52.6512 87.3627 52.4805 86.808 52.4805 86.296C52.4805 85.3573 52.9925 84.5893 54.0165 83.992L72.9605 72.6C73.6432 72.1733 74.4538 71.96 75.3925 71.96H76.1605C78.1232 71.96 79.1045 72.9413 79.1045 74.904V152.728H94.7205C96.6832 152.728 97.6645 153.667 97.6645 155.544V156.44C97.6645 157.379 97.4085 158.061 96.8965 158.488C96.4698 158.829 95.7445 159 94.7205 159H56.5765ZM149.42 160.92C136.278 160.92 126.294 156.995 119.468 149.144C112.641 141.208 109.228 129.987 109.228 115.48C109.228 100.973 112.641 89.7947 119.468 81.944C126.294 74.008 136.278 70.04 149.42 70.04C162.561 70.04 172.545 74.008 179.372 81.944C186.198 89.7947 189.612 100.973 189.612 115.48C189.612 129.987 186.198 141.208 179.372 149.144C172.545 156.995 162.561 160.92 149.42 160.92ZM169.9 81.688C164.609 77.848 157.782 75.928 149.42 75.928C138.412 75.928 130.049 79.2987 124.332 86.04C118.7 92.696 115.884 102.509 115.884 115.48C115.884 128.792 118.828 138.776 124.716 145.432L169.9 81.688ZM149.42 155.032C160.428 155.032 168.748 151.704 174.38 145.048C180.097 138.307 182.956 128.451 182.956 115.48C182.956 102.68 180.14 92.8667 174.507 86.04L129.452 149.656C134.572 153.24 141.228 155.032 149.42 155.032Z" fill="#FFF066"/>
<path d="M141.309 231.337C141.309 231.336 141.309 231.335 141.309 231.333C141.309 219.551 132.085 210 120.706 210C109.327 210 100.103 219.551 100.103 231.333C88.7243 231.333 79.5 240.885 79.5 252.667C79.5 264.449 88.7243 274 100.103 274C110.489 274 119.08 266.043 120.5 255.695C121.92 266.043 130.511 274 140.897 274C152.276 274 161.5 264.449 161.5 252.667C161.5 241.027 152.498 231.565 141.309 231.337Z" fill="#FFF066"/>
<rect x="118.5" y="251" width="5" height="33" rx="2.5" fill="#FFF066"/>
<path d="M757.423 959C758.447 959 759.215 959.171 759.727 959.512C760.154 959.939 760.367 960.621 760.367 961.56V962.456C760.367 964.333 759.386 965.272 757.423 965.272H741.807V1037.59L756.655 1028.63C757.423 1028.12 758.106 1027.86 758.703 1027.86C759.386 1027.86 759.983 1028.33 760.495 1029.27L761.007 1030.04C761.349 1030.64 761.519 1031.19 761.519 1031.7C761.519 1032.64 761.007 1033.41 759.983 1034.01L741.039 1045.4C740.357 1045.83 739.546 1046.04 738.607 1046.04H737.839C735.877 1046.04 734.896 1045.06 734.896 1043.1V965.272H719.279C717.317 965.272 716.335 964.333 716.335 962.456V961.56C716.335 960.621 716.591 959.939 717.103 959.512C717.53 959.171 718.255 959 719.279 959H757.423ZM664.58 957.08C677.722 957.08 687.706 961.005 694.532 968.856C701.359 976.792 704.772 988.013 704.772 1002.52C704.772 1017.03 701.359 1028.21 694.532 1036.06C687.706 1043.99 677.722 1047.96 664.58 1047.96C651.439 1047.96 641.455 1043.99 634.628 1036.06C627.802 1028.21 624.388 1017.03 624.388 1002.52C624.388 988.013 627.802 976.792 634.628 968.856C641.455 961.005 651.439 957.08 664.58 957.08ZM644.1 1036.31C649.391 1040.15 656.218 1042.07 664.58 1042.07C675.588 1042.07 683.951 1038.7 689.668 1031.96C695.3 1025.3 698.116 1015.49 698.116 1002.52C698.116 989.208 695.172 979.224 689.284 972.568L644.1 1036.31ZM664.58 962.968C653.572 962.968 645.252 966.296 639.62 972.952C633.903 979.693 631.044 989.549 631.044 1002.52C631.044 1015.32 633.86 1025.13 639.493 1031.96L684.548 968.344C679.428 964.76 672.772 962.968 664.58 962.968Z" fill="#FFF066"/>
<path d="M672.691 886.663C672.691 886.664 672.691 886.665 672.691 886.667C672.691 898.449 681.915 908 693.294 908C704.673 908 713.897 898.449 713.897 886.667C725.276 886.667 734.5 877.115 734.5 865.333C734.5 853.551 725.276 844 713.897 844C703.511 844 694.92 851.957 693.5 862.305C692.08 851.957 683.489 844 673.103 844C661.724 844 652.5 853.551 652.5 865.333C652.5 876.973 661.502 886.435 672.691 886.663Z" fill="#FFF066"/>
<rect x="695.5" y="867" width="5" height="33" rx="2.5" transform="rotate(-180 695.5 867)" fill="#FFF066"/>
<path d="M435.668 465.317V469.236L439.586 469.317C452.372 469.581 463 480.65 463 494.689C463 508.902 452.111 520.066 439.111 520.066C427.238 520.066 417.144 510.777 415.464 498.324H407.536C405.856 510.777 395.762 520.066 383.889 520.066C370.889 520.066 360 508.902 360 494.689C360 480.475 370.889 469.312 383.889 469.312H387.889V465.312C387.889 451.098 398.778 439.935 411.779 439.935C424.779 439.935 435.668 451.098 435.668 465.312V465.312V465.312V465.312V465.312V465.312V465.312V465.312V465.312V465.312V465.312V465.312V465.312V465.313V465.313V465.313V465.313V465.313V465.313V465.313V465.313V465.313V465.313V465.313V465.313V465.313V465.313V465.313V465.314V465.314V465.314V465.314V465.314V465.314V465.314V465.314V465.314V465.314V465.314V465.314V465.314V465.314V465.314V465.315V465.315V465.315V465.315V465.315V465.315V465.315V465.315V465.315V465.315V465.315V465.315V465.315V465.315V465.315V465.316V465.316V465.316V465.316V465.316V465.316V465.316V465.316V465.316V465.316V465.316V465.316V465.316V465.316V465.316V465.317V465.317V465.317V465.317V465.317V465.317V465.317V465.317V465.317V465.317V465.317V465.317V465.317Z" stroke="#FFF066" stroke-width="8"/>
<path d="M408.307 502.026C408.307 500.347 409.668 498.985 411.348 498.985C413.028 498.985 414.389 500.347 414.389 502.026V532.959C414.389 534.638 413.028 536 411.348 536C409.668 536 408.307 534.638 408.307 532.959V502.026Z" fill="#FFF066"/>
<path d="M267.668 627.317V631.236L271.586 631.317C284.372 631.581 295 642.65 295 656.689C295 670.902 284.111 682.066 271.111 682.066C259.238 682.066 249.144 672.777 247.464 660.324H239.536C237.856 672.777 227.762 682.066 215.889 682.066C202.889 682.066 192 670.902 192 656.689C192 642.475 202.889 631.312 215.889 631.312H219.889V627.312C219.889 613.098 230.778 601.935 243.779 601.935C256.779 601.935 267.668 613.098 267.668 627.312V627.312V627.312V627.312V627.312V627.312V627.312V627.312V627.312V627.312V627.312V627.312V627.312V627.313V627.313V627.313V627.313V627.313V627.313V627.313V627.313V627.313V627.313V627.313V627.313V627.313V627.313V627.313V627.314V627.314V627.314V627.314V627.314V627.314V627.314V627.314V627.314V627.314V627.314V627.314V627.314V627.314V627.314V627.315V627.315V627.315V627.315V627.315V627.315V627.315V627.315V627.315V627.315V627.315V627.315V627.315V627.315V627.315V627.316V627.316V627.316V627.316V627.316V627.316V627.316V627.316V627.316V627.316V627.316V627.316V627.316V627.316V627.316V627.317V627.317V627.317V627.317V627.317V627.317V627.317V627.317V627.317V627.317V627.317V627.317V627.317Z" stroke="#FFF066" stroke-width="8"/>
<path d="M240.307 664.026C240.307 662.347 241.668 660.985 243.348 660.985C245.028 660.985 246.389 662.347 246.389 664.026V694.959C246.389 696.638 245.028 698 243.348 698C241.668 698 240.307 696.638 240.307 694.959V664.026Z" fill="#FFF066"/>
<path d="M431.668 627.317V631.236L435.586 631.317C448.372 631.581 459 642.65 459 656.689C459 670.902 448.111 682.066 435.111 682.066C423.238 682.066 413.144 672.777 411.464 660.324H403.536C401.856 672.777 391.762 682.066 379.889 682.066C366.889 682.066 356 670.902 356 656.689C356 642.475 366.889 631.312 379.889 631.312H383.889V627.312C383.889 613.098 394.778 601.935 407.779 601.935C420.779 601.935 431.668 613.098 431.668 627.312V627.312V627.312V627.312V627.312V627.312V627.312V627.312V627.312V627.312V627.312V627.312V627.312V627.313V627.313V627.313V627.313V627.313V627.313V627.313V627.313V627.313V627.313V627.313V627.313V627.313V627.313V627.313V627.314V627.314V627.314V627.314V627.314V627.314V627.314V627.314V627.314V627.314V627.314V627.314V627.314V627.314V627.314V627.315V627.315V627.315V627.315V627.315V627.315V627.315V627.315V627.315V627.315V627.315V627.315V627.315V627.315V627.315V627.316V627.316V627.316V627.316V627.316V627.316V627.316V627.316V627.316V627.316V627.316V627.316V627.316V627.316V627.316V627.317V627.317V627.317V627.317V627.317V627.317V627.317V627.317V627.317V627.317V627.317V627.317V627.317Z" stroke="#FFF066" stroke-width="8"/>
<path d="M404.307 664.026C404.307 662.347 405.668 660.985 407.348 660.985C409.028 660.985 410.389 662.347 410.389 664.026V694.959C410.389 696.638 409.028 698 407.348 698C405.668 698 404.307 696.638 404.307 694.959V664.026Z" fill="#FFF066"/>
<path d="M435.668 789.317V793.236L439.586 793.317C452.372 793.581 463 804.65 463 818.689C463 832.902 452.111 844.066 439.111 844.066C427.238 844.066 417.144 834.777 415.464 822.324H407.536C405.856 834.777 395.762 844.066 383.889 844.066C370.889 844.066 360 832.902 360 818.689C360 804.475 370.889 793.312 383.889 793.312H387.889V789.312C387.889 775.098 398.778 763.935 411.779 763.935C424.779 763.935 435.668 775.098 435.668 789.312V789.312V789.312V789.312V789.312V789.312V789.312V789.312V789.312V789.312V789.312V789.312V789.312V789.313V789.313V789.313V789.313V789.313V789.313V789.313V789.313V789.313V789.313V789.313V789.313V789.313V789.313V789.313V789.314V789.314V789.314V789.314V789.314V789.314V789.314V789.314V789.314V789.314V789.314V789.314V789.314V789.314V789.314V789.315V789.315V789.315V789.315V789.315V789.315V789.315V789.315V789.315V789.315V789.315V789.315V789.315V789.315V789.315V789.316V789.316V789.316V789.316V789.316V789.316V789.316V789.316V789.316V789.316V789.316V789.316V789.316V789.316V789.316V789.317V789.317V789.317V789.317V789.317V789.317V789.317V789.317V789.317V789.317V789.317V789.317V789.317Z" stroke="#FFF066" stroke-width="8"/>
<path d="M408.307 826.026C408.307 824.347 409.668 822.985 411.348 822.985C413.028 822.985 414.389 824.347 414.389 826.026V856.959C414.389 858.638 413.028 860 411.348 860C409.668 860 408.307 858.638 408.307 856.959V826.026Z" fill="#FFF066"/>
<path d="M603.668 627.317V631.236L607.586 631.317C620.372 631.581 631 642.65 631 656.689C631 670.902 620.111 682.066 607.111 682.066C595.238 682.066 585.144 672.777 583.464 660.324H575.536C573.856 672.777 563.762 682.066 551.889 682.066C538.889 682.066 528 670.902 528 656.689C528 642.475 538.889 631.312 551.889 631.312H555.889V627.312C555.889 613.098 566.778 601.935 579.779 601.935C592.779 601.935 603.668 613.098 603.668 627.312V627.312V627.312V627.312V627.312V627.312V627.312V627.312V627.312V627.312V627.312V627.312V627.312V627.313V627.313V627.313V627.313V627.313V627.313V627.313V627.313V627.313V627.313V627.313V627.313V627.313V627.313V627.313V627.314V627.314V627.314V627.314V627.314V627.314V627.314V627.314V627.314V627.314V627.314V627.314V627.314V627.314V627.314V627.315V627.315V627.315V627.315V627.315V627.315V627.315V627.315V627.315V627.315V627.315V627.315V627.315V627.315V627.315V627.316V627.316V627.316V627.316V627.316V627.316V627.316V627.316V627.316V627.316V627.316V627.316V627.316V627.316V627.316V627.317V627.317V627.317V627.317V627.317V627.317V627.317V627.317V627.317V627.317V627.317V627.317V627.317Z" stroke="#FFF066" stroke-width="8"/>
<path d="M576.307 664.026C576.307 662.347 577.668 660.985 579.348 660.985C581.028 660.985 582.389 662.347 582.389 664.026V694.959C582.389 696.638 581.028 698 579.348 698C577.668 698 576.307 696.638 576.307 694.959V664.026Z" fill="#FFF066"/>
<path d="M603.668 465.317V469.236L607.586 469.317C620.372 469.581 631 480.65 631 494.689C631 508.902 620.111 520.066 607.111 520.066C595.238 520.066 585.144 510.777 583.464 498.324H575.536C573.856 510.777 563.762 520.066 551.889 520.066C538.889 520.066 528 508.902 528 494.689C528 480.475 538.889 469.312 551.889 469.312H555.889V465.312C555.889 451.098 566.778 439.935 579.779 439.935C592.779 439.935 603.668 451.098 603.668 465.312V465.312V465.312V465.312V465.312V465.312V465.312V465.312V465.312V465.312V465.312V465.312V465.312V465.313V465.313V465.313V465.313V465.313V465.313V465.313V465.313V465.313V465.313V465.313V465.313V465.313V465.313V465.313V465.314V465.314V465.314V465.314V465.314V465.314V465.314V465.314V465.314V465.314V465.314V465.314V465.314V465.314V465.314V465.315V465.315V465.315V465.315V465.315V465.315V465.315V465.315V465.315V465.315V465.315V465.315V465.315V465.315V465.315V465.316V465.316V465.316V465.316V465.316V465.316V465.316V465.316V465.316V465.316V465.316V465.316V465.316V465.316V465.316V465.317V465.317V465.317V465.317V465.317V465.317V465.317V465.317V465.317V465.317V465.317V465.317V465.317Z" stroke="#FFF066" stroke-width="8"/>
<path d="M576.307 502.026C576.307 500.347 577.668 498.985 579.348 498.985C581.028 498.985 582.389 500.347 582.389 502.026V532.959C582.389 534.638 581.028 536 579.348 536C577.668 536 576.307 534.638 576.307 532.959V502.026Z" fill="#FFF066"/>
<path d="M267.668 465.317V469.236L271.586 469.317C284.372 469.581 295 480.65 295 494.689C295 508.902 284.111 520.066 271.111 520.066C259.238 520.066 249.144 510.777 247.464 498.324H239.536C237.856 510.777 227.762 520.066 215.889 520.066C202.889 520.066 192 508.902 192 494.689C192 480.475 202.889 469.312 215.889 469.312H219.889V465.312C219.889 451.098 230.778 439.935 243.779 439.935C256.779 439.935 267.668 451.098 267.668 465.312V465.312V465.312V465.312V465.312V465.312V465.312V465.312V465.312V465.312V465.312V465.312V465.312V465.313V465.313V465.313V465.313V465.313V465.313V465.313V465.313V465.313V465.313V465.313V465.313V465.313V465.313V465.313V465.314V465.314V465.314V465.314V465.314V465.314V465.314V465.314V465.314V465.314V465.314V465.314V465.314V465.314V465.314V465.315V465.315V465.315V465.315V465.315V465.315V465.315V465.315V465.315V465.315V465.315V465.315V465.315V465.315V465.315V465.316V465.316V465.316V465.316V465.316V465.316V465.316V465.316V465.316V465.316V465.316V465.316V465.316V465.316V465.316V465.317V465.317V465.317V465.317V465.317V465.317V465.317V465.317V465.317V465.317V465.317V465.317V465.317Z" stroke="#FFF066" stroke-width="8"/>
<path d="M240.307 502.026C240.307 500.347 241.668 498.985 243.348 498.985C245.028 498.985 246.389 500.347 246.389 502.026V532.959C246.389 534.638 245.028 536 243.348 536C241.668 536 240.307 534.638 240.307 532.959V502.026Z" fill="#FFF066"/>
<path d="M603.668 303.317V307.236L607.586 307.317C620.372 307.581 631 318.65 631 332.689C631 346.902 620.111 358.066 607.111 358.066C595.238 358.066 585.144 348.777 583.464 336.324H575.536C573.856 348.777 563.762 358.066 551.889 358.066C538.889 358.066 528 346.902 528 332.689C528 318.475 538.889 307.312 551.889 307.312H555.889V303.312C555.889 289.098 566.778 277.935 579.779 277.935C592.779 277.935 603.668 289.098 603.668 303.312V303.312V303.312V303.312V303.312V303.312V303.312V303.312V303.312V303.312V303.312V303.312V303.312V303.313V303.313V303.313V303.313V303.313V303.313V303.313V303.313V303.313V303.313V303.313V303.313V303.313V303.313V303.313V303.314V303.314V303.314V303.314V303.314V303.314V303.314V303.314V303.314V303.314V303.314V303.314V303.314V303.314V303.314V303.315V303.315V303.315V303.315V303.315V303.315V303.315V303.315V303.315V303.315V303.315V303.315V303.315V303.315V303.315V303.316V303.316V303.316V303.316V303.316V303.316V303.316V303.316V303.316V303.316V303.316V303.316V303.316V303.316V303.316V303.317V303.317V303.317V303.317V303.317V303.317V303.317V303.317V303.317V303.317V303.317V303.317V303.317Z" stroke="#FFF066" stroke-width="8"/>
<path d="M576.307 340.026C576.307 338.347 577.668 336.985 579.348 336.985C581.028 336.985 582.389 338.347 582.389 340.026V370.959C582.389 372.638 581.028 374 579.348 374C577.668 374 576.307 372.638 576.307 370.959V340.026Z" fill="#FFF066"/>
<path d="M267.668 303.317V307.236L271.586 307.317C284.372 307.581 295 318.65 295 332.689C295 346.902 284.111 358.066 271.111 358.066C259.238 358.066 249.144 348.777 247.464 336.324H239.536C237.856 348.777 227.762 358.066 215.889 358.066C202.889 358.066 192 346.902 192 332.689C192 318.475 202.889 307.312 215.889 307.312H219.889V303.312C219.889 289.098 230.778 277.935 243.779 277.935C256.779 277.935 267.668 289.098 267.668 303.312V303.312V303.312V303.312V303.312V303.312V303.312V303.312V303.312V303.312V303.312V303.312V303.312V303.313V303.313V303.313V303.313V303.313V303.313V303.313V303.313V303.313V303.313V303.313V303.313V303.313V303.313V303.313V303.314V303.314V303.314V303.314V303.314V303.314V303.314V303.314V303.314V303.314V303.314V303.314V303.314V303.314V303.314V303.315V303.315V303.315V303.315V303.315V303.315V303.315V303.315V303.315V303.315V303.315V303.315V303.315V303.315V303.315V303.316V303.316V303.316V303.316V303.316V303.316V303.316V303.316V303.316V303.316V303.316V303.316V303.316V303.316V303.316V303.317V303.317V303.317V303.317V303.317V303.317V303.317V303.317V303.317V303.317V303.317V303.317V303.317Z" stroke="#FFF066" stroke-width="8"/>
<path d="M240.307 340.026C240.307 338.347 241.668 336.985 243.348 336.985C245.028 336.985 246.389 338.347 246.389 340.026V370.959C246.389 372.638 245.028 374 243.348 374C241.668 374 240.307 372.638 240.307 370.959V340.026Z" fill="#FFF066"/>
<path d="M435.668 303.317V307.236L439.586 307.317C452.372 307.581 463 318.65 463 332.689C463 346.902 452.111 358.066 439.111 358.066C427.238 358.066 417.144 348.777 415.464 336.324H407.536C405.856 348.777 395.762 358.066 383.889 358.066C370.889 358.066 360 346.902 360 332.689C360 318.475 370.889 307.312 383.889 307.312H387.889V303.312C387.889 289.098 398.778 277.935 411.779 277.935C424.779 277.935 435.668 289.098 435.668 303.312V303.312V303.312V303.312V303.312V303.312V303.312V303.312V303.312V303.312V303.312V303.312V303.312V303.313V303.313V303.313V303.313V303.313V303.313V303.313V303.313V303.313V303.313V303.313V303.313V303.313V303.313V303.313V303.314V303.314V303.314V303.314V303.314V303.314V303.314V303.314V303.314V303.314V303.314V303.314V303.314V303.314V303.314V303.315V303.315V303.315V303.315V303.315V303.315V303.315V303.315V303.315V303.315V303.315V303.315V303.315V303.315V303.315V303.316V303.316V303.316V303.316V303.316V303.316V303.316V303.316V303.316V303.316V303.316V303.316V303.316V303.316V303.316V303.317V303.317V303.317V303.317V303.317V303.317V303.317V303.317V303.317V303.317V303.317V303.317V303.317Z" stroke="#FFF066" stroke-width="8"/>
<path d="M408.307 340.026C408.307 338.347 409.668 336.985 411.348 336.985C413.028 336.985 414.389 338.347 414.389 340.026V370.959C414.389 372.638 413.028 374 411.348 374C409.668 374 408.307 372.638 408.307 370.959V340.026Z" fill="#FFF066"/>
</svg>
