<svg width="822" height="1122" viewBox="0 0 822 1122" fill="none" xmlns="http://www.w3.org/2000/svg">
<path d="M0 20C0 8.9543 8.95431 0 20 0H802C813.046 0 822 8.9543 822 20V1102C822 1113.05 813.046 1122 802 1122H20C8.95432 1122 0 1113.05 0 1102V20Z" fill="#1A0033"/>
<path d="M119.787 160.92C113.643 160.92 108.181 160.408 103.403 159.384C98.6238 158.36 94.6985 156.867 91.6265 154.904C91.1145 154.563 90.8158 154.264 90.7305 154.008C90.6452 153.752 90.7305 153.368 90.9865 152.856L92.6505 150.04C92.9065 149.528 93.2052 149.272 93.5465 149.272C93.7172 149.272 94.0158 149.4 94.4425 149.656C100.587 153.24 108.907 155.032 119.403 155.032C127.851 155.032 134.165 153.197 138.347 149.528C142.613 145.859 144.747 140.995 144.747 134.936C144.747 128.792 142.955 124.269 139.371 121.368C135.787 118.381 130.411 116.888 123.243 116.888H112.107C110.144 116.888 109.163 115.949 109.163 114.072V113.176C109.163 112.237 109.376 111.597 109.803 111.256C110.315 110.829 111.083 110.616 112.107 110.616H124.139C129.941 110.616 134.336 108.952 137.323 105.624C140.395 102.211 141.931 98.1147 141.931 93.336C141.931 87.5333 139.925 83.1813 135.915 80.28C131.904 77.3787 126.187 75.928 118.763 75.928C114.155 75.928 109.931 76.44 106.091 77.464C102.251 78.4027 99.0505 79.6827 96.4905 81.304C96.1492 81.56 95.8505 81.688 95.5945 81.688C95.2532 81.688 94.9545 81.432 94.6985 80.92L93.0345 78.104C92.8638 77.848 92.7785 77.5493 92.7785 77.208C92.7785 76.7813 93.0772 76.3973 93.6745 76.056C96.2345 74.264 99.8185 72.8133 104.427 71.704C109.035 70.5947 113.984 70.04 119.275 70.04C128.32 70.04 135.445 72.1733 140.651 76.44C145.941 80.7067 148.587 86.3387 148.587 93.336C148.587 97.688 147.435 101.741 145.131 105.496C142.827 109.251 139.584 111.981 135.403 113.688C141.035 115.395 145.088 117.997 147.562 121.496C150.123 124.995 151.403 129.475 151.403 134.936C151.403 139.971 150.165 144.451 147.691 148.376C145.301 152.301 141.717 155.373 136.939 157.592C132.245 159.811 126.528 160.92 119.787 160.92Z" fill="#FFF066"/>
<path d="M141.309 231.337C141.309 231.336 141.309 231.335 141.309 231.333C141.309 219.551 132.085 210 120.706 210C109.327 210 100.103 219.551 100.103 231.333C88.7243 231.333 79.5 240.885 79.5 252.667C79.5 264.449 88.7243 274 100.103 274C110.489 274 119.08 266.043 120.5 255.695C121.92 266.043 130.511 274 140.897 274C152.276 274 161.5 264.449 161.5 252.667C161.5 241.027 152.498 231.565 141.309 231.337Z" fill="#FFF066"/>
<rect x="118.5" y="251" width="5" height="33" rx="2.5" fill="#FFF066"/>
<path d="M694.213 957.08C700.357 957.08 705.819 957.592 710.597 958.616C715.376 959.64 719.301 961.133 722.373 963.096C722.885 963.437 723.184 963.736 723.269 963.992C723.355 964.248 723.269 964.632 723.013 965.144L721.349 967.96C721.093 968.472 720.795 968.728 720.453 968.728C720.283 968.728 719.984 968.6 719.557 968.344C713.413 964.76 705.093 962.968 694.597 962.968C686.149 962.968 679.835 964.803 675.653 968.472C671.387 972.141 669.253 977.005 669.253 983.064C669.253 989.208 671.045 993.731 674.629 996.632C678.213 999.619 683.589 1001.11 690.757 1001.11H701.893C703.856 1001.11 704.837 1002.05 704.837 1003.93V1004.82C704.837 1005.76 704.624 1006.4 704.197 1006.74C703.685 1007.17 702.917 1007.38 701.893 1007.38H689.861C684.059 1007.38 679.664 1009.05 676.677 1012.38C673.605 1015.79 672.069 1019.89 672.069 1024.66C672.069 1030.47 674.075 1034.82 678.085 1037.72C682.096 1040.62 687.813 1042.07 695.237 1042.07C699.845 1042.07 704.069 1041.56 707.909 1040.54C711.749 1039.6 714.949 1038.32 717.509 1036.7C717.851 1036.44 718.149 1036.31 718.405 1036.31C718.747 1036.31 719.045 1036.57 719.301 1037.08L720.965 1039.9C721.136 1040.15 721.221 1040.45 721.221 1040.79C721.221 1041.22 720.923 1041.6 720.325 1041.94C717.765 1043.74 714.181 1045.19 709.573 1046.3C704.965 1047.41 700.016 1047.96 694.725 1047.96C685.68 1047.96 678.555 1045.83 673.349 1041.56C668.059 1037.29 665.413 1031.66 665.413 1024.66C665.413 1020.31 666.565 1016.26 668.869 1012.5C671.173 1008.75 674.416 1006.02 678.597 1004.31C672.965 1002.61 668.912 1000 666.438 996.504C663.877 993.005 662.597 988.525 662.597 983.064C662.597 978.029 663.835 973.549 666.309 969.624C668.699 965.699 672.283 962.627 677.061 960.408C681.755 958.189 687.472 957.08 694.213 957.08Z" fill="#FFF066"/>
<path d="M672.691 886.663C672.691 886.664 672.691 886.665 672.691 886.667C672.691 898.449 681.915 908 693.294 908C704.673 908 713.897 898.449 713.897 886.667C725.276 886.667 734.5 877.115 734.5 865.333C734.5 853.551 725.276 844 713.897 844C703.511 844 694.92 851.957 693.5 862.305C692.08 851.957 683.489 844 673.103 844C661.724 844 652.5 853.551 652.5 865.333C652.5 876.973 661.502 886.435 672.691 886.663Z" fill="#FFF066"/>
<rect x="695.5" y="867" width="5" height="33" rx="2.5" transform="rotate(-180 695.5 867)" fill="#FFF066"/>
<path d="M351.668 627.317V631.236L355.586 631.317C368.372 631.581 379 642.65 379 656.689C379 670.902 368.111 682.066 355.111 682.066C343.238 682.066 333.144 672.777 331.464 660.324H323.536C321.856 672.777 311.762 682.066 299.889 682.066C286.889 682.066 276 670.902 276 656.689C276 642.475 286.889 631.312 299.889 631.312H303.889V627.312C303.889 613.098 314.778 601.935 327.779 601.935C340.779 601.935 351.668 613.098 351.668 627.312V627.312V627.312V627.312V627.312V627.312V627.312V627.312V627.312V627.312V627.312V627.312V627.312V627.313V627.313V627.313V627.313V627.313V627.313V627.313V627.313V627.313V627.313V627.313V627.313V627.313V627.313V627.313V627.314V627.314V627.314V627.314V627.314V627.314V627.314V627.314V627.314V627.314V627.314V627.314V627.314V627.314V627.314V627.315V627.315V627.315V627.315V627.315V627.315V627.315V627.315V627.315V627.315V627.315V627.315V627.315V627.315V627.315V627.316V627.316V627.316V627.316V627.316V627.316V627.316V627.316V627.316V627.316V627.316V627.316V627.316V627.316V627.316V627.317V627.317V627.317V627.317V627.317V627.317V627.317V627.317V627.317V627.317V627.317V627.317V627.317Z" stroke="#FFF066" stroke-width="8"/>
<path d="M324.307 664.027C324.307 662.347 325.668 660.986 327.348 660.986C329.028 660.986 330.389 662.347 330.389 664.027V694.959C330.389 696.639 329.028 698 327.348 698C325.668 698 324.307 696.639 324.307 694.959V664.027Z" fill="#FFF066"/>
<path d="M519.668 627.317V631.236L523.586 631.317C536.372 631.581 547 642.65 547 656.689C547 670.902 536.111 682.066 523.111 682.066C511.238 682.066 501.144 672.777 499.464 660.324H491.536C489.856 672.777 479.762 682.066 467.889 682.066C454.889 682.066 444 670.902 444 656.689C444 642.475 454.889 631.312 467.889 631.312H471.889V627.312C471.889 613.098 482.778 601.935 495.779 601.935C508.779 601.935 519.668 613.098 519.668 627.312V627.312V627.312V627.312V627.312V627.312V627.312V627.312V627.312V627.312V627.312V627.312V627.312V627.313V627.313V627.313V627.313V627.313V627.313V627.313V627.313V627.313V627.313V627.313V627.313V627.313V627.313V627.313V627.314V627.314V627.314V627.314V627.314V627.314V627.314V627.314V627.314V627.314V627.314V627.314V627.314V627.314V627.314V627.315V627.315V627.315V627.315V627.315V627.315V627.315V627.315V627.315V627.315V627.315V627.315V627.315V627.315V627.315V627.316V627.316V627.316V627.316V627.316V627.316V627.316V627.316V627.316V627.316V627.316V627.316V627.316V627.316V627.316V627.317V627.317V627.317V627.317V627.317V627.317V627.317V627.317V627.317V627.317V627.317V627.317V627.317Z" stroke="#FFF066" stroke-width="8"/>
<path d="M492.307 664.027C492.307 662.347 493.668 660.986 495.348 660.986C497.028 660.986 498.389 662.347 498.389 664.027V694.959C498.389 696.639 497.028 698 495.348 698C493.668 698 492.307 696.639 492.307 694.959V664.027Z" fill="#FFF066"/>
<path d="M435.668 465.317V469.236L439.586 469.317C452.372 469.581 463 480.65 463 494.689C463 508.902 452.111 520.066 439.111 520.066C427.238 520.066 417.144 510.777 415.464 498.324H407.536C405.856 510.777 395.762 520.066 383.889 520.066C370.889 520.066 360 508.902 360 494.689C360 480.475 370.889 469.312 383.889 469.312H387.889V465.312C387.889 451.098 398.778 439.935 411.779 439.935C424.779 439.935 435.668 451.098 435.668 465.312V465.312V465.312V465.312V465.312V465.312V465.312V465.312V465.312V465.312V465.312V465.312V465.312V465.313V465.313V465.313V465.313V465.313V465.313V465.313V465.313V465.313V465.313V465.313V465.313V465.313V465.313V465.313V465.314V465.314V465.314V465.314V465.314V465.314V465.314V465.314V465.314V465.314V465.314V465.314V465.314V465.314V465.314V465.315V465.315V465.315V465.315V465.315V465.315V465.315V465.315V465.315V465.315V465.315V465.315V465.315V465.315V465.315V465.316V465.316V465.316V465.316V465.316V465.316V465.316V465.316V465.316V465.316V465.316V465.316V465.316V465.316V465.316V465.317V465.317V465.317V465.317V465.317V465.317V465.317V465.317V465.317V465.317V465.317V465.317V465.317Z" stroke="#FFF066" stroke-width="8"/>
<path d="M408.307 502.027C408.307 500.347 409.668 498.986 411.348 498.986C413.028 498.986 414.389 500.347 414.389 502.027V532.959C414.389 534.639 413.028 536 411.348 536C409.668 536 408.307 534.639 408.307 532.959V502.027Z" fill="#FFF066"/>
</svg>
