<svg width="822" height="1122" viewBox="0 0 822 1122" fill="none" xmlns="http://www.w3.org/2000/svg">
<path d="M0 20C0 8.9543 8.95431 0 20 0H802C813.046 0 822 8.9543 822 20V1102C822 1113.05 813.046 1122 802 1122H20C8.95432 1122 0 1113.05 0 1102V20Z" fill="#1A0033"/>
<path d="M94.359 159C92.3963 159 91.415 158.019 91.415 156.056V151.96C91.415 146.413 93.7617 140.867 98.455 135.32C103.148 129.773 109.762 124.867 118.295 120.6C124.866 117.357 129.943 114.499 133.527 112.024C137.111 109.464 139.714 106.733 141.335 103.832C143.042 100.931 143.895 97.3893 143.895 93.208C143.895 87.4907 141.719 83.1813 137.367 80.28C133.1 77.3787 127.682 75.928 121.111 75.928C111.298 75.928 103.575 77.72 97.943 81.304C97.5163 81.56 97.2177 81.688 97.047 81.688C96.7057 81.688 96.407 81.432 96.151 80.92L94.487 78.104C94.3163 77.848 94.231 77.5493 94.231 77.208C94.231 76.7813 94.5297 76.3973 95.127 76.056C97.687 74.264 101.271 72.8133 105.879 71.704C110.572 70.5947 115.65 70.04 121.111 70.04C126.658 70.04 131.65 70.936 136.087 72.728C140.524 74.52 144.023 77.1653 146.583 80.664C149.228 84.1627 150.551 88.344 150.551 93.208C150.551 98.2427 149.484 102.595 147.351 106.264C145.218 109.933 142.231 113.176 138.391 115.992C134.551 118.808 129.559 121.709 123.415 124.696C115.138 128.792 108.866 133.229 104.599 138.008C100.418 142.701 98.327 147.608 98.327 152.728H146.583C148.546 152.728 149.527 153.667 149.527 155.544V156.44C149.527 157.379 149.271 158.061 148.759 158.488C148.332 158.829 147.607 159 146.583 159H94.359Z" fill="#FFF066"/>
<path d="M141.309 231.337C141.309 231.336 141.309 231.335 141.309 231.333C141.309 219.551 132.085 210 120.706 210C109.327 210 100.103 219.551 100.103 231.333C88.7243 231.333 79.5 240.885 79.5 252.667C79.5 264.449 88.7243 274 100.103 274C110.489 274 119.08 266.043 120.5 255.695C121.92 266.043 130.511 274 140.897 274C152.276 274 161.5 264.449 161.5 252.667C161.5 241.027 152.498 231.565 141.309 231.337Z" fill="#FFF066"/>
<rect x="118.5" y="251" width="5" height="33" rx="2.5" fill="#FFF066"/>
<path d="M719.641 959C721.604 959 722.585 959.981 722.585 961.944V966.04C722.585 971.587 720.238 977.133 715.545 982.68C710.852 988.227 704.238 993.133 695.705 997.4C689.134 1000.64 684.057 1003.5 680.473 1005.98C676.889 1008.54 674.286 1011.27 672.665 1014.17C670.958 1017.07 670.105 1020.61 670.105 1024.79C670.105 1030.51 672.281 1034.82 676.633 1037.72C680.9 1040.62 686.318 1042.07 692.889 1042.07C702.702 1042.07 710.425 1040.28 716.057 1036.7C716.484 1036.44 716.782 1036.31 716.953 1036.31C717.294 1036.31 717.593 1036.57 717.849 1037.08L719.513 1039.9C719.684 1040.15 719.769 1040.45 719.769 1040.79C719.769 1041.22 719.47 1041.6 718.873 1041.94C716.313 1043.74 712.729 1045.19 708.121 1046.3C703.428 1047.41 698.35 1047.96 692.889 1047.96C687.342 1047.96 682.35 1047.06 677.913 1045.27C673.476 1043.48 669.977 1040.83 667.417 1037.34C664.772 1033.84 663.449 1029.66 663.449 1024.79C663.449 1019.76 664.516 1015.41 666.649 1011.74C668.782 1008.07 671.769 1004.82 675.609 1002.01C679.449 999.192 684.441 996.291 690.585 993.304C698.862 989.208 705.134 984.771 709.401 979.992C713.582 975.299 715.673 970.392 715.673 965.272H667.417C665.454 965.272 664.473 964.333 664.473 962.456V961.56C664.473 960.621 664.729 959.939 665.241 959.512C665.668 959.171 666.393 959 667.417 959H719.641Z" fill="#FFF066"/>
<path d="M672.691 886.663C672.691 886.664 672.691 886.665 672.691 886.667C672.691 898.449 681.915 908 693.294 908C704.673 908 713.897 898.449 713.897 886.667C725.276 886.667 734.5 877.115 734.5 865.333C734.5 853.551 725.276 844 713.897 844C703.511 844 694.92 851.957 693.5 862.305C692.08 851.957 683.489 844 673.103 844C661.724 844 652.5 853.551 652.5 865.333C652.5 876.973 661.502 886.435 672.691 886.663Z" fill="#FFF066"/>
<rect x="695.5" y="867" width="5" height="33" rx="2.5" transform="rotate(-180 695.5 867)" fill="#FFF066"/>
<path d="M351.668 546.317V550.236L355.586 550.317C368.372 550.581 379 561.65 379 575.689C379 589.902 368.111 601.066 355.111 601.066C343.238 601.066 333.144 591.777 331.464 579.324H323.536C321.856 591.777 311.762 601.066 299.889 601.066C286.889 601.066 276 589.902 276 575.689C276 561.475 286.889 550.312 299.889 550.312H303.889V546.312C303.889 532.098 314.778 520.935 327.779 520.935C340.779 520.935 351.668 532.098 351.668 546.312V546.312V546.312V546.312V546.312V546.312V546.312V546.312V546.312V546.312V546.312V546.312V546.312V546.313V546.313V546.313V546.313V546.313V546.313V546.313V546.313V546.313V546.313V546.313V546.313V546.313V546.313V546.313V546.314V546.314V546.314V546.314V546.314V546.314V546.314V546.314V546.314V546.314V546.314V546.314V546.314V546.314V546.314V546.315V546.315V546.315V546.315V546.315V546.315V546.315V546.315V546.315V546.315V546.315V546.315V546.315V546.315V546.315V546.316V546.316V546.316V546.316V546.316V546.316V546.316V546.316V546.316V546.316V546.316V546.316V546.316V546.316V546.316V546.317V546.317V546.317V546.317V546.317V546.317V546.317V546.317V546.317V546.317V546.317V546.317V546.317Z" stroke="#FFF066" stroke-width="8"/>
<path d="M324.307 583.027C324.307 581.347 325.668 579.986 327.348 579.986C329.028 579.986 330.389 581.347 330.389 583.027V613.959C330.389 615.639 329.028 617 327.348 617C325.668 617 324.307 615.639 324.307 613.959V583.027Z" fill="#FFF066"/>
<path d="M519.668 546.317V550.236L523.586 550.317C536.372 550.581 547 561.65 547 575.689C547 589.902 536.111 601.066 523.111 601.066C511.238 601.066 501.144 591.777 499.464 579.324H491.536C489.856 591.777 479.762 601.066 467.889 601.066C454.889 601.066 444 589.902 444 575.689C444 561.475 454.889 550.312 467.889 550.312H471.889V546.312C471.889 532.098 482.778 520.935 495.779 520.935C508.779 520.935 519.668 532.098 519.668 546.312V546.312V546.312V546.312V546.312V546.312V546.312V546.312V546.312V546.312V546.312V546.312V546.312V546.313V546.313V546.313V546.313V546.313V546.313V546.313V546.313V546.313V546.313V546.313V546.313V546.313V546.313V546.313V546.314V546.314V546.314V546.314V546.314V546.314V546.314V546.314V546.314V546.314V546.314V546.314V546.314V546.314V546.314V546.315V546.315V546.315V546.315V546.315V546.315V546.315V546.315V546.315V546.315V546.315V546.315V546.315V546.315V546.315V546.316V546.316V546.316V546.316V546.316V546.316V546.316V546.316V546.316V546.316V546.316V546.316V546.316V546.316V546.316V546.317V546.317V546.317V546.317V546.317V546.317V546.317V546.317V546.317V546.317V546.317V546.317V546.317Z" stroke="#FFF066" stroke-width="8"/>
<path d="M492.307 583.027C492.307 581.347 493.668 579.986 495.348 579.986C497.028 579.986 498.389 581.347 498.389 583.027V613.959C498.389 615.639 497.028 617 495.348 617C493.668 617 492.307 615.639 492.307 613.959V583.027Z" fill="#FFF066"/>
</svg>
